<?xml version="1.0" encoding="UTF-8" standalone="no"?>
<!DOCTYPE svg PUBLIC "-//W3C//DTD SVG 1.1//EN" "http://www.w3.org/Graphics/SVG/1.1/DTD/svg11.dtd">
<!-- Generated by Microsoft Visio, SVG Export visio-how-to-companies-commercialize-its-products.svg Page-1 -->
<svg xmlns="http://www.w3.org/2000/svg" xmlns:xlink="http://www.w3.org/1999/xlink" xmlns:ev="http://www.w3.org/2001/xml-events"
		xmlns:v="http://schemas.microsoft.com/visio/2003/SVGExtensions/" width="8.26772in" height="11.6929in"
		viewBox="0 0 595.276 841.89" xml:space="preserve" color-interpolation-filters="sRGB" class="st29">
	<v:documentProperties v:langID="11274" v:metric="true" v:viewMarkup="false">
		<v:userDefs>
			<v:ud v:nameU="msvNoAutoConnect" v:val="VT0(1):26"/>
		</v:userDefs>
	</v:documentProperties>

	<style type="text/css">
	<![CDATA[
		.st1 {fill:url(#grad0-5);stroke:none;stroke-linecap:round;stroke-linejoin:round;stroke-width:0.75}
		.st2 {fill:url(#grad0-15);stroke:none;stroke-linecap:round;stroke-linejoin:round;stroke-width:0.75}
		.st3 {fill:#ffffff;stroke:#000000;stroke-dasharray:4.56,1.2,1.68,1.2,1.68,1.2;stroke-linecap:round;stroke-linejoin:round;stroke-width:0.24}
		.st4 {fill:#ffffff}
		.st5 {stroke:#000000;stroke-linecap:round;stroke-linejoin:round;stroke-width:0.75}
		.st6 {fill:#4d1e1a;font-family:Calibri;font-size:1.16666em}
		.st7 {font-size:1em}
		.st8 {fill:#000000}
		.st9 {fill:#000000;stroke:#000000;stroke-linecap:round;stroke-linejoin:round;stroke-width:0.75}
		.st10 {fill:#ffffff;stroke:#000000;stroke-linecap:round;stroke-linejoin:round;stroke-width:0.75}
		.st11 {fill:#4d1e1a;font-family:Calibri;font-size:1.5em}
		.st12 {stroke:#000000;stroke-linecap:round;stroke-linejoin:round;stroke-width:0.75;visibility:hidden}
		.st13 {fill:#595959;stroke:none;stroke-linecap:butt;stroke-width:0.75}
		.st14 {fill:#000000;font-family:Lucida Sans Unicode;font-size:1.16666em}
		.st15 {fill:#612621;stroke:#000000;stroke-linecap:round;stroke-linejoin:round;stroke-width:0.75}
		.st16 {fill:#4d1e1a;font-family:Calibri;font-size:0.833336em}
		.st17 {marker-end:url(#mrkr2-308);marker-start:url(#mrkr2-306);stroke:#000000;stroke-linecap:round;stroke-linejoin:round;stroke-width:0.75}
		.st18 {fill:#000000;fill-opacity:1;stroke:#000000;stroke-opacity:1;stroke-width:0.22935779816514}
		.st19 {stroke:#000000;stroke-dasharray:0.75,1.5;stroke-linecap:round;stroke-linejoin:round;stroke-width:0.75}
		.st20 {stroke:#000000;stroke-dasharray:5.25,3.75;stroke-linecap:round;stroke-linejoin:round;stroke-width:0.75}
		.st21 {marker-end:url(#mrkr1-333);stroke:#000000;stroke-linecap:round;stroke-linejoin:round;stroke-width:0.75}
		.st22 {marker-start:url(#mrkr2-306);stroke:#000000;stroke-linecap:round;stroke-linejoin:round;stroke-width:0.75}
		.st23 {marker-end:url(#mrkr2-308);marker-start:url(#mrkr2-306);stroke:#000000;stroke-dasharray:0.75,1.5;stroke-linecap:round;stroke-linejoin:round;stroke-width:0.75}
		.st24 {marker-end:url(#mrkr4-378);stroke:#000000;stroke-linecap:round;stroke-linejoin:round;stroke-width:0.75}
		.st25 {visibility:visible}
		.st26 {fill:#000000;fill-opacity:0.4;filter:url(#filter_2.6666667461395);stroke:#000000;stroke-linecap:round;stroke-linejoin:round;stroke-opacity:0.4}
		.st27 {fill:#ebf1df;fill-opacity:0.69;stroke:#31859b;stroke-linecap:round;stroke-linejoin:round;stroke-width:1.25}
		.st28 {fill:#000000;font-family:Microsoft PhagsPa;font-size:2.16666em;font-weight:bold;letter-spacing:0.0423077em}
		.st29 {fill:none;fill-rule:evenodd;font-size:12px;overflow:visible;stroke-linecap:square;stroke-miterlimit:3}
	]]>
	</style>

	<defs id="Patterns_And_Gradients">
		<linearGradient id="grad0-5" x1="0" y1="0" x2="1" y2="0" gradientTransform="rotate(90 0.5 0.5)">
			<stop offset="0" stop-color="#ffbf00" stop-opacity="1"/>
			<stop offset="1" stop-color="#c49300" stop-opacity="1"/>
		</linearGradient>
		<linearGradient id="grad0-15" x1="0" y1="0" x2="1" y2="0" gradientTransform="rotate(180 0.5 0.5)">
			<stop offset="0" stop-color="#ffbf00" stop-opacity="0.5"/>
			<stop offset="1" stop-color="#c49300" stop-opacity="0.2"/>
		</linearGradient>
	</defs>
	<defs id="Markers">
		<g id="lend2">
			<path d="M 1 1 L 0 0 L 1 -1 L 1 1 " style="stroke:none"/>
		</g>
		<marker id="mrkr2-306" class="st18" v:arrowType="2" v:arrowSize="2" v:setback="3.88" refX="3.88" orient="auto"
				markerUnits="strokeWidth" overflow="visible">
			<use xlink:href="#lend2" transform="scale(4.36) "/>
		</marker>
		<marker id="mrkr2-308" class="st18" v:arrowType="2" v:arrowSize="2" v:setback="4.36" refX="-4.36" orient="auto"
				markerUnits="strokeWidth" overflow="visible">
			<use xlink:href="#lend2" transform="scale(-4.36,-4.36) "/>
		</marker>
		<g id="lend1">
			<path d="M 1 -1 L 0 0 L 1 1 " style="stroke-linecap:round;stroke-linejoin:round;fill:none"/>
		</g>
		<marker id="mrkr1-333" class="st18" v:arrowType="1" v:arrowSize="2" orient="auto" markerUnits="strokeWidth"
				overflow="visible">
			<use xlink:href="#lend1" transform="scale(-4.36,-4.36) "/>
		</marker>
		<g id="lend4">
			<path d="M 2 1 L 0 0 L 2 -1 L 2 1 " style="stroke:none"/>
		</g>
		<marker id="mrkr4-378" class="st18" v:arrowType="4" v:arrowSize="2" v:setback="8.72" refX="-8.72" orient="auto"
				markerUnits="strokeWidth" overflow="visible">
			<use xlink:href="#lend4" transform="scale(-4.36,-4.36) "/>
		</marker>
	</defs>
	<defs id="Filters">
		<filter id="filter_2.6666667461395">
			<feGaussianBlur stdDeviation="2.6666667461395"/>
		</filter>
	</defs>
	<g v:mID="4" v:index="1" v:groupContext="backgroundPage">
		<v:userDefs>
			<v:ud v:nameU="msvVisioCreated" v:prompt="" v:val="VT0(0):26"/>
		</v:userDefs>
		<title>VBackground-1</title>
		<v:pageProperties width="8.26772" height="11.6929" v:drawingScale="0.0393701" v:pageScale="0.0393701" v:drawingUnits="24"
				v:shadowOffsetX="8.50394" v:shadowOffsetY="-8.50394"/>
		<g id="group2-1" v:mID="2" v:groupContext="group">
			<v:userDefs>
				<v:ud v:nameU="Background" v:prompt="" v:val="VT0(0):26"/>
				<v:ud v:nameU="visVersion" v:prompt="" v:val="VT0(15):26"/>
				<v:ud v:nameU="msvShapeCategories" v:prompt="" v:val="VT4(DoNotContain)"/>
				<v:ud v:nameU="msvVisioCreated" v:prompt="" v:val="VT0(0):26"/>
			</v:userDefs>
			<title>Verve</title>
			<g id="shape3-2" v:mID="3" v:groupContext="shape">
				<title>Sheet.3</title>
				<path d="M0 0 L595.24 0 L595.24 841.89 L0 0 Z" class="st1"/>
			</g>
			<g id="shape4-6" v:mID="4" v:groupContext="shape" transform="translate(0.0352297,0)">
				<title>Sheet.4</title>
				<path d="M0 0 L595.24 841.89 L0 841.89 L0 0 Z" class="st1"/>
			</g>
			<g id="shape5-9" v:mID="5" v:groupContext="shape" transform="translate(377.098,4.09273E-12)">
				<title>Sheet.5</title>
				<path d="M218.14 544.75 A17630.7 32270.5 -180 0 0 -0 841.89 L218.14 841.89 L218.14 544.75 Z" class="st1"/>
			</g>
			<g id="shape6-12" v:mID="6" v:groupContext="shape" transform="translate(487.753,4.09273E-12)">
				<title>Sheet.6</title>
				<path d="M0 690.01 L107.49 544.75 L107.49 841.89 L0 690.01 Z" class="st2"/>
			</g>
		</g>
	</g>
	<g v:mID="0" v:index="2" v:groupContext="foregroundPage">
		<title>Page-1</title>
		<v:pageProperties v:drawingScale="0.0393701" v:pageScale="0.0393701" v:drawingUnits="24" v:shadowOffsetX="8.50394"
				v:shadowOffsetY="-8.50394"/>
		<v:layer v:name="Flowchart" v:index="0"/>
		<v:layer v:name="Connector" v:index="1"/>
		<v:layer v:name="Container" v:index="2"/>
		<g id="shape84-16" v:mID="84" v:groupContext="shape" transform="translate(18,-127.559)">
			<title>Rounded Rectangle</title>
			<v:userDefs>
				<v:ud v:nameU="CTypeTopLeftSnip" v:prompt="" v:val="VT0(0):5"/>
				<v:ud v:nameU="CTypeTopRightSnip" v:prompt="" v:val="VT0(0):5"/>
				<v:ud v:nameU="CTypeBotLeftSnip" v:prompt="" v:val="VT0(0):5"/>
				<v:ud v:nameU="CTypeBotRightSnip" v:prompt="" v:val="VT0(0):5"/>
				<v:ud v:nameU="CornerLockHoriz" v:prompt="" v:val="VT0(1):5"/>
				<v:ud v:nameU="CornerLockVert" v:prompt="" v:val="VT0(1):5"/>
				<v:ud v:nameU="CornerLockDiag" v:prompt="" v:val="VT0(0):5"/>
				<v:ud v:nameU="TopLeftOffset" v:prompt="" v:val="VT0(0.15748031496063):24"/>
				<v:ud v:nameU="TopRightOffset" v:prompt="" v:val="VT0(0.15748031496063):24"/>
				<v:ud v:nameU="BotLeftOffset" v:prompt="" v:val="VT0(0.15748031496063):24"/>
				<v:ud v:nameU="BotRightOffset" v:prompt="" v:val="VT0(0.15748031496063):24"/>
				<v:ud v:nameU="visVersion" v:prompt="" v:val="VT0(15):26"/>
				<v:ud v:nameU="TopLeftOffset" v:prompt="" v:val="VT0(0.51437006152654):1"/>
				<v:ud v:nameU="TopRightOffset" v:prompt="" v:val="VT0(0.51437006152654):1"/>
				<v:ud v:nameU="BotLeftOffset" v:prompt="" v:val="VT0(0.51437006152654):1"/>
				<v:ud v:nameU="BotRightOffset" v:prompt="" v:val="VT0(0.51437006152654):1"/>
			</v:userDefs>
			<path d="M37.03 841.89 L333.31 841.89 A37.034 37.034 -180 0 0 370.35 804.86 L370.35 666.33 A37.034 37.034 -180 0 0 333.31
						 629.29 L37.03 629.29 A37.034 37.034 -180 0 0 0 666.33 L0 804.86 A37.034 37.034 -180 0 0 37.03 841.89 Z"
					class="st3"/>
		</g>
		<g id="shape1-18" v:mID="1" v:groupContext="shape" v:layerMember="0" transform="translate(26.8811,-406.79)">
			<title>Person</title>
			<desc>Project Manager</desc>
			<v:userDefs>
				<v:ud v:nameU="visVersion" v:prompt="" v:val="VT0(15):26"/>
				<v:ud v:nameU="ConnGap" v:prompt="" v:val="VT0(0.00012908222537757):24"/>
			</v:userDefs>
			<v:textBlock v:margins="rect(4,4,4,4)" v:tabSpace="42.5197"/>
			<v:textRect cx="15.6386" cy="862.691" width="78.2" height="41.6033"/>
			<path d="M25.27 796.47 L6.01 796.47 C4.62 796.47 3.35 796.93 2.33 797.7 C1.62 798.24 1.04 798.93 0.63 799.72 C0.23 800.51
						 0 801.4 0 802.34 L0 824.66 L5.27 824.66 L5.27 841.89 L25.81 841.89 L25.81 824.66 L31.28 824.66 L31.28 802.34
						 C31.28 800.98 30.81 799.74 30.01 798.74 C29.46 798.05 28.76 797.48 27.95 797.09 C27.14 796.69 26.23 796.47
						 25.27 796.47 ZM24.63 785.42 A8.9953 8.69243 -180 1 0 6.64 785.42 A8.9953 8.69243 -180 1 0 24.63 785.42 Z"
					class="st4"/>
			<path d="M25.27 796.47 L6.01 796.47 C4.62 796.47 3.35 796.93 2.33 797.7 C1.62 798.24 1.04 798.93 0.63 799.72 C0.23 800.51
						 0 801.4 0 802.34 L0 824.66 L5.27 824.66 L5.27 841.89 L25.81 841.89 L25.81 824.66 L31.28 824.66 L31.28 802.34
						 C31.28 800.98 30.81 799.74 30.01 798.74 C29.46 798.05 28.76 797.48 27.95 797.09 C27.14 796.69 26.23 796.47
						 25.27 796.47" class="st5"/>
			<path d="M15.64 841.89 L15.64 828.12" class="st5"/>
			<path d="M5.27 824.66 L5.27 812.77" class="st5"/>
			<path d="M25.81 824.66 L25.81 812.77" class="st5"/>
			<path d="M24.63 785.42 A8.9953 8.69243 -180 1 0 6.64 785.42 A8.9953 8.69243 -180 1 0 24.63 785.42" class="st5"/>
			<text x="-4.57" y="858.49" class="st6" v:langID="2058"><v:paragraph v:horizAlign="1"/><v:tabList/>Project <tspan
						x="-9.95" dy="1.2em" class="st7">Manager</tspan></text>		</g>
		<g id="group6-27" transform="translate(148.819,-520.157)" v:mID="6" v:groupContext="group" v:layerMember="0">
			<v:userDefs>
				<v:ud v:nameU="visVersion" v:prompt="" v:val="VT0(15):26"/>
				<v:ud v:nameU="ConnGap" v:prompt="" v:val="VT0(0.00012908222537757):24"/>
			</v:userDefs>
			<title>Manager</title>
			<desc>Director</desc>
			<g id="shape7-28" v:mID="7" v:groupContext="shape" v:layerMember="0" transform="translate(7.99361E-15,-16.0865)">
				<title>Sheet.7</title>
				<path d="M7.15 838.46 A3.57738 3.42956 -180 1 0 0 838.46 A3.57738 3.42956 -180 1 0 7.15 838.46 ZM14.99 838.46 A3.57738
							 3.42956 -180 1 0 7.84 838.46 A3.57738 3.42956 -180 1 0 14.99 838.46 ZM22.83 838.46 A3.57738 3.42956
							 -180 1 0 15.67 838.46 A3.57738 3.42956 -180 1 0 22.83 838.46 ZM30.66 838.46 A3.57738 3.42956 -180 1
							 0 23.51 838.46 A3.57738 3.42956 -180 1 0 30.66 838.46 ZM38.5 838.46 A3.57738 3.42956 -180 1 0 31.34
							 838.46 A3.57738 3.42956 -180 1 0 38.5 838.46 ZM46.34 838.46 A3.57737 3.42956 -180 1 0 39.18 838.46 A3.57737
							 3.42956 -180 1 0 46.34 838.46 Z" class="st8"/>
				<path d="M7.15 838.46 A3.57738 3.42956 -180 1 0 0 838.46 A3.57738 3.42956 -180 1 0 7.15 838.46" class="st5"/>
				<path d="M14.99 838.46 A3.57738 3.42956 -180 1 0 7.84 838.46 A3.57738 3.42956 -180 1 0 14.99 838.46" class="st5"/>
				<path d="M22.83 838.46 A3.57738 3.42956 -180 1 0 15.67 838.46 A3.57738 3.42956 -180 1 0 22.83 838.46" class="st5"/>
				<path d="M30.66 838.46 A3.57738 3.42956 -180 1 0 23.51 838.46 A3.57738 3.42956 -180 1 0 30.66 838.46" class="st5"/>
				<path d="M38.5 838.46 A3.57738 3.42956 -180 1 0 31.34 838.46 A3.57738 3.42956 -180 1 0 38.5 838.46" class="st5"/>
				<path d="M46.34 838.46 A3.57737 3.42956 -180 1 0 39.18 838.46 A3.57737 3.42956 -180 1 0 46.34 838.46" class="st5"/>
				<path d="M37.92 831.7 L40.89 835.53" class="st5"/>
				<path d="M34.98 832.4 L34.92 835.03" class="st5"/>
				<path d="M24.88 832.09 L25.69 835.3" class="st5"/>
				<path d="M8.42 831.7 L5.44 835.53" class="st5"/>
				<path d="M11.35 832.4 L11.41 835.03" class="st5"/>
				<path d="M21.45 832.09 L20.65 835.3" class="st5"/>
			</g>
			<g id="shape8-42" v:mID="8" v:groupContext="shape" v:layerMember="0" transform="translate(27.2562,0)">
				<title>Sheet.8</title>
				<path d="M39.83 810.41 A5.05439 4.84648 -180 1 0 29.72 810.41 A5.05439 4.84648 -180 1 0 39.83 810.41 ZM40.19 816.56
							 L29.25 816.56 C28.46 816.56 27.74 816.82 27.16 817.25 C26.76 817.55 26.42 817.94 26.19 818.38 C25.96
							 818.82 25.83 819.31 25.83 819.84 L25.83 832.28 L28.83 832.28 L28.83 841.89 L40.5 841.89 L40.5 832.28
							 L43.61 832.28 L43.61 819.84 C43.61 819.08 43.34 818.39 42.89 817.83 C42.58 817.45 42.18 817.13 41.72
							 816.91 C41.26 816.69 40.74 816.56 40.19 816.56 Z" class="st4"/>
				<path d="M39.83 810.41 A5.05439 4.84648 -180 1 0 29.72 810.41 A5.05439 4.84648 -180 1 0 39.83 810.41" class="st5"/>
				<path d="M40.19 816.56 L29.25 816.56 C28.46 816.56 27.74 816.82 27.16 817.25 C26.76 817.55 26.42 817.94 26.19 818.38
							 C25.96 818.82 25.83 819.31 25.83 819.84 L25.83 832.28 L28.83 832.28 L28.83 841.89 L40.5 841.89 L40.5
							 832.28 L43.61 832.28 L43.61 819.84 C43.61 819.08 43.34 818.39 42.89 817.83 C42.58 817.45 42.18 817.13
							 41.72 816.91 C41.26 816.69 40.74 816.56 40.19 816.56" class="st5"/>
				<path d="M34.72 841.89 L34.72 834.21" class="st5"/>
				<path d="M28.83 832.28 L28.83 825.65" class="st5"/>
				<path d="M40.5 832.28 L40.5 825.65" class="st5"/>
				<path d="M0 832.28 L25.83 832.28" class="st5"/>
			</g>
			<g id="shape9-50" v:mID="9" v:groupContext="shape" v:layerMember="0" transform="translate(6.38817,-25.5586)">
				<title>Sheet.9</title>
				<path d="M9.03 837.56 A4.51431 4.32778 -180 1 0 0 837.56 A4.51431 4.32778 -180 1 0 9.03 837.56 ZM21.29 837.56 A4.51431
							 4.32778 -180 1 0 12.27 837.56 A4.51431 4.32778 -180 1 0 21.29 837.56 ZM33.56 837.56 A4.51431 4.32778
							 -180 1 0 24.53 837.56 A4.51431 4.32778 -180 1 0 33.56 837.56 Z" class="st4"/>
				<path d="M9.03 837.56 A4.51431 4.32778 -180 1 0 0 837.56 A4.51431 4.32778 -180 1 0 9.03 837.56" class="st5"/>
				<path d="M21.29 837.56 A4.51431 4.32778 -180 1 0 12.27 837.56 A4.51431 4.32778 -180 1 0 21.29 837.56" class="st5"/>
				<path d="M33.56 837.56 A4.51431 4.32778 -180 1 0 24.53 837.56 A4.51431 4.32778 -180 1 0 33.56 837.56" class="st5"/>
				<path d="M27.09 833.66 L22.83 827.07" class="st5"/>
				<path d="M16.78 833.23 L16.78 828.82" class="st5"/>
				<path d="M6.47 833.66 L10.73 827.07" class="st5"/>
			</g>
			<g id="shape10-58" v:mID="10" v:groupContext="shape" v:layerMember="0" transform="translate(12.2653,-38.6236)">
				<title>Sheet.10</title>
				<ellipse cx="10.9025" cy="831.438" rx="10.9025" ry="10.452" class="st9"/>
			</g>
			<g id="shape6-60" v:mID="6" v:groupContext="groupContent" v:layerMember="0">
				<v:textBlock v:margins="rect(4,4,4,4)" v:tabSpace="42.5197"/>
				<v:textRect cx="35.4331" cy="854.291" width="57.72" height="24.8035"/>
				<text x="12.16" y="858.49" class="st6" v:langID="2058"><v:paragraph v:horizAlign="1"/><v:tabList/>Director</text>			</g>
		</g>
		<g id="group11-62" transform="translate(63.7795,-520.157)" v:mID="11" v:groupContext="group" v:layerMember="0">
			<v:userDefs>
				<v:ud v:nameU="visVersion" v:prompt="" v:val="VT0(15):26"/>
				<v:ud v:nameU="ConnGap" v:prompt="" v:val="VT0(0.00012908222537757):24"/>
			</v:userDefs>
			<title>Executive</title>
			<desc>Manager</desc>
			<g id="shape12-63" v:mID="12" v:groupContext="shape" v:layerMember="0" transform="translate(27.2562,0)">
				<title>Sheet.12</title>
				<path d="M39.83 810.41 A5.05439 4.84648 -180 1 0 29.72 810.41 A5.05439 4.84648 -180 1 0 39.83 810.41 ZM40.19 816.56
							 L29.25 816.56 C28.46 816.56 27.74 816.82 27.16 817.25 C26.76 817.55 26.42 817.94 26.19 818.38 C25.96
							 818.82 25.83 819.31 25.83 819.84 L25.83 832.28 L28.83 832.28 L28.83 841.89 L40.5 841.89 L40.5 832.28
							 L43.61 832.28 L43.61 819.84 C43.61 819.08 43.34 818.39 42.89 817.83 C42.58 817.45 42.18 817.13 41.72
							 816.91 C41.26 816.69 40.74 816.56 40.19 816.56 Z" class="st4"/>
				<path d="M39.83 810.41 A5.05439 4.84648 -180 1 0 29.72 810.41 A5.05439 4.84648 -180 1 0 39.83 810.41" class="st5"/>
				<path d="M40.19 816.56 L29.25 816.56 C28.46 816.56 27.74 816.82 27.16 817.25 C26.76 817.55 26.42 817.94 26.19 818.38
							 C25.96 818.82 25.83 819.31 25.83 819.84 L25.83 832.28 L28.83 832.28 L28.83 841.89 L40.5 841.89 L40.5
							 832.28 L43.61 832.28 L43.61 819.84 C43.61 819.08 43.34 818.39 42.89 817.83 C42.58 817.45 42.18 817.13
							 41.72 816.91 C41.26 816.69 40.74 816.56 40.19 816.56" class="st5"/>
				<path d="M34.72 841.89 L34.72 834.21" class="st5"/>
				<path d="M28.83 832.28 L28.83 825.65" class="st5"/>
				<path d="M40.5 832.28 L40.5 825.65" class="st5"/>
				<path d="M0 832.28 L25.83 832.28" class="st5"/>
			</g>
			<g id="shape13-71" v:mID="13" v:groupContext="shape" v:layerMember="0" transform="translate(7.99361E-15,-16.0865)">
				<title>Sheet.13</title>
				<path d="M15.42 828.09 A4.51431 4.32778 -180 1 0 6.39 828.09 A4.51431 4.32778 -180 1 0 15.42 828.09 ZM27.68 828.09
							 A4.51431 4.32778 -180 1 0 18.65 828.09 A4.51431 4.32778 -180 1 0 27.68 828.09 ZM39.95 828.09 A4.51431
							 4.32778 -180 1 0 30.92 828.09 A4.51431 4.32778 -180 1 0 39.95 828.09 ZM7.15 838.46 A3.57738 3.42956
							 -180 1 0 0 838.46 A3.57738 3.42956 -180 1 0 7.15 838.46 ZM14.99 838.46 A3.57738 3.42956 -180 1 0 7.84
							 838.46 A3.57738 3.42956 -180 1 0 14.99 838.46 ZM22.83 838.46 A3.57738 3.42956 -180 1 0 15.67 838.46
							 A3.57738 3.42956 -180 1 0 22.83 838.46 ZM30.66 838.46 A3.57738 3.42956 -180 1 0 23.51 838.46 A3.57738
							 3.42956 -180 1 0 30.66 838.46 ZM38.5 838.46 A3.57738 3.42956 -180 1 0 31.34 838.46 A3.57738 3.42956
							 -180 1 0 38.5 838.46 ZM46.34 838.46 A3.57737 3.42956 -180 1 0 39.18 838.46 A3.57737 3.42956 -180 1 0
							 46.34 838.46 Z" class="st8"/>
				<path d="M15.42 828.09 A4.51431 4.32778 -180 1 0 6.39 828.09 A4.51431 4.32778 -180 1 0 15.42 828.09" class="st5"/>
				<path d="M27.68 828.09 A4.51431 4.32778 -180 1 0 18.65 828.09 A4.51431 4.32778 -180 1 0 27.68 828.09" class="st5"/>
				<path d="M39.95 828.09 A4.51431 4.32778 -180 1 0 30.92 828.09 A4.51431 4.32778 -180 1 0 39.95 828.09" class="st5"/>
				<path d="M33.48 824.19 L29.22 817.6" class="st5"/>
				<path d="M23.17 823.76 L23.17 819.35" class="st5"/>
				<path d="M12.85 824.19 L17.12 817.6" class="st5"/>
				<path d="M7.15 838.46 A3.57738 3.42956 -180 1 0 0 838.46 A3.57738 3.42956 -180 1 0 7.15 838.46" class="st5"/>
				<path d="M14.99 838.46 A3.57738 3.42956 -180 1 0 7.84 838.46 A3.57738 3.42956 -180 1 0 14.99 838.46" class="st5"/>
				<path d="M22.83 838.46 A3.57738 3.42956 -180 1 0 15.67 838.46 A3.57738 3.42956 -180 1 0 22.83 838.46" class="st5"/>
				<path d="M30.66 838.46 A3.57738 3.42956 -180 1 0 23.51 838.46 A3.57738 3.42956 -180 1 0 30.66 838.46" class="st5"/>
				<path d="M38.5 838.46 A3.57738 3.42956 -180 1 0 31.34 838.46 A3.57738 3.42956 -180 1 0 38.5 838.46" class="st5"/>
				<path d="M46.34 838.46 A3.57737 3.42956 -180 1 0 39.18 838.46 A3.57737 3.42956 -180 1 0 46.34 838.46" class="st5"/>
				<path d="M37.92 831.7 L40.89 835.53" class="st5"/>
				<path d="M34.98 832.4 L34.92 835.03" class="st5"/>
				<path d="M24.88 832.09 L25.69 835.3" class="st5"/>
				<path d="M8.42 831.7 L5.44 835.53" class="st5"/>
				<path d="M11.35 832.4 L11.41 835.03" class="st5"/>
				<path d="M21.45 832.09 L20.65 835.3" class="st5"/>
			</g>
			<g id="shape14-91" v:mID="14" v:groupContext="shape" v:layerMember="0" transform="translate(12.2653,-38.6236)">
				<title>Sheet.14</title>
				<ellipse cx="10.9025" cy="831.438" rx="10.9025" ry="10.452" class="st10"/>
			</g>
			<g id="shape11-93" v:mID="11" v:groupContext="groupContent" v:layerMember="0">
				<v:textBlock v:margins="rect(4,4,4,4)" v:tabSpace="42.5197"/>
				<v:textRect cx="35.4331" cy="856.692" width="77.87" height="29.6036"/>
				<text x="2.54" y="862.09" class="st11" v:langID="2058"><v:paragraph v:horizAlign="1"/><v:tabList/>Manager</text>			</g>
		</g>
		<g id="group15-95" transform="translate(48.7881,-214.992)" v:mID="15" v:groupContext="group" v:layerMember="0">
			<v:userDefs>
				<v:ud v:nameU="visVersion" v:prompt="" v:val="VT0(15):26"/>
				<v:ud v:nameU="ConnGap" v:prompt="" v:val="VT0(0.00012908222537757):24"/>
			</v:userDefs>
			<title>Team</title>
			<desc>Developers</desc>
			<g id="shape16-96" v:mID="16" v:groupContext="shape" v:layerMember="0">
				<title>Sheet.16</title>
				<path d="M38.43 793.65 A5.1163 5.06248 -180 1 0 28.2 793.65 A5.1163 5.06248 -180 1 0 38.43 793.65 ZM30.91 813.59
							 C31.32 813.59 31.71 813.64 32.09 813.74 C32.16 813.58 32.24 813.42 32.33 813.26 C32.75 812.55 33.34
							 811.95 34.06 811.53 C34.73 811.15 35.51 810.93 36.32 810.93 L38.22 810.93 A6.40898 6.34156 0 0 1 38.42
							 800.22 L27.88 800.22 C27.11 800.22 26.4 800.49 25.83 800.95 C25.48 801.24 25.19 801.59 24.97 801.98
							 A6.40898 6.34156 0 0 1 29.12 813.59 L30.91 813.59 ZM20.16 814.87 C19.39 814.87 18.68 815.14 18.11 815.6
							 C17.71 815.92 17.39 816.33 17.16 816.8 C16.94 817.27 16.81 817.8 16.81 818.36 L16.81 831.64 L19.75 831.64
							 L19.75 824.57 L20.38 824.57 L20.38 841.89 L25.22 841.89 L25.22 833.7 L25.85 833.7 L25.85 841.89 L30.58
							 841.89 L30.58 824.57 L31.21 824.57 L31.21 831.64 L34.27 831.64 L34.27 818.36 C34.27 817.55 34 816.81
							 33.56 816.22 C33.25 815.81 32.86 815.47 32.41 815.24 C31.96 815 31.45 814.87 30.91 814.87 L20.16 814.87
							 ZM30.65 808.3 A5.1163 5.06248 -180 1 0 20.42 808.3 A5.1163 5.06248 -180 1 0 30.65 808.3 ZM13.9 802.8
							 A5.1163 5.06248 -180 1 0 3.67 802.8 A5.1163 5.06248 -180 1 0 13.9 802.8 ZM17.46 812.87 C17.46 812.06
							 17.19 811.32 16.75 810.73 C16.44 810.31 16.05 809.98 15.6 809.74 C15.15 809.5 14.64 809.37 14.1 809.37
							 L3.36 809.37 C2.58 809.37 1.87 809.65 1.3 810.11 C0.91 810.43 0.58 810.84 0.35 811.31 C0.13 811.78 0
							 812.31 0 812.87 L0 826.14 L2.94 826.14 L2.94 819.06 L3.57 819.06 L3.57 836.39 L8.41 836.39 L8.41 828.2
							 L9.04 828.2 L9.04 836.39 L13.77 836.39 L13.77 819.07 L14.4 819.07 L14.4 826.14 L15.52 826.14 L15.52
							 818.36 C15.51 817.48 15.75 816.64 16.17 815.92 C16.5 815.36 16.94 814.87 17.46 814.48 L17.46 812.87
							 Z" class="st10"/>
			</g>
			<g id="shape17-98" v:mID="17" v:groupContext="shape" v:layerMember="0" transform="translate(10.8804,-2.65613)">
				<title>Sheet.17</title>
				<path d="M12.4 792.31 A5.1163 5.06248 -180 1 0 2.17 792.31 A5.1163 5.06248 -180 1 0 12.4 792.31 ZM7.87 816.47 C8.32
							 816.33 8.79 816.25 9.28 816.25 L11.18 816.25 A6.40898 6.34156 0 0 1 12.56 804.98 C12.67 804.61 12.82
							 804.26 13.01 803.93 C13.43 803.21 14.02 802.61 14.74 802.2 C15.1 802 15.49 801.84 15.9 801.73 C15.8
							 801.18 15.57 800.66 15.25 800.23 C14.94 799.82 14.55 799.48 14.1 799.25 C13.65 799.01 13.14 798.88 12.6
							 798.88 L1.85 798.88 C1.17 798.88 0.53 799.09 0 799.46 A6.40898 6.34156 0 0 1 1.44 810.75 L1.44 810.75
							 L3.22 810.75 C4.02 810.75 4.78 810.96 5.44 811.33 C6.1 811.69 6.65 812.21 7.06 812.84 C7.57 813.61 7.87
							 814.53 7.87 815.52 L7.87 816.47 ZM25.44 814.87 C24.67 814.87 23.96 815.14 23.39 815.6 C22.99 815.92
							 22.67 816.33 22.44 816.8 C22.42 816.84 22.41 816.87 22.39 816.91 C22.99 817.27 23.49 817.76 23.87 818.33
							 C24.38 819.1 24.68 820.03 24.68 821.02 L24.68 831.64 L25.03 831.64 L25.03 824.57 L25.66 824.57 L25.66
							 841.89 L30.5 841.89 L30.5 833.7 L31.13 833.7 L31.13 841.89 L35.86 841.89 L35.86 824.57 L36.49 824.57
							 L36.49 831.64 L39.54 831.64 L39.54 818.36 C39.54 817.55 39.28 816.81 38.84 816.22 C38.53 815.81 38.14
							 815.47 37.69 815.24 C37.23 815 36.73 814.87 36.19 814.87 L25.44 814.87 ZM35.99 808.3 A5.1163 5.06248
							 -180 1 0 25.76 808.3 A5.1163 5.06248 -180 1 0 35.99 808.3 Z" class="st10"/>
			</g>
			<g id="shape15-100" v:mID="15" v:groupContext="groupContent" v:layerMember="0">
				<v:textBlock v:margins="rect(4,4,4,4)" v:tabSpace="42.5197"/>
				<v:textRect cx="25.2123" cy="854.291" width="75.32" height="24.8035"/>
				<text x="-6.86" y="858.49" class="st6" v:langID="2058"><v:paragraph v:horizAlign="1"/><v:tabList/>Developers</text>			</g>
		</g>
		<g id="group18-102" transform="translate(311.811,-216.464)" v:mID="18" v:groupContext="group" v:layerMember="0">
			<v:userDefs>
				<v:ud v:nameU="visVersion" v:prompt="" v:val="VT0(15):26"/>
				<v:ud v:nameU="ConnGap" v:prompt="" v:val="VT0(0.00012908222537757):24"/>
			</v:userDefs>
			<title>Document</title>
			<desc>Source Code</desc>
			<g id="shape19-103" v:mID="19" v:groupContext="shape" v:layerMember="0">
				<title>Sheet.19</title>
				<path d="M35.43 795.5 L26.62 784.59 L0 784.59 L0 841.89 L35.43 841.89 L35.43 795.5 Z" class="st10"/>
			</g>
			<g id="shape20-105" v:mID="20" v:groupContext="shape" v:layerMember="0" transform="translate(6.45915,-11.5273)">
				<title>Sheet.20</title>
				<v:userDefs>
					<v:ud v:nameU="SurroundingRegionColor" v:prompt="" v:val="VT0(1):26"/>
				</v:userDefs>
				<path d="M13.29 841.89 L22.33 841.89 L22.33 840.43 L13.29 840.43 L13.29 841.89 ZM0 835.06 L22.33 835.06 L22.33 833.61
							 L0 833.61 L0 835.06 ZM0 828.24 L22.33 828.24 L22.33 826.78 L0 826.78 L0 828.24 ZM0 821.41 L22.33 821.41
							 L22.33 819.95 L0 819.95 L0 821.41 ZM0 814.58 L9.04 814.58 L9.04 813.13 L0 813.13 L0 814.58 ZM0 807.76
							 L9.04 807.76 L9.04 806.3 L0 806.3 L0 807.76 ZM19.91 796.5 L19.91 807.06 L28.43 807.06 L19.91 796.5 Z"
						class="st8"/>
			</g>
			<g id="shape18-108" v:mID="18" v:groupContext="groupContent" v:layerMember="0">
				<v:textBlock v:margins="rect(4,4,4,4)" v:tabSpace="42.5197"/>
				<v:textRect cx="17.7165" cy="854.291" width="82.44" height="24.8035"/>
				<text x="-17.92" y="858.49" class="st6" v:langID="2058"><v:paragraph v:horizAlign="1"/><v:tabList/>Source Code</text>			</g>
		</g>
		<g id="group21-110" transform="translate(304.682,-531.095)" v:mID="21" v:groupContext="group" v:layerMember="0">
			<v:userDefs>
				<v:ud v:nameU="visVersion" v:prompt="" v:val="VT0(15):26"/>
				<v:ud v:nameU="ConnGap" v:prompt="" v:val="VT0(0.00012908222537757):24"/>
			</v:userDefs>
			<title>Product</title>
			<desc>Software Product</desc>
			<g id="shape22-111" v:mID="22" v:groupContext="shape" v:layerMember="0">
				<title>Sheet.22</title>
				<path d="M15.98 811.54 L15.98 806.7 L24.5 806.7 L24.5 811.54 L15.98 811.54 ZM12.25 806.66 L12.25 811.54 L0 811.54
							 L0 841.89 L40.48 841.89 L40.48 811.54 L28.23 811.54 L28.23 806.66 L24.55 803.62 L15.92 803.62 L12.25
							 806.66 Z" class="st4"/>
				<path d="M15.98 811.54 L15.98 806.7 L24.5 806.7 L24.5 811.54 L15.98 811.54" class="st5"/>
				<path d="M12.25 806.66 L12.25 811.54 L0 811.54 L0 841.89 L40.48 841.89 L40.48 811.54 L28.23 811.54 L28.23 806.66
							 L24.55 803.62 L15.92 803.62 L12.25 806.66" class="st5"/>
				<path d="M12.25 806.66 L15.98 806.66" class="st5"/>
				<path d="M24.5 806.66 L28.23 806.66" class="st5"/>
			</g>
			<g id="shape21-117" v:mID="21" v:groupContext="groupContent" v:layerMember="0">
				<v:textBlock v:margins="rect(4,4,4,4)" v:tabSpace="42.5197"/>
				<v:textRect cx="20.2394" cy="862.691" width="62.51" height="41.6033"/>
				<text x="-5.43" y="858.49" class="st6" v:langID="2058"><v:paragraph v:horizAlign="1"/><v:tabList/>Software<v:newlineChar/><tspan
							x="-3.75" dy="1.2em" class="st7"> </tspan>Product</text>			</g>
		</g>
		<g id="group23-120" transform="translate(450.539,-651.968)" v:mID="23" v:groupContext="group" v:layerMember="0">
			<v:userDefs>
				<v:ud v:nameU="visVersion" v:prompt="" v:val="VT0(15):26"/>
				<v:ud v:nameU="ConnGap" v:prompt="" v:val="VT0(0.00012908222537757):24"/>
			</v:userDefs>
			<title>Contract</title>
			<desc>Contract</desc>
			<g id="shape24-121" v:mID="24" v:groupContext="shape" v:layerMember="0">
				<title>Sheet.24</title>
				<rect x="0" y="793.701" width="40.0922" height="48.189" class="st10"/>
			</g>
			<g id="shape25-123" v:mID="25" v:groupContext="shape" v:layerMember="0" transform="translate(29.0864,-6.88414)">
				<title>Sheet.25</title>
				<path d="M2.13 840.78 A1.36532 1.28014 -180 0 0 4.83 840.78 L4.83 836.2 A3.48326 3.26596 -180 0 0 6.96 833.38 L6.96
							 823.41 A4.60388 4.31667 -180 0 0 11.39 819.06 L11.39 812.54 A4.60326 4.31609 -180 0 0 6.96 808.19 A3.47787
							 3.26091 -180 0 0 4.83 805.19 L4.83 800.58 L2.13 800.58 L2.13 805.19 A3.47787 3.26091 -180 0 0 0 808.19
							 L0 833.38 A3.48326 3.26596 -180 0 0 2.13 836.2 L2.13 840.78 Z" class="st10"/>
			</g>
			<g id="shape26-125" v:mID="26" v:groupContext="shape" v:layerMember="0" transform="translate(7.95871,-5.37663)">
				<title>Sheet.26</title>
				<v:userDefs>
					<v:ud v:nameU="SurroundingRegionColor" v:prompt="" v:val="VT0(1):26"/>
				</v:userDefs>
				<path d="M0 809.24 L9.7 809.24 L9.7 808.11 L0 808.11 L0 809.24 ZM0 814.75 L9.7 814.75 L9.7 813.62 L0 813.62 L0 814.75
							 ZM0 820.25 L14.55 820.25 L14.55 819.12 L0 819.12 L0 820.25 ZM0 825.76 L14.55 825.76 L14.55 824.63 L0
							 824.63 L0 825.76 ZM0 831.27 L14.55 831.27 L14.55 830.14 L0 830.14 L0 831.27 ZM8.85 840.3 L21.19 840.3
							 L21.19 839.17 L8.85 839.17 L8.85 840.3 ZM3.79 838.62 L1.92 836.95 L1.03 837.75 L2.9 839.42 L1.03 841.09
							 L1.92 841.89 L3.79 840.22 L5.67 841.89 L6.56 841.09 L4.69 839.42 L6.56 837.75 L5.67 836.95 L3.79 838.62
							 Z" class="st8"/>
			</g>
			<g id="shape27-128" v:mID="27" v:groupContext="shape" v:layerMember="0" transform="translate(29.7266,-7.34129)">
				<title>Sheet.27</title>
				<v:userDefs>
					<v:ud v:nameU="SurroundingRegionColor" v:prompt="" v:val="VT0(1):26"/>
				</v:userDefs>
				<path d="M2.07 837.16 L2.07 841.25 a0.774482 0.691501 -180 0 0 1.54393 0 L3.61 837.16 A2.21602 1.97859 0 0 1 2.07
							 837.16 ZM0 818.38 L0 833.84 A2.86382 2.55698 -180 1 0 5.73 833.85 L5.73 818.38 L0 818.38 ZM7.06 809.38
							 L7.03 809.38 L7.03 812.8 C7.97 813.39 8.61 814.62 8.61 816.05 L8.61 819.5 C8.61 822.61 7.97 822.16 7.03
							 822.75 L7.03 823.12 L7.06 823.12 C8.79 822.61 9.87 821.5 9.87 819.5 L9.87 812.99 C9.87 811 8.6 809.75
							 7.06 809.38 ZM5.73 813.73 L5.73 808.66 A2.86952 2.56207 -180 1 0 0.01 808.66 L0.01 813.67 L5.73 813.73
							 ZM2.07 805.65 A3.3402 2.98232 0 0 1 3.61 805.65 L3.61 801.54 L2.07 801.54 L2.07 805.65 Z" class="st8"/>
			</g>
			<g id="shape23-131" v:mID="23" v:groupContext="groupContent" v:layerMember="0">
				<v:textBlock v:margins="rect(4,4,4,4)" v:tabSpace="42.5197"/>
				<v:textRect cx="20.2394" cy="854.291" width="60.26" height="24.8035"/>
				<text x="-4.3" y="858.49" class="st6" v:langID="2058"><v:paragraph v:horizAlign="1"/><v:tabList/>Contract</text>			</g>
		</g>
		<g id="group28-133" transform="translate(141.745,-286.299)" v:mID="28" v:groupContext="group" v:layerMember="0">
			<v:userDefs>
				<v:ud v:nameU="visVersion" v:prompt="" v:val="VT0(15):26"/>
				<v:ud v:nameU="ConnGap" v:prompt="" v:val="VT0(0.00012908222537757):24"/>
			</v:userDefs>
			<title>Task</title>
			<desc>Task</desc>
			<g id="shape29-134" v:mID="29" v:groupContext="shape" v:layerMember="0">
				<title>Sheet.29</title>
				<path d="M27.55 806.08 L0 806.08 L0 841.89 L27.55 841.89 L27.55 806.08 Z" class="st10"/>
			</g>
			<g id="shape30-136" v:mID="30" v:groupContext="shape" v:layerMember="0" transform="translate(3.19387,-3.52625)">
				<title>Sheet.30</title>
				<v:userDefs>
					<v:ud v:nameU="SurroundingRegionColor" v:prompt="" v:val="VT0(1):26"/>
				</v:userDefs>
				<path d="M21.64 813.13 L0 813.13 L0 841.89 L21.64 841.89 L21.64 813.13 Z" class="st8"/>
			</g>
			<g id="shape31-139" v:mID="31" v:groupContext="shape" v:layerMember="0" transform="translate(5.22462,-30.4583)">
				<title>Sheet.31</title>
				<path d="M11.82 836.25 L10.86 836.25 L10.86 834.08 L6.72 834.08 L6.72 836.25 L5.75 836.25 C4.03 836.25 0 836.25 0
							 841.39 L0 841.89 L17.57 841.89 L17.57 841.39 C17.57 836.86 14.67 836.25 11.82 836.25 Z" class="st10"/>
			</g>
			<g id="shape32-141" v:mID="32" v:groupContext="shape" v:layerMember="0" transform="translate(13.1713,-32.6515)">
				<title>Sheet.32</title>
				<v:userDefs>
					<v:ud v:nameU="SurroundingRegionColor" v:prompt="" v:val="VT0(1):26"/>
				</v:userDefs>
				<ellipse cx="0.840947" cy="841.035" rx="0.840947" ry="0.855185" class="st8"/>
				<ellipse cx="0.840947" cy="841.035" rx="0.840947" ry="0.855185" class="st12"/>
			</g>
			<g id="shape33-144" v:mID="33" v:groupContext="shape" v:layerMember="0" transform="translate(6.31819,-11.078)">
				<title>Sheet.33</title>
				<path d="M0 836.24 L2.62 833.57 L5.63 836.63 L13.28 828.85 L15.83 831.45 L5.56 841.89 L0 836.24 Z" class="st10"/>
			</g>
			<g id="shape28-146" v:mID="28" v:groupContext="groupContent" v:layerMember="0">
				<v:textBlock v:margins="rect(4,4,4,4)" v:tabSpace="42.5197"/>
				<v:textRect cx="13.7764" cy="854.291" width="36.54" height="24.8035"/>
				<text x="1.09" y="858.49" class="st6" v:langID="2058"><v:paragraph v:horizAlign="1"/><v:tabList/>Task</text>			</g>
		</g>
		<g id="group34-148" transform="translate(222.273,-225.171)" v:mID="34" v:groupContext="group" v:layerMember="0">
			<v:userDefs>
				<v:ud v:nameU="visVersion" v:prompt="" v:val="VT0(15):26"/>
				<v:ud v:nameU="ConnGap" v:prompt="" v:val="VT0(0.00012908222537757):24"/>
			</v:userDefs>
			<title>Issue</title>
			<desc>Issue</desc>
			<g id="shape35-149" v:mID="35" v:groupContext="shape" v:layerMember="0">
				<title>Sheet.35</title>
				<path d="M27.55 806.08 L0 806.08 L0 841.89 L27.55 841.89 L27.55 806.08 Z" class="st10"/>
			</g>
			<g id="shape36-151" v:mID="36" v:groupContext="shape" v:layerMember="0" transform="translate(3.19387,-3.52625)">
				<title>Sheet.36</title>
				<v:userDefs>
					<v:ud v:nameU="SurroundingRegionColor" v:prompt="" v:val="VT0(1):26"/>
				</v:userDefs>
				<path d="M21.64 813.13 L0 813.13 L0 841.89 L21.64 841.89 L21.64 813.13 Z" class="st8"/>
			</g>
			<g id="shape37-154" v:mID="37" v:groupContext="shape" v:layerMember="0" transform="translate(5.22462,-30.4583)">
				<title>Sheet.37</title>
				<path d="M11.82 836.25 L10.86 836.25 L10.86 834.08 L6.72 834.08 L6.72 836.25 L5.75 836.25 C4.03 836.25 0 836.25 0
							 841.39 L0 841.89 L17.57 841.89 L17.57 841.39 C17.57 836.86 14.67 836.25 11.82 836.25 Z" class="st10"/>
			</g>
			<g id="shape38-156" v:mID="38" v:groupContext="shape" v:layerMember="0" transform="translate(13.1713,-32.6515)">
				<title>Sheet.38</title>
				<v:userDefs>
					<v:ud v:nameU="SurroundingRegionColor" v:prompt="" v:val="VT0(1):26"/>
				</v:userDefs>
				<ellipse cx="0.840947" cy="841.035" rx="0.840947" ry="0.855185" class="st8"/>
				<ellipse cx="0.840947" cy="841.035" rx="0.840947" ry="0.855185" class="st12"/>
			</g>
			<g id="shape39-159" v:mID="39" v:groupContext="shape" v:layerMember="0" transform="translate(10.9149,-5.97933)">
				<title>Sheet.39</title>
				<path d="M0.59 841.89 L5.61 841.89 L5.61 836.66 L0.59 836.66 L0.59 841.89 ZM5.53 834.48 L6.2 819.57 L0 819.57 L0.67
							 834.48 L5.53 834.48 Z" class="st10"/>
			</g>
			<g id="shape34-161" v:mID="34" v:groupContext="groupContent" v:layerMember="0">
				<v:textBlock v:margins="rect(4,4,4,4)" v:tabSpace="42.5197"/>
				<v:textRect cx="13.7764" cy="854.291" width="39.97" height="24.8035"/>
				<text x="-0.62" y="858.49" class="st6" v:langID="2058"><v:paragraph v:horizAlign="1"/><v:tabList/>Issue</text>			</g>
		</g>
		<g id="shape40-163" v:mID="40" v:groupContext="shape" transform="translate(478.346,-490.394)">
			<title>Users</title>
			<desc>Clients</desc>
			<v:userDefs>
				<v:ud v:nameU="msvShapeCategories" v:prompt="" v:val="VT4(Icon)"/>
				<v:ud v:nameU="visVersion" v:prompt="" v:val="VT0(15):26"/>
			</v:userDefs>
			<v:textBlock v:margins="rect(2,2,2,2)" v:tabSpace="42.5197" v:verticalAlign="2"/>
			<v:textRect cx="62.9704" cy="827.135" width="55.08" height="29.5102"/>
			<path d="M25.95 822 A3.78953 3.85016 -180 0 0 29.73 818.15 A3.78953 3.85016 -180 0 0 25.95 814.3 A3.79095 3.8516 -180
						 0 0 22.16 818.15 A3.79166 3.85233 -180 0 0 25.95 822 ZM25.95 812.38 A5.67921 5.77008 0 0 1 31.63 818.15
						 A5.67921 5.77008 0 0 1 25.95 823.92 A5.67897 5.76984 0 0 1 20.27 818.15 A5.67897 5.76984 0 0 1 25.95 812.38
						 ZM9.49 839.67 A6.61817 6.72406 -180 0 0 17.06 835.82 A8.32577 8.45898 -180 0 0 13.42 828.36 A27851.1 28296.7
						 -180 0 0 9.49 836.22 A14148.5 14374.9 0 0 1 5.55 828.36 A8.32669 8.45992 -180 0 0 1.91 835.82 A6.61743 6.72331
						 -180 0 0 9.49 839.67 ZM13.23 825.99 A9.9784 10.1381 0 0 1 18.95 835.82 A7.56209 7.68309 0 0 1 9.49 841.6
						 A7.56147 7.68246 0 0 1 0.02 835.82 A9.9826 10.1423 0 0 1 5.74 825.99 A6.79732 6.90608 -180 0 0 6.78 826.57
						 L9.49 831.98 L12.19 826.57 A6.69343 6.80053 -180 0 0 13.23 825.99 ZM29.69 823.7 A9.9784 10.1381 0 0 1 35.41
						 833.54 A7.56209 7.68309 0 0 1 25.95 839.31 A15.0741 15.3153 0 0 1 19.61 838.14 A5.7464 5.83834 -180 0 0
						 20.04 836.2 A13.0478 13.2566 -180 0 0 25.95 837.38 A6.61817 6.72406 -180 0 0 33.52 833.54 A8.32379 8.45697
						 -180 0 0 29.88 826.07 A17811.7 18096.7 -180 0 0 25.95 833.94 A19824 20141.2 0 0 1 22.01 826.07 A7.54517
						 7.66589 -180 0 0 18.89 830.2 A10.7161 10.8875 -180 0 0 17.68 828.14 A8.90657 9.04907 0 0 1 22.2 823.7 A6.79732
						 6.90608 -180 0 0 23.24 824.28 L25.95 829.69 L28.65 824.28 A6.69343 6.80053 -180 0 0 29.69 823.7 ZM9.49 824.28
						 A3.78882 3.84944 -180 0 0 13.27 820.44 A3.78953 3.85016 -180 0 0 9.49 816.59 A3.79095 3.8516 -180 0 0 5.7
						 820.44 A3.79166 3.85233 -180 0 0 9.49 824.28 ZM9.49 814.67 A5.67921 5.77008 0 0 1 15.16 820.44 A5.67921
						 5.77008 0 0 1 9.49 826.21 A5.67897 5.76984 0 0 1 3.81 820.44 A5.67897 5.76984 0 0 1 9.49 814.67 Z"
					class="st13"/>
			<text x="39.65" y="835.69" class="st14" v:langID="2058"><v:paragraph v:horizAlign="1"/><v:tabList/>Clients</text>		</g>
		<g id="group43-166" transform="translate(358.413,-651.24)" v:mID="43" v:groupContext="group" v:layerMember="0">
			<v:userDefs>
				<v:ud v:nameU="visVersion" v:prompt="" v:val="VT0(15):26"/>
				<v:ud v:nameU="ConnGap" v:prompt="" v:val="VT0(0.00012908222537757):24"/>
			</v:userDefs>
			<title>Vendor</title>
			<desc>Seller</desc>
			<g id="shape44-167" v:mID="44" v:groupContext="shape" v:layerMember="0" transform="translate(23.5497,0)">
				<title>Sheet.44</title>
				<path d="M25.83 841.89 L47.32 841.89 L47.32 820.64 L25.83 820.64 L25.83 841.89 ZM12.92 816.06 L34.4 816.06 L34.4
							 794.81 L12.92 794.81 L12.92 816.06 ZM0 841.89 L21.48 841.89 L21.48 820.64 L0 820.64 L0 841.89 Z"
						class="st10"/>
			</g>
			<g id="shape45-169" v:mID="45" v:groupContext="shape" v:layerMember="0">
				<title>Sheet.45</title>
				<path d="M3.65 828.84 L0 828.83 L0 812.47 A3.82035 3.77868 0 0 1 3.93 808.56 L30.33 808.56 L30.33 812.8 L21.34 812.8
							 A3.003 2.97024 -180 0 0 18.11 815.8 L18.11 841.89 L3.64 841.89 L3.65 828.84 ZM17.13 799.67 A5.9672 5.97154
							 0 1 1 5.2 799.67 A5.9672 5.97154 0 1 1 17.13 799.67 Z" class="st4"/>
				<path d="M11.23 832.53 L11.23 841.89" class="st5"/>
				<path d="M3.65 820.25 L3.65 828.91" class="st5"/>
				<path d="M3.65 828.84 L0 828.83 L0 812.47 A3.82035 3.77868 0 0 1 3.93 808.56 L30.33 808.56 L30.33 812.8 L21.34 812.8
							 A3.003 2.97024 -180 0 0 18.11 815.8 L18.11 841.89 L3.64 841.89 L3.65 828.84" class="st5"/>
				<path d="M17.13 799.67 A5.9672 5.97154 0 1 1 5.2 799.67 A5.9672 5.97154 0 1 1 17.13 799.67" class="st5"/>
			</g>
			<g id="shape43-175" v:mID="43" v:groupContext="groupContent" v:layerMember="0">
				<v:textBlock v:margins="rect(4,4,4,4)" v:tabSpace="42.5197"/>
				<v:textRect cx="35.4331" cy="854.291" width="42.84" height="24.8035"/>
				<text x="19.6" y="858.49" class="st6" v:langID="2058"><v:paragraph v:horizAlign="1"/><v:tabList/>Seller</text>			</g>
		</g>
		<g id="shape46-177" v:mID="46" v:groupContext="shape" v:layerMember="0" transform="translate(255.757,-520.157)">
			<title>Person.46</title>
			<desc>CEO</desc>
			<v:userDefs>
				<v:ud v:nameU="visVersion" v:prompt="" v:val="VT0(15):26"/>
				<v:ud v:nameU="ConnGap" v:prompt="" v:val="VT0(0.00012908222537757):24"/>
			</v:userDefs>
			<v:textBlock v:margins="rect(4,4,4,4)" v:tabSpace="42.5197"/>
			<v:textRect cx="14.2866" cy="854.291" width="34.74" height="24.8035"/>
			<path d="M23.08 800.39 L5.49 800.39 C4.22 800.39 3.06 800.81 2.13 801.52 C1.48 802.01 0.95 802.64 0.58 803.36 C0.21 804.09
						 0 804.9 0 805.76 L0 826.15 L4.81 826.15 L4.81 841.89 L23.58 841.89 L23.58 826.15 L28.57 826.15 L28.57 805.76
						 C28.57 804.52 28.14 803.38 27.42 802.47 C26.91 801.84 26.27 801.32 25.53 800.96 C24.79 800.6 23.96 800.39
						 23.08 800.39 ZM22.5 790.3 A8.21766 7.94098 -180 1 0 6.07 790.3 A8.21766 7.94098 -180 1 0 22.5 790.3 Z"
					class="st4"/>
			<path d="M23.08 800.39 L5.49 800.39 C4.22 800.39 3.06 800.81 2.13 801.52 C1.48 802.01 0.95 802.64 0.58 803.36 C0.21 804.09
						 0 804.9 0 805.76 L0 826.15 L4.81 826.15 L4.81 841.89 L23.58 841.89 L23.58 826.15 L28.57 826.15 L28.57 805.76
						 C28.57 804.52 28.14 803.38 27.42 802.47 C26.91 801.84 26.27 801.32 25.53 800.96 C24.79 800.6 23.96 800.39
						 23.08 800.39" class="st5"/>
			<path d="M14.29 841.89 L14.29 829.31" class="st5"/>
			<path d="M4.81 826.15 L4.81 815.29" class="st5"/>
			<path d="M23.58 826.15 L23.58 815.29" class="st5"/>
			<path d="M22.5 790.3 A8.21766 7.94098 -180 1 0 6.07 790.3 A8.21766 7.94098 -180 1 0 22.5 790.3" class="st5"/>
			<text x="2.5" y="858.49" class="st6" v:langID="2058"><v:paragraph v:horizAlign="1"/><v:tabList/>CEO</text>		</g>
		<g id="group47-185" transform="translate(142.514,-224.646)" v:mID="47" v:groupContext="group" v:layerMember="0">
			<v:userDefs>
				<v:ud v:nameU="visVersion" v:prompt="" v:val="VT0(15):26"/>
				<v:ud v:nameU="ConnGap" v:prompt="" v:val="VT0(0.00012908222537757):24"/>
			</v:userDefs>
			<title>Task.47</title>
			<desc>Task</desc>
			<g id="shape48-186" v:mID="48" v:groupContext="shape" v:layerMember="0">
				<title>Sheet.48</title>
				<path d="M27.55 806.08 L0 806.08 L0 841.89 L27.55 841.89 L27.55 806.08 Z" class="st10"/>
			</g>
			<g id="shape49-188" v:mID="49" v:groupContext="shape" v:layerMember="0" transform="translate(3.19387,-3.52625)">
				<title>Sheet.49</title>
				<v:userDefs>
					<v:ud v:nameU="SurroundingRegionColor" v:prompt="" v:val="VT0(1):26"/>
				</v:userDefs>
				<path d="M21.64 813.13 L0 813.13 L0 841.89 L21.64 841.89 L21.64 813.13 Z" class="st8"/>
			</g>
			<g id="shape50-191" v:mID="50" v:groupContext="shape" v:layerMember="0" transform="translate(5.22462,-30.4583)">
				<title>Sheet.50</title>
				<path d="M11.82 836.25 L10.86 836.25 L10.86 834.08 L6.72 834.08 L6.72 836.25 L5.75 836.25 C4.03 836.25 0 836.25 0
							 841.39 L0 841.89 L17.57 841.89 L17.57 841.39 C17.57 836.86 14.67 836.25 11.82 836.25 Z" class="st10"/>
			</g>
			<g id="shape51-193" v:mID="51" v:groupContext="shape" v:layerMember="0" transform="translate(13.1713,-32.6515)">
				<title>Sheet.51</title>
				<v:userDefs>
					<v:ud v:nameU="SurroundingRegionColor" v:prompt="" v:val="VT0(1):26"/>
				</v:userDefs>
				<ellipse cx="0.840947" cy="841.035" rx="0.840947" ry="0.855185" class="st8"/>
				<ellipse cx="0.840947" cy="841.035" rx="0.840947" ry="0.855185" class="st12"/>
			</g>
			<g id="shape52-196" v:mID="52" v:groupContext="shape" v:layerMember="0" transform="translate(6.31819,-11.078)">
				<title>Sheet.52</title>
				<path d="M0 836.24 L2.62 833.57 L5.63 836.63 L13.28 828.85 L15.83 831.45 L5.56 841.89 L0 836.24 Z" class="st10"/>
			</g>
			<g id="shape47-198" v:mID="47" v:groupContext="groupContent" v:layerMember="0">
				<v:textBlock v:margins="rect(4,4,4,4)" v:tabSpace="42.5197"/>
				<v:textRect cx="13.7764" cy="854.291" width="36.54" height="24.8035"/>
				<text x="1.09" y="858.49" class="st6" v:langID="2058"><v:paragraph v:horizAlign="1"/><v:tabList/>Task</text>			</g>
		</g>
		<g id="group53-200" transform="translate(142.514,-162.992)" v:mID="53" v:groupContext="group" v:layerMember="0">
			<v:userDefs>
				<v:ud v:nameU="visVersion" v:prompt="" v:val="VT0(15):26"/>
				<v:ud v:nameU="ConnGap" v:prompt="" v:val="VT0(0.00012908222537757):24"/>
			</v:userDefs>
			<title>Task.53</title>
			<desc>Task</desc>
			<g id="shape54-201" v:mID="54" v:groupContext="shape" v:layerMember="0">
				<title>Sheet.54</title>
				<path d="M27.55 806.08 L0 806.08 L0 841.89 L27.55 841.89 L27.55 806.08 Z" class="st10"/>
			</g>
			<g id="shape55-203" v:mID="55" v:groupContext="shape" v:layerMember="0" transform="translate(3.19387,-3.52625)">
				<title>Sheet.55</title>
				<v:userDefs>
					<v:ud v:nameU="SurroundingRegionColor" v:prompt="" v:val="VT0(1):26"/>
				</v:userDefs>
				<path d="M21.64 813.13 L0 813.13 L0 841.89 L21.64 841.89 L21.64 813.13 Z" class="st8"/>
			</g>
			<g id="shape56-206" v:mID="56" v:groupContext="shape" v:layerMember="0" transform="translate(5.22462,-30.4583)">
				<title>Sheet.56</title>
				<path d="M11.82 836.25 L10.86 836.25 L10.86 834.08 L6.72 834.08 L6.72 836.25 L5.75 836.25 C4.03 836.25 0 836.25 0
							 841.39 L0 841.89 L17.57 841.89 L17.57 841.39 C17.57 836.86 14.67 836.25 11.82 836.25 Z" class="st10"/>
			</g>
			<g id="shape57-208" v:mID="57" v:groupContext="shape" v:layerMember="0" transform="translate(13.1713,-32.6515)">
				<title>Sheet.57</title>
				<v:userDefs>
					<v:ud v:nameU="SurroundingRegionColor" v:prompt="" v:val="VT0(1):26"/>
				</v:userDefs>
				<ellipse cx="0.840947" cy="841.035" rx="0.840947" ry="0.855185" class="st8"/>
				<ellipse cx="0.840947" cy="841.035" rx="0.840947" ry="0.855185" class="st12"/>
			</g>
			<g id="shape58-211" v:mID="58" v:groupContext="shape" v:layerMember="0" transform="translate(6.31819,-11.078)">
				<title>Sheet.58</title>
				<path d="M0 836.24 L2.62 833.57 L5.63 836.63 L13.28 828.85 L15.83 831.45 L5.56 841.89 L0 836.24 Z" class="st10"/>
			</g>
			<g id="shape53-213" v:mID="53" v:groupContext="groupContent" v:layerMember="0">
				<v:textBlock v:margins="rect(4,4,4,4)" v:tabSpace="42.5197"/>
				<v:textRect cx="13.7764" cy="854.291" width="36.54" height="24.8035"/>
				<text x="1.09" y="858.49" class="st6" v:langID="2058"><v:paragraph v:horizAlign="1"/><v:tabList/>Task</text>			</g>
		</g>
		<g id="group59-215" transform="translate(222.309,-163.518)" v:mID="59" v:groupContext="group" v:layerMember="0">
			<v:userDefs>
				<v:ud v:nameU="visVersion" v:prompt="" v:val="VT0(15):26"/>
				<v:ud v:nameU="ConnGap" v:prompt="" v:val="VT0(0.00012908222537757):24"/>
			</v:userDefs>
			<title>Issue.59</title>
			<desc>Issue</desc>
			<g id="shape60-216" v:mID="60" v:groupContext="shape" v:layerMember="0">
				<title>Sheet.60</title>
				<path d="M27.55 806.08 L0 806.08 L0 841.89 L27.55 841.89 L27.55 806.08 Z" class="st10"/>
			</g>
			<g id="shape61-218" v:mID="61" v:groupContext="shape" v:layerMember="0" transform="translate(3.19387,-3.52625)">
				<title>Sheet.61</title>
				<v:userDefs>
					<v:ud v:nameU="SurroundingRegionColor" v:prompt="" v:val="VT0(1):26"/>
				</v:userDefs>
				<path d="M21.64 813.13 L0 813.13 L0 841.89 L21.64 841.89 L21.64 813.13 Z" class="st8"/>
			</g>
			<g id="shape62-221" v:mID="62" v:groupContext="shape" v:layerMember="0" transform="translate(5.22462,-30.4583)">
				<title>Sheet.62</title>
				<path d="M11.82 836.25 L10.86 836.25 L10.86 834.08 L6.72 834.08 L6.72 836.25 L5.75 836.25 C4.03 836.25 0 836.25 0
							 841.39 L0 841.89 L17.57 841.89 L17.57 841.39 C17.57 836.86 14.67 836.25 11.82 836.25 Z" class="st10"/>
			</g>
			<g id="shape63-223" v:mID="63" v:groupContext="shape" v:layerMember="0" transform="translate(13.1713,-32.6515)">
				<title>Sheet.63</title>
				<v:userDefs>
					<v:ud v:nameU="SurroundingRegionColor" v:prompt="" v:val="VT0(1):26"/>
				</v:userDefs>
				<ellipse cx="0.840947" cy="841.035" rx="0.840947" ry="0.855185" class="st8"/>
				<ellipse cx="0.840947" cy="841.035" rx="0.840947" ry="0.855185" class="st12"/>
			</g>
			<g id="shape64-226" v:mID="64" v:groupContext="shape" v:layerMember="0" transform="translate(10.9149,-5.97933)">
				<title>Sheet.64</title>
				<path d="M0.59 841.89 L5.61 841.89 L5.61 836.66 L0.59 836.66 L0.59 841.89 ZM5.53 834.48 L6.2 819.57 L0 819.57 L0.67
							 834.48 L5.53 834.48 Z" class="st10"/>
			</g>
			<g id="shape59-228" v:mID="59" v:groupContext="groupContent" v:layerMember="0">
				<v:textBlock v:margins="rect(4,4,4,4)" v:tabSpace="42.5197"/>
				<v:textRect cx="13.7764" cy="854.291" width="39.97" height="24.8035"/>
				<text x="-0.62" y="858.49" class="st6" v:langID="2058"><v:paragraph v:horizAlign="1"/><v:tabList/>Issue</text>			</g>
		</g>
		<g id="group65-230" transform="translate(222.273,-286.825)" v:mID="65" v:groupContext="group" v:layerMember="0">
			<v:userDefs>
				<v:ud v:nameU="visVersion" v:prompt="" v:val="VT0(15):26"/>
				<v:ud v:nameU="ConnGap" v:prompt="" v:val="VT0(0.00012908222537757):24"/>
			</v:userDefs>
			<title>Issue.65</title>
			<desc>Issue</desc>
			<g id="shape66-231" v:mID="66" v:groupContext="shape" v:layerMember="0">
				<title>Sheet.66</title>
				<path d="M27.55 806.08 L0 806.08 L0 841.89 L27.55 841.89 L27.55 806.08 Z" class="st10"/>
			</g>
			<g id="shape67-233" v:mID="67" v:groupContext="shape" v:layerMember="0" transform="translate(3.19387,-3.52625)">
				<title>Sheet.67</title>
				<v:userDefs>
					<v:ud v:nameU="SurroundingRegionColor" v:prompt="" v:val="VT0(1):26"/>
				</v:userDefs>
				<path d="M21.64 813.13 L0 813.13 L0 841.89 L21.64 841.89 L21.64 813.13 Z" class="st8"/>
			</g>
			<g id="shape68-236" v:mID="68" v:groupContext="shape" v:layerMember="0" transform="translate(5.22462,-30.4583)">
				<title>Sheet.68</title>
				<path d="M11.82 836.25 L10.86 836.25 L10.86 834.08 L6.72 834.08 L6.72 836.25 L5.75 836.25 C4.03 836.25 0 836.25 0
							 841.39 L0 841.89 L17.57 841.89 L17.57 841.39 C17.57 836.86 14.67 836.25 11.82 836.25 Z" class="st10"/>
			</g>
			<g id="shape69-238" v:mID="69" v:groupContext="shape" v:layerMember="0" transform="translate(13.1713,-32.6515)">
				<title>Sheet.69</title>
				<v:userDefs>
					<v:ud v:nameU="SurroundingRegionColor" v:prompt="" v:val="VT0(1):26"/>
				</v:userDefs>
				<ellipse cx="0.840947" cy="841.035" rx="0.840947" ry="0.855185" class="st8"/>
				<ellipse cx="0.840947" cy="841.035" rx="0.840947" ry="0.855185" class="st12"/>
			</g>
			<g id="shape70-241" v:mID="70" v:groupContext="shape" v:layerMember="0" transform="translate(10.9149,-5.97933)">
				<title>Sheet.70</title>
				<path d="M0.59 841.89 L5.61 841.89 L5.61 836.66 L0.59 836.66 L0.59 841.89 ZM5.53 834.48 L6.2 819.57 L0 819.57 L0.67
							 834.48 L5.53 834.48 Z" class="st10"/>
			</g>
			<g id="shape65-243" v:mID="65" v:groupContext="groupContent" v:layerMember="0">
				<v:textBlock v:margins="rect(4,4,4,4)" v:tabSpace="42.5197"/>
				<v:textRect cx="13.7764" cy="854.291" width="39.97" height="24.8035"/>
				<text x="-0.62" y="858.49" class="st6" v:langID="2058"><v:paragraph v:horizAlign="1"/><v:tabList/>Issue</text>			</g>
		</g>
		<g id="group71-245" transform="translate(304.352,-656.211)" v:mID="71" v:groupContext="group" v:layerMember="0">
			<v:userDefs>
				<v:ud v:nameU="visVersion" v:prompt="" v:val="VT0(15):26"/>
				<v:ud v:nameU="ConnGap" v:prompt="" v:val="VT0(0.00012908222537757):24"/>
			</v:userDefs>
			<title>Income</title>
			<desc>Money Income</desc>
			<g id="shape72-246" v:mID="72" v:groupContext="shape" v:layerMember="0" transform="translate(14.1633,-12.3009)">
				<title>Sheet.72</title>
				<path d="M9.32 815.14 L0 824.17 L0 834.31 L5.27 829.2 L5.27 841.89 L13.37 841.89 L13.37 829.2 L18.64 834.32 L18.64
							 824.17 L9.32 815.14 Z" class="st10"/>
			</g>
			<g id="shape73-248" v:mID="73" v:groupContext="shape" v:layerMember="0" transform="translate(0.000591092,-1.06759)">
				<title>Sheet.73</title>
				<v:userDefs>
					<v:ud v:nameU="SurroundingRegionColor" v:prompt="" v:val="VT0(1):26"/>
				</v:userDefs>
				<path d="M0 838.93 A13.6564 13.2093 -180 0 0 8.58 839.81 L8.58 840.91 A15.1049 14.6104 -180 0 0 19.48 840.91 L19.39
							 835.98 L22.15 835.42 L22.15 828.85 L11.25 828.85 L11.28 831.95 L10.83 832.03 L10.79 825.26 L0 825.26
							 L0 838.93 Z" class="st8"/>
			</g>
			<g id="shape74-251" v:mID="74" v:groupContext="shape" v:layerMember="0" transform="translate(0.000960515,0.000269594)">
				<title>Sheet.74</title>
				<path d="M8.59 838.41 C7.7 838.59 6.62 838.7 5.46 838.7 C2.44 838.7 0 837.99 0 837.11 L0 838.25 C0 839.12 2.44 839.84
							 5.46 839.84 C6.62 839.84 7.7 839.73 8.59 839.55 L8.59 838.41 ZM8.59 836.14 C7.7 836.33 6.62 836.43 5.46
							 836.43 C2.44 836.43 0 835.72 0 834.84 L0 835.98 C0 836.85 2.44 837.57 5.46 837.57 C6.62 837.57 7.7 837.46
							 8.59 837.28 L8.59 836.14 ZM8.59 835.01 L8.59 833.87 C7.7 834.06 6.62 834.16 5.46 834.16 C2.44 834.16
							 0 833.45 0 832.57 L0 833.71 C0 834.58 2.44 835.3 5.46 835.3 C6.62 835.3 7.7 835.19 8.59 835.01 ZM10.92
							 831.06 L10.92 830.3 C10.92 831.18 8.47 831.89 5.46 831.89 C2.44 831.89 0 831.18 0 830.3 L0 831.44 C0
							 832.31 2.44 833.03 5.46 833.03 C6.62 833.03 7.7 832.92 8.59 832.74 L8.59 832.36 C8.59 831.82 9.51 831.34
							 10.92 831.06 ZM5.46 829.62 C2.44 829.62 0 828.91 0 828.03 L0 829.17 C0 830.04 2.44 830.76 5.46 830.76
							 C8.48 830.76 10.92 830.05 10.92 829.17 L10.92 828.03 C10.92 828.91 8.47 829.62 5.46 829.62 ZM5.46 827.35
							 C2.44 827.35 0 826.64 0 825.76 L0 826.9 C0 827.78 2.44 828.49 5.46 828.49 C8.48 828.49 10.92 827.78
							 10.92 826.9 L10.92 825.76 C10.92 826.64 8.47 827.35 5.46 827.35 ZM5.46 821.9 C2.44 821.9 0 822.61 0
							 823.49 L0 824.63 C0 825.51 2.44 826.22 5.46 826.22 C8.48 826.22 10.92 825.51 10.92 824.63 L10.92 823.49
							 C10.92 822.62 8.47 821.9 5.46 821.9 ZM14.05 840.75 C11.03 840.75 8.59 840.04 8.59 839.16 L8.59 840.3
							 C8.59 841.18 11.03 841.89 14.05 841.89 C17.06 841.89 19.51 841.18 19.51 840.3 L19.51 839.16 C19.51 840.04
							 17.06 840.75 14.05 840.75 ZM14.05 838.49 C11.03 838.49 8.59 837.78 8.59 836.9 L8.59 838.03 C8.59 838.91
							 11.03 839.62 14.05 839.62 C17.06 839.62 19.51 838.91 19.51 838.03 L19.51 836.9 C19.51 837.77 17.06 838.49
							 14.05 838.49 ZM14.05 836.22 C11.03 836.22 8.59 835.5 8.59 834.63 L8.59 835.76 C8.59 836.64 11.03 837.35
							 14.05 837.35 C17.06 837.35 19.51 836.64 19.51 835.76 L19.51 834.63 C19.51 835.5 17.06 836.22 14.05 836.22
							 ZM14.05 830.77 C11.03 830.77 8.59 831.48 8.59 832.36 L8.59 833.49 C8.59 834.37 11.03 835.08 14.05 835.08
							 C17.06 835.08 19.51 834.37 19.51 833.49 L19.51 832.36 C19.51 831.48 17.06 830.77 14.05 830.77 ZM18.75
							 831.55 C20.76 831.32 22.19 830.74 22.19 830.07 L22.19 828.94 C22.19 829.82 19.74 830.53 16.73 830.53
							 C13.71 830.53 11.27 829.82 11.27 828.94 L11.27 830.07 C11.27 830.37 11.54 830.64 12.02 830.88 C12.65
							 830.81 13.33 830.77 14.05 830.77 C16.05 830.77 17.8 831.08 18.75 831.55 ZM16.73 825.08 C13.71 825.08
							 11.27 825.79 11.27 826.67 L11.27 827.81 C11.27 828.68 13.71 829.4 16.73 829.4 C19.74 829.4 22.19 828.69
							 22.19 827.81 L22.19 826.67 C22.19 825.79 19.74 825.08 16.73 825.08 ZM19.51 834.85 L19.51 835.98 C21.11
							 835.7 22.19 835.2 22.19 834.61 L22.19 833.48 C22.19 834.06 21.11 834.57 19.51 834.85 ZM19.51 833.71
							 C21.11 833.43 22.19 832.93 22.19 832.34 L22.19 831.21 C22.19 831.79 21.11 832.3 19.51 832.58 L19.51
							 833.71 Z" class="st4"/>
				<path d="M8.59 838.41 C7.7 838.59 6.62 838.7 5.46 838.7 C2.44 838.7 0 837.99 0 837.11 L0 838.25 C0 839.12 2.44 839.84
							 5.46 839.84 C6.62 839.84 7.7 839.73 8.59 839.55 L8.59 838.41" class="st5"/>
				<path d="M8.59 836.14 C7.7 836.33 6.62 836.43 5.46 836.43 C2.44 836.43 0 835.72 0 834.84 L0 835.98 C0 836.85 2.44
							 837.57 5.46 837.57 C6.62 837.57 7.7 837.46 8.59 837.28 L8.59 836.14" class="st5"/>
				<path d="M0 837.11 L0 824.63" class="st5"/>
				<path d="M8.59 835.01 L8.59 833.87 C7.7 834.06 6.62 834.16 5.46 834.16 C2.44 834.16 0 833.45 0 832.57 L0 833.71 C0
							 834.58 2.44 835.3 5.46 835.3 C6.62 835.3 7.7 835.19 8.59 835.01" class="st5"/>
				<path d="M10.92 831.06 L10.92 830.3 C10.92 831.18 8.47 831.89 5.46 831.89 C2.44 831.89 0 831.18 0 830.3 L0 831.44
							 C0 832.31 2.44 833.03 5.46 833.03 C6.62 833.03 7.7 832.92 8.59 832.74 L8.59 832.36 C8.59 831.82 9.51
							 831.34 10.92 831.06" class="st5"/>
				<path d="M5.46 829.62 C2.44 829.62 0 828.91 0 828.03 L0 829.17 C0 830.04 2.44 830.76 5.46 830.76 C8.48 830.76 10.92
							 830.05 10.92 829.17 L10.92 828.03 C10.92 828.91 8.47 829.62 5.46 829.62" class="st5"/>
				<path d="M5.46 827.35 C2.44 827.35 0 826.64 0 825.76 L0 826.9 C0 827.78 2.44 828.49 5.46 828.49 C8.48 828.49 10.92
							 827.78 10.92 826.9 L10.92 825.76 C10.92 826.64 8.47 827.35 5.46 827.35" class="st5"/>
				<path d="M5.46 821.9 C2.44 821.9 0 822.61 0 823.49 L0 824.63 C0 825.51 2.44 826.22 5.46 826.22 C8.48 826.22 10.92
							 825.51 10.92 824.63 L10.92 823.49 C10.92 822.62 8.47 821.9 5.46 821.9" class="st5"/>
				<path d="M14.05 840.75 C11.03 840.75 8.59 840.04 8.59 839.16 L8.59 840.3 C8.59 841.18 11.03 841.89 14.05 841.89 C17.06
							 841.89 19.51 841.18 19.51 840.3 L19.51 839.16 C19.51 840.04 17.06 840.75 14.05 840.75" class="st5"/>
				<path d="M14.05 838.49 C11.03 838.49 8.59 837.78 8.59 836.9 L8.59 838.03 C8.59 838.91 11.03 839.62 14.05 839.62 C17.06
							 839.62 19.51 838.91 19.51 838.03 L19.51 836.9 C19.51 837.77 17.06 838.49 14.05 838.49" class="st5"/>
				<path d="M8.59 839.16 L8.59 833.49" class="st5"/>
				<path d="M14.05 836.22 C11.03 836.22 8.59 835.5 8.59 834.63 L8.59 835.76 C8.59 836.64 11.03 837.35 14.05 837.35 C17.06
							 837.35 19.51 836.64 19.51 835.76 L19.51 834.63 C19.51 835.5 17.06 836.22 14.05 836.22" class="st5"/>
				<path d="M14.05 830.77 C11.03 830.77 8.59 831.48 8.59 832.36 L8.59 833.49 C8.59 834.37 11.03 835.08 14.05 835.08
							 C17.06 835.08 19.51 834.37 19.51 833.49 L19.51 832.36 C19.51 831.48 17.06 830.77 14.05 830.77"
						class="st5"/>
				<path d="M10.92 830.3 L10.92 824.63" class="st5"/>
				<path d="M18.75 831.55 C20.76 831.32 22.19 830.74 22.19 830.07 L22.19 828.94 C22.19 829.82 19.74 830.53 16.73 830.53
							 C13.71 830.53 11.27 829.82 11.27 828.94 L11.27 830.07 C11.27 830.37 11.54 830.64 12.02 830.88 C12.65
							 830.81 13.33 830.77 14.05 830.77 C16.05 830.77 17.8 831.08 18.75 831.55" class="st5"/>
				<path d="M11.27 827.81 L11.27 830.97" class="st5"/>
				<path d="M16.73 825.08 C13.71 825.08 11.27 825.79 11.27 826.67 L11.27 827.81 C11.27 828.68 13.71 829.4 16.73 829.4
							 C19.74 829.4 22.19 828.69 22.19 827.81 L22.19 826.67 C22.19 825.79 19.74 825.08 16.73 825.08"
						class="st5"/>
				<path d="M19.51 834.85 L19.51 835.98 C21.11 835.7 22.19 835.2 22.19 834.61 L22.19 833.48 C22.19 834.06 21.11 834.57
							 19.51 834.85" class="st5"/>
				<path d="M19.51 833.71 C21.11 833.43 22.19 832.93 22.19 832.34 L22.19 831.21 C22.19 831.79 21.11 832.3 19.51 832.58
							 L19.51 833.71" class="st5"/>
				<path d="M19.51 839.16 L19.51 833.49" class="st5"/>
				<path d="M22.19 833.48 L22.19 827.81" class="st5"/>
			</g>
			<g id="shape71-274" v:mID="71" v:groupContext="groupContent" v:layerMember="0">
				<v:textBlock v:margins="rect(4,4,4,4)" v:tabSpace="42.5197"/>
				<v:textRect cx="16.4005" cy="862.691" width="53.51" height="41.6033"/>
				<text x="-3.6" y="858.49" class="st6" v:langID="2058"><v:paragraph v:horizAlign="1"/><v:tabList/>Money<v:lf/><tspan
							x="-4.77" dy="1.2em" class="st7">Income</tspan></text>			</g>
		</g>
		<g id="group75-277" transform="translate(32.5739,-34.0157)" v:mID="75" v:groupContext="group" v:layerMember="0">
			<v:userDefs>
				<v:ud v:nameU="visVersion" v:prompt="" v:val="VT0(15):26"/>
				<v:ud v:nameU="ConnGap" v:prompt="" v:val="VT0(0.00012908222537757):24"/>
			</v:userDefs>
			<title>Start</title>
			<desc>Start</desc>
			<g id="shape76-278" v:mID="76" v:groupContext="shape" v:layerMember="0">
				<title>Sheet.76</title>
				<path d="M25.21 841.89 C11.31 841.89 0 831.08 0 817.8 C0 804.51 11.31 793.7 25.21 793.7 C39.11 793.7 50.42 804.51
							 50.42 817.8 C50.42 831.08 39.11 841.89 25.21 841.89 Z" class="st15"/>
			</g>
			<g id="shape77-280" v:mID="77" v:groupContext="shape" v:layerMember="0" transform="translate(20.1698,-13.4823)">
				<title>Sheet.77</title>
				<v:userDefs>
					<v:ud v:nameU="SurroundingRegionColor" v:prompt="" v:val="VT0(1):26"/>
					<v:ud v:nameU="SurroundingRegionColor" v:prompt="" v:val="VT5(#612621)"/>
				</v:userDefs>
				<path d="M0 841.89 L17.65 831.28 L0 820.67 L0 841.89 Z" class="st4"/>
			</g>
			<g id="shape75-283" v:mID="75" v:groupContext="groupContent" v:layerMember="0">
				<v:textBlock v:margins="rect(4,4,4,4)" v:tabSpace="42.5197"/>
				<v:textRect cx="25.2123" cy="854.291" width="38.57" height="24.8035"/>
				<text x="11.51" y="858.49" class="st6" v:langID="2058"><v:paragraph v:horizAlign="1"/><v:tabList/>Start</text>			</g>
		</g>
		<g id="group78-285" transform="translate(478.346,-375.793)" v:mID="78" v:groupContext="group" v:layerMember="0">
			<v:userDefs>
				<v:ud v:nameU="visVersion" v:prompt="" v:val="VT0(15):26"/>
				<v:ud v:nameU="ConnGap" v:prompt="" v:val="VT0(0.00012908222537757):24"/>
			</v:userDefs>
			<title>End</title>
			<desc>End</desc>
			<g id="shape79-286" v:mID="79" v:groupContext="shape" v:layerMember="0">
				<title>Sheet.79</title>
				<path d="M25.21 841.89 C11.31 841.89 0 831.08 0 817.8 C0 804.51 11.31 793.7 25.21 793.7 C39.11 793.7 50.42 804.51
							 50.42 817.8 C50.42 831.08 39.11 841.89 25.21 841.89 Z" class="st15"/>
			</g>
			<g id="shape80-288" v:mID="80" v:groupContext="shape" v:layerMember="0" transform="translate(14.1189,-13.4929)">
				<title>Sheet.80</title>
				<v:userDefs>
					<v:ud v:nameU="SurroundingRegionColor" v:prompt="" v:val="VT0(1):26"/>
					<v:ud v:nameU="SurroundingRegionColor" v:prompt="" v:val="VT5(#612621)"/>
				</v:userDefs>
				<path d="M0 841.89 L22.19 841.89 L22.19 820.69 L0 820.69 L0 841.89 Z" class="st4"/>
			</g>
			<g id="shape78-291" v:mID="78" v:groupContext="groupContent" v:layerMember="0">
				<v:textBlock v:margins="rect(4,4,4,4)" v:tabSpace="42.5197"/>
				<v:textRect cx="25.2123" cy="851.892" width="25.66" height="20.0036"/>
				<text x="17.52" y="854.89" class="st16" v:langID="2058"><v:paragraph v:horizAlign="1"/><v:tabList/>End</text>			</g>
		</g>
		<g id="group81-293" transform="translate(512.277,-651.968)" v:mID="81" v:groupContext="group" v:layerMember="0">
			<v:userDefs>
				<v:ud v:nameU="visVersion" v:prompt="" v:val="VT0(15):26"/>
				<v:ud v:nameU="ConnGap" v:prompt="" v:val="VT0(0.00012908222537757):24"/>
			</v:userDefs>
			<title>Request</title>
			<desc>Request</desc>
			<g id="shape82-294" v:mID="82" v:groupContext="shape" v:layerMember="0">
				<title>Sheet.82</title>
				<path d="M19.33 841.89 L19.27 830.11 L2.47 830.11 C1.11 830.11 0 829.06 0 827.78 L0 796.03 C0 794.74 1.11 793.7 2.47
							 793.7 L38 793.7 C39.37 793.7 40.48 794.74 40.48 796.03 L40.48 827.78 C40.48 829.06 39.37 830.11 38 830.11
							 L27.13 830.11 L19.33 841.89 Z" class="st10"/>
			</g>
			<g id="shape83-296" v:mID="83" v:groupContext="shape" v:layerMember="0" transform="translate(15.9309,-18.333)">
				<title>Sheet.83</title>
				<path d="M6.87 834.24 L6.88 831.74 C6.89 831.49 7.13 830.78 7.42 830.31 L9.77 827.09 C10.19 826.53 10.4 825.85 10.4
							 825.08 L10.4 820.79 C10.4 819.25 9.56 818.41 8.05 818.41 L2.34 818.41 C0.83 818.41 0 819.25 0 820.79
							 L0 824.92 L3.93 824.92 L3.93 822.22 C3.95 822.09 4.04 821.98 4.17 821.93 L6.16 821.93 C6.31 821.96 6.42
							 822.07 6.46 822.22 L6.46 824.58 C6.46 824.84 6.18 825.58 5.89 826.05 L5.75 826.25 L3.6 829.2 C3.19 829.78
							 2.97 830.47 2.97 831.27 L2.97 834.24 L6.87 834.24 ZM6.96 841.89 L6.96 835.63 L2.88 835.63 L2.88 841.89
							 L6.96 841.89 Z" class="st10"/>
			</g>
			<g id="shape81-298" v:mID="81" v:groupContext="groupContent" v:layerMember="0">
				<v:textBlock v:margins="rect(4,4,4,4)" v:tabSpace="42.5197"/>
				<v:textRect cx="20.2394" cy="854.291" width="57.58" height="24.8035"/>
				<text x="-2.97" y="858.49" class="st6" v:langID="2058"><v:paragraph v:horizAlign="1"/><v:tabList/>Request</text>			</g>
		</g>
		<g id="shape90-300" v:mID="90" v:groupContext="shape" v:layerMember="1" transform="translate(99.2219,-236.624)">
			<title>Dynamic connector</title>
			<path d="M2.91 834.87 L3.27 834.87 L10.62 834.87 L10.62 834.73 L40.01 834.73" class="st17"/>
		</g>
		<g id="shape91-309" v:mID="91" v:groupContext="shape" v:layerMember="1" transform="translate(148.819,-286.29)">
			<title>Dynamic connector.91</title>
			<path d="M6.7 841.89 L6.7 852.51 L7.47 852.51 L7.47 865.26" class="st19"/>
		</g>
		<g id="shape93-312" v:mID="93" v:groupContext="shape" v:layerMember="1" transform="translate(228.963,-286.816)">
			<title>Dynamic connector.93</title>
			<path d="M7.09 841.89 L7.09 865.26" class="st19"/>
		</g>
		<g id="shape94-315" v:mID="94" v:groupContext="shape" v:layerMember="1" transform="translate(228.981,-225.162)">
			<title>Dynamic connector.94</title>
			<path d="M7.07 841.89 L7.07 852.51 L7.1 852.51 L7.1 865.26" class="st19"/>
		</g>
		<g id="shape95-318" v:mID="95" v:groupContext="shape" v:layerMember="1" transform="translate(249.836,-237.623)">
			<title>Dynamic connector.95</title>
			<path d="M2.91 835.21 L3.27 835.21 L10.62 835.21 L10.62 834.4 L58.7 834.4" class="st17"/>
		</g>
		<g id="shape96-325" v:mID="96" v:groupContext="shape" v:layerMember="1" transform="translate(170.076,-236.956)">
			<title>Dynamic connector.96</title>
			<path d="M0 835.07 L10.62 835.07 L10.62 834.54 L52.19 834.54" class="st20"/>
		</g>
		<g id="shape97-328" v:mID="97" v:groupContext="shape" v:layerMember="1" transform="translate(203.173,-340.157)">
			<title>Dynamic connector.97</title>
			<path d="M0 841.89 L0 742.68 L-145.01 742.68" class="st21"/>
		</g>
		<g id="shape98-334" v:mID="98" v:groupContext="shape" v:layerMember="1" transform="translate(42.5197,-471.96)">
			<title>Dynamic connector.98</title>
			<path d="M0 841.89 L0 763.93 L21.25 763.93" class="st5"/>
		</g>
		<g id="shape99-337" v:mID="99" v:groupContext="shape" v:layerMember="1" transform="translate(134.646,-542.835)">
			<title>Dynamic connector.99</title>
			<path d="M0.01 834.8 L14.16 834.8" class="st19"/>
		</g>
		<g id="shape100-340" v:mID="100" v:groupContext="shape" v:layerMember="1" transform="translate(219.694,-542.835)">
			<title>Dynamic connector.100</title>
			<path d="M0 834.8 L36.05 834.8" class="st19"/>
		</g>
		<g id="shape101-343" v:mID="101" v:groupContext="shape" v:layerMember="1" transform="translate(284.339,-542.989)">
			<title>Dynamic connector.101</title>
			<path d="M0 834.96 L10.62 834.96 L10.62 834.65 L20.33 834.65" class="st5"/>
		</g>
		<g id="shape102-346" v:mID="102" v:groupContext="shape" v:layerMember="1" transform="translate(324.921,-569.372)">
			<title>Dynamic connector.102</title>
			<path d="M0 841.89 L0 814.04 L-27.66 814.04 L-27.66 735.53 L-20.58 735.53" class="st20"/>
		</g>
		<g id="shape103-349" v:mID="103" v:groupContext="shape" v:layerMember="1" transform="translate(337.162,-682.622)">
			<title>Dynamic connector.103</title>
			<path d="M2.91 848.78 L3.27 848.78 L10.62 848.78 L10.62 849.18 L21.24 849.18" class="st22"/>
		</g>
		<g id="shape104-354" v:mID="104" v:groupContext="shape" v:layerMember="1" transform="translate(429.288,-668.612)">
			<title>Dynamic connector.104</title>
			<path d="M2.91 835.17 L3.27 835.17 L10.62 835.17 L10.62 834.44 L17.97 834.44" class="st23"/>
		</g>
		<g id="shape105-361" v:mID="105" v:groupContext="shape" v:layerMember="1" transform="translate(491.027,-668.976)">
			<title>Dynamic connector.105</title>
			<path d="M2.91 834.8 L3.27 834.8 L21.24 834.8" class="st22"/>
		</g>
		<g id="shape106-366" v:mID="106" v:groupContext="shape" v:layerMember="1" transform="translate(552.765,-676.063)">
			<title>Dynamic connector.106</title>
			<path d="M2.91 841.89 L3.27 841.89 L13.33 841.89 L13.33 1003.82 L-39.52 1003.82" class="st17"/>
		</g>
		<g id="shape107-373" v:mID="107" v:groupContext="shape" v:layerMember="1" transform="translate(496.472,-492.968)">
			<title>Dynamic connector.107</title>
			<path d="M7.09 841.89 L7.09 904.33" class="st24"/>
		</g>
		<g id="shape108-379" v:mID="108" v:groupContext="shape" v:layerMember="1" transform="translate(57.7862,-82.214)">
			<title>Dynamic connector.108</title>
			<path d="M0 841.89 L0 831.27 L145.39 831.27 L145.39 803.08" class="st24"/>
		</g>
		<g id="shape109-384" v:mID="109" v:groupContext="shape" transform="translate(25.5118,-731.339)">
			<title>Sheet.109</title>
			<desc>How-to Companies commercialize its products</desc>
			<v:textBlock v:margins="rect(4,4,4,4)" v:tabSpace="42.5197"/>
			<v:textRect cx="270.709" cy="796.535" width="541.42" height="90.7087"/>
			<g id="shadow109-385" v:groupContext="shadow" v:shadowOffsetX="3" v:shadowOffsetY="0" v:shadowType="1"
					transform="matrix(1,0,0,1,3,0)" class="st25">
				<rect x="0" y="751.181" width="541.417" height="90.7087" rx="8.50394" ry="8.50394" class="st26"/>
			</g>
			<rect x="0" y="751.181" width="541.417" height="90.7087" rx="8.50394" ry="8.50394" class="st27"/>
			<text x="220.87" y="788.74" class="st28" v:langID="2058"><v:paragraph v:horizAlign="1"/><v:tabList/>How-to <v:lf/><tspan
						x="16.44" dy="1.2em" class="st7">Companies commercialize its products</tspan></text>		</g>
		<g id="shape92-391" v:mID="92" v:groupContext="shape" v:layerMember="1" transform="translate(149.203,-224.636)">
			<title>Dynamic connector.92</title>
			<path d="M7.09 841.89 L7.09 865.26" class="st19"/>
		</g>
	</g>
</svg>
