<?xml version="1.0" encoding="UTF-8" standalone="no"?>
<!DOCTYPE svg PUBLIC "-//W3C//DTD SVG 1.1//EN" "http://www.w3.org/Graphics/SVG/1.1/DTD/svg11.dtd">
<!-- Generated by Microsoft Visio, SVG Export Drawing1.svg Page-1 -->
<svg xmlns="http://www.w3.org/2000/svg" xmlns:xlink="http://www.w3.org/1999/xlink" xmlns:ev="http://www.w3.org/2001/xml-events"
		xmlns:v="http://schemas.microsoft.com/visio/2003/SVGExtensions/" width="7.85294in" height="11.1176in"
		viewBox="0 0 565.411 800.47" xml:space="preserve" color-interpolation-filters="sRGB" class="st12">
	<v:documentProperties v:langID="3082" v:metric="true" v:viewMarkup="false">
		<v:userDefs>
			<v:ud v:nameU="msvNoAutoConnect" v:val="VT0(1):26"/>
		</v:userDefs>
	</v:documentProperties>

	<style type="text/css">
	<![CDATA[
		.st1 {fill:url(#grad3-4);stroke:none;stroke-linecap:round;stroke-linejoin:round;stroke-width:0.75}
		.st2 {fill:#ffffff}
		.st3 {stroke:#000000;stroke-linecap:round;stroke-linejoin:round;stroke-width:0.75}
		.st4 {fill:#ffffff;stroke:#000000;stroke-linecap:round;stroke-linejoin:round;stroke-width:0.75}
		.st5 {fill:#000000}
		.st6 {stroke:#000000;stroke-linecap:round;stroke-linejoin:round;stroke-width:0.24}
		.st7 {fill:none}
		.st8 {stroke:#000000;stroke-linecap:round;stroke-linejoin:round;stroke-width:0.239976}
		.st9 {fill:none;stroke:none;stroke-linecap:round;stroke-linejoin:round;stroke-width:0.75}
		.st10 {fill:#002060;font-family:Arial Black;font-size:1.16666em}
		.st11 {font-size:1em}
		.st12 {fill:none;fill-rule:evenodd;font-size:12px;overflow:visible;stroke-linecap:square;stroke-miterlimit:3}
	]]>
	</style>

	<defs id="Patterns_And_Gradients">
		<radialGradient id="grad3-4" cx="0.5" cy="0.5" r="0.73">
			<stop offset="0" stop-color="#b7dde8" stop-opacity="1"/>
			<stop offset="1" stop-color="#89c8da" stop-opacity="1"/>
		</radialGradient>
	</defs>
	<g v:mID="4" v:index="1" v:groupContext="backgroundPage">
		<v:userDefs>
			<v:ud v:nameU="msvVisioCreated" v:prompt="" v:val="VT0(0):26"/>
		</v:userDefs>
		<title>VBackground-1</title>
		<v:pageProperties width="7.85294" height="11.1176" v:drawingScale="0.0393701" v:pageScale="0.0393701" v:drawingUnits="24"
				v:shadowOffsetX="8.50394" v:shadowOffsetY="-8.50394"/>
		<g id="shape3-1" v:mID="3" v:groupContext="shape">
			<title>Center Gradient</title>
			<v:userDefs>
				<v:ud v:nameU="Background" v:val="VT0(0):26"/>
				<v:ud v:nameU="visVersion" v:val="VT0(15):26"/>
				<v:ud v:nameU="msvShapeCategories" v:prompt="" v:val="VT4(DoNotContain)"/>
				<v:ud v:nameU="msvVisioCreated" v:prompt="" v:val="VT0(0):26"/>
			</v:userDefs>
			<rect x="0" y="0" width="565.411" height="800.47" class="st1"/>
		</g>
	</g>
	<g v:mID="0" v:index="2" v:groupContext="foregroundPage">
		<title>Page-1</title>
		<v:pageProperties v:drawingScale="0.0393701" v:pageScale="0.0393701" v:drawingUnits="24" v:shadowOffsetX="8.50394"
				v:shadowOffsetY="-8.50394"/>
		<v:layer v:name="Flowchart" v:index="0"/>
		<v:layer v:name="Connector" v:index="1"/>
		<g id="shape3-5" v:mID="3" v:groupContext="shape" v:layerMember="0" transform="translate(264.643,-193.055)">
			<title>Person</title>
			<v:userDefs>
				<v:ud v:nameU="visVersion" v:prompt="" v:val="VT0(15):26"/>
				<v:ud v:nameU="ConnGap" v:prompt="" v:val="VT0(0.00012908222537757):24"/>
			</v:userDefs>
			<path d="M22.31 760.36 L5.31 760.36 C4.08 760.36 2.96 760.76 2.06 761.45 C1.43 761.92 0.92 762.53 0.56 763.23 C0.2 763.93
						 0 764.71 0 765.55 L0 785.25 L4.65 785.25 L4.65 800.47 L22.79 800.47 L22.79 785.25 L27.62 785.25 L27.62 765.55
						 C27.62 764.35 27.2 763.24 26.5 762.37 C26.02 761.76 25.39 761.25 24.68 760.9 C23.97 760.55 23.16 760.36
						 22.31 760.36 ZM21.75 750.6 A7.94374 7.67628 -180 1 0 5.87 750.6 A7.94374 7.67628 -180 1 0 21.75 750.6 Z"
					class="st2"/>
			<path d="M22.31 760.36 L5.31 760.36 C4.08 760.36 2.96 760.76 2.06 761.45 C1.43 761.92 0.92 762.53 0.56 763.23 C0.2 763.93
						 0 764.71 0 765.55 L0 785.25 L4.65 785.25 L4.65 800.47 L22.79 800.47 L22.79 785.25 L27.62 785.25 L27.62 765.55
						 C27.62 764.35 27.2 763.24 26.5 762.37 C26.02 761.76 25.39 761.25 24.68 760.9 C23.97 760.55 23.16 760.36
						 22.31 760.36" class="st3"/>
			<path d="M13.81 800.47 L13.81 788.31" class="st3"/>
			<path d="M4.65 785.25 L4.65 774.75" class="st3"/>
			<path d="M22.79 785.25 L22.79 774.75" class="st3"/>
			<path d="M21.75 750.6 A7.94374 7.67628 -180 1 0 5.87 750.6 A7.94374 7.67628 -180 1 0 21.75 750.6" class="st3"/>
		</g>
		<g id="group4-12" transform="translate(65.1467,-38)" v:mID="4" v:groupContext="group" v:layerMember="0">
			<v:userDefs>
				<v:ud v:nameU="visVersion" v:prompt="" v:val="VT0(15):26"/>
				<v:ud v:nameU="ConnGap" v:prompt="" v:val="VT0(0.00012908222537757):24"/>
			</v:userDefs>
			<title>Team</title>
			<g id="shape5-13" v:mID="5" v:groupContext="shape" v:layerMember="0">
				<title>Sheet.5</title>
				<path d="M47.53 740.81 A6.32754 6.26099 -180 1 0 34.87 740.81 A6.32754 6.26099 -180 1 0 47.53 740.81 ZM38.23 765.47
							 C38.73 765.47 39.22 765.54 39.68 765.66 C39.77 765.46 39.87 765.26 39.98 765.07 C40.5 764.18 41.23 763.44
							 42.13 762.93 C42.95 762.46 43.91 762.18 44.92 762.18 L47.27 762.18 A7.92626 7.84287 0 0 1 47.52 748.94
							 L34.48 748.94 C33.53 748.94 32.65 749.27 31.94 749.84 C31.51 750.19 31.15 750.62 30.88 751.12 A7.92626
							 7.84287 0 0 1 36.02 765.47 L38.23 765.47 ZM24.94 767.05 C23.98 767.05 23.1 767.39 22.4 767.96 C21.91
							 768.35 21.5 768.86 21.22 769.44 C20.94 770.02 20.79 770.68 20.79 771.37 L20.79 787.79 L24.43 787.79
							 L24.43 779.05 L25.21 779.05 L25.21 800.47 L31.19 800.47 L31.19 790.34 L31.97 790.34 L31.97 800.47 L37.82
							 800.47 L37.82 779.05 L38.6 779.05 L38.6 787.79 L42.38 787.79 L42.38 771.37 C42.38 770.37 42.05 769.46
							 41.51 768.72 C41.13 768.22 40.64 767.8 40.08 767.51 C39.52 767.21 38.89 767.05 38.23 767.05 L24.94 767.05
							 ZM37.91 758.92 A6.32755 6.26098 -180 1 0 25.26 758.92 A6.32755 6.26098 -180 1 0 37.91 758.92 ZM17.19
							 752.13 A6.32755 6.26099 -180 1 0 4.54 752.13 A6.32755 6.26099 -180 1 0 17.19 752.13 ZM21.59 764.58 C21.59
							 763.58 21.27 762.66 20.72 761.93 C20.34 761.42 19.85 761 19.29 760.71 C18.74 760.42 18.11 760.25 17.44
							 760.25 L4.15 760.25 C3.19 760.25 2.31 760.59 1.61 761.16 C1.12 761.56 0.72 762.06 0.44 762.65 C0.16
							 763.23 0 763.88 0 764.58 L0 780.99 L3.64 780.99 L3.64 772.24 L4.42 772.24 L4.42 793.67 L10.41 793.67
							 L10.41 783.54 L11.19 783.54 L11.19 793.67 L17.03 793.67 L17.03 772.25 L17.81 772.25 L17.81 780.99 L19.19
							 780.99 L19.19 771.37 C19.19 770.28 19.48 769.24 20 768.35 C20.4 767.66 20.94 767.05 21.59 766.57 L21.59
							 764.58 Z" class="st4"/>
			</g>
			<g id="shape6-15" v:mID="6" v:groupContext="shape" v:layerMember="0" transform="translate(13.4563,-3.28495)">
				<title>Sheet.6</title>
				<path d="M15.34 739.15 A6.32755 6.26099 -180 1 0 2.68 739.15 A6.32755 6.26099 -180 1 0 15.34 739.15 ZM9.73 769.03
							 C10.29 768.85 10.87 768.75 11.48 768.75 L13.83 768.75 A7.92626 7.84287 0 0 1 15.53 754.82 C15.66 754.36
							 15.85 753.93 16.09 753.52 C16.61 752.63 17.34 751.89 18.24 751.38 C18.68 751.13 19.16 750.93 19.66 750.81
							 C19.54 750.12 19.26 749.48 18.86 748.95 C18.48 748.44 17.99 748.02 17.44 747.73 C16.88 747.44 16.25
							 747.28 15.58 747.28 L2.29 747.28 C1.44 747.28 0.66 747.54 0 748 A7.92626 7.84287 0 0 1 1.78 761.95 L1.78
							 761.96 L3.99 761.96 C4.97 761.95 5.92 762.22 6.73 762.67 C7.54 763.13 8.22 763.77 8.73 764.54 C9.37
							 765.49 9.73 766.64 9.73 767.86 L9.73 769.03 ZM31.47 767.05 C30.51 767.05 29.63 767.39 28.93 767.96 C28.44
							 768.35 28.03 768.86 27.75 769.44 C27.73 769.49 27.71 769.53 27.69 769.57 C28.43 770.02 29.05 770.62
							 29.52 771.33 C30.15 772.29 30.52 773.44 30.52 774.66 L30.52 787.79 L30.95 787.79 L30.95 779.05 L31.73
							 779.05 L31.73 800.47 L37.72 800.47 L37.72 790.34 L38.5 790.34 L38.5 800.47 L44.35 800.47 L44.35 779.05
							 L45.13 779.05 L45.13 787.79 L48.91 787.79 L48.91 771.37 C48.91 770.37 48.58 769.46 48.03 768.72 C47.65
							 768.22 47.17 767.8 46.61 767.51 C46.05 767.21 45.42 767.05 44.76 767.05 L31.47 767.05 ZM44.51 758.92
							 A6.32754 6.26099 -180 1 0 31.85 758.92 A6.32754 6.26099 -180 1 0 44.51 758.92 Z" class="st4"/>
			</g>
		</g>
		<g id="group7-17" transform="translate(138.847,-38)" v:mID="7" v:groupContext="group" v:layerMember="0">
			<v:userDefs>
				<v:ud v:nameU="visVersion" v:prompt="" v:val="VT0(15):26"/>
				<v:ud v:nameU="ConnGap" v:prompt="" v:val="VT0(0.00012908222537757):24"/>
			</v:userDefs>
			<title>Team.7</title>
			<g id="shape8-18" v:mID="8" v:groupContext="shape" v:layerMember="0">
				<title>Sheet.8</title>
				<path d="M47.53 740.81 A6.32754 6.26099 -180 1 0 34.87 740.81 A6.32754 6.26099 -180 1 0 47.53 740.81 ZM38.23 765.47
							 C38.73 765.47 39.22 765.54 39.68 765.66 C39.77 765.46 39.87 765.26 39.98 765.07 C40.5 764.18 41.23 763.44
							 42.13 762.93 C42.95 762.46 43.91 762.18 44.92 762.18 L47.27 762.18 A7.92626 7.84287 0 0 1 47.52 748.94
							 L34.48 748.94 C33.53 748.94 32.65 749.27 31.94 749.84 C31.51 750.19 31.15 750.62 30.88 751.12 A7.92626
							 7.84287 0 0 1 36.02 765.47 L38.23 765.47 ZM24.94 767.05 C23.98 767.05 23.1 767.39 22.4 767.96 C21.91
							 768.35 21.5 768.86 21.22 769.44 C20.94 770.02 20.79 770.68 20.79 771.37 L20.79 787.79 L24.43 787.79
							 L24.43 779.05 L25.21 779.05 L25.21 800.47 L31.19 800.47 L31.19 790.34 L31.97 790.34 L31.97 800.47 L37.82
							 800.47 L37.82 779.05 L38.6 779.05 L38.6 787.79 L42.38 787.79 L42.38 771.37 C42.38 770.37 42.05 769.46
							 41.51 768.72 C41.13 768.22 40.64 767.8 40.08 767.51 C39.52 767.21 38.89 767.05 38.23 767.05 L24.94 767.05
							 ZM37.91 758.92 A6.32755 6.26098 -180 1 0 25.26 758.92 A6.32755 6.26098 -180 1 0 37.91 758.92 ZM17.19
							 752.13 A6.32755 6.26099 -180 1 0 4.54 752.13 A6.32755 6.26099 -180 1 0 17.19 752.13 ZM21.59 764.58 C21.59
							 763.58 21.27 762.66 20.72 761.93 C20.34 761.42 19.85 761 19.29 760.71 C18.74 760.42 18.11 760.25 17.44
							 760.25 L4.15 760.25 C3.19 760.25 2.31 760.59 1.61 761.16 C1.12 761.56 0.72 762.06 0.44 762.65 C0.16
							 763.23 0 763.88 0 764.58 L0 780.99 L3.64 780.99 L3.64 772.24 L4.42 772.24 L4.42 793.67 L10.41 793.67
							 L10.41 783.54 L11.19 783.54 L11.19 793.67 L17.03 793.67 L17.03 772.25 L17.81 772.25 L17.81 780.99 L19.19
							 780.99 L19.19 771.37 C19.19 770.28 19.48 769.24 20 768.35 C20.4 767.66 20.94 767.05 21.59 766.57 L21.59
							 764.58 Z" class="st4"/>
			</g>
			<g id="shape9-20" v:mID="9" v:groupContext="shape" v:layerMember="0" transform="translate(13.4563,-3.28495)">
				<title>Sheet.9</title>
				<path d="M15.34 739.15 A6.32755 6.26099 -180 1 0 2.68 739.15 A6.32755 6.26099 -180 1 0 15.34 739.15 ZM9.73 769.03
							 C10.29 768.85 10.87 768.75 11.48 768.75 L13.83 768.75 A7.92626 7.84287 0 0 1 15.53 754.82 C15.66 754.36
							 15.85 753.93 16.09 753.52 C16.61 752.63 17.34 751.89 18.24 751.38 C18.68 751.13 19.16 750.93 19.66 750.81
							 C19.54 750.12 19.26 749.48 18.86 748.95 C18.48 748.44 17.99 748.02 17.44 747.73 C16.88 747.44 16.25
							 747.28 15.58 747.28 L2.29 747.28 C1.44 747.28 0.66 747.54 0 748 A7.92626 7.84287 0 0 1 1.78 761.95 L1.78
							 761.96 L3.99 761.96 C4.97 761.95 5.92 762.22 6.73 762.67 C7.54 763.13 8.22 763.77 8.73 764.54 C9.37
							 765.49 9.73 766.64 9.73 767.86 L9.73 769.03 ZM31.47 767.05 C30.51 767.05 29.63 767.39 28.93 767.96 C28.44
							 768.35 28.03 768.86 27.75 769.44 C27.73 769.49 27.71 769.53 27.69 769.57 C28.43 770.02 29.05 770.62
							 29.52 771.33 C30.15 772.29 30.52 773.44 30.52 774.66 L30.52 787.79 L30.95 787.79 L30.95 779.05 L31.73
							 779.05 L31.73 800.47 L37.72 800.47 L37.72 790.34 L38.5 790.34 L38.5 800.47 L44.35 800.47 L44.35 779.05
							 L45.13 779.05 L45.13 787.79 L48.91 787.79 L48.91 771.37 C48.91 770.37 48.58 769.46 48.03 768.72 C47.65
							 768.22 47.17 767.8 46.61 767.51 C46.05 767.21 45.42 767.05 44.76 767.05 L31.47 767.05 ZM44.51 758.92
							 A6.32754 6.26099 -180 1 0 31.85 758.92 A6.32754 6.26099 -180 1 0 44.51 758.92 Z" class="st4"/>
			</g>
		</g>
		<g id="group10-22" transform="translate(212.548,-38)" v:mID="10" v:groupContext="group" v:layerMember="0">
			<v:userDefs>
				<v:ud v:nameU="visVersion" v:prompt="" v:val="VT0(15):26"/>
				<v:ud v:nameU="ConnGap" v:prompt="" v:val="VT0(0.00012908222537757):24"/>
			</v:userDefs>
			<title>Team.10</title>
			<g id="shape11-23" v:mID="11" v:groupContext="shape" v:layerMember="0">
				<title>Sheet.11</title>
				<path d="M47.53 740.81 A6.32754 6.26099 -180 1 0 34.87 740.81 A6.32754 6.26099 -180 1 0 47.53 740.81 ZM38.23 765.47
							 C38.73 765.47 39.22 765.54 39.68 765.66 C39.77 765.46 39.87 765.26 39.98 765.07 C40.5 764.18 41.23 763.44
							 42.13 762.93 C42.95 762.46 43.91 762.18 44.92 762.18 L47.27 762.18 A7.92626 7.84287 0 0 1 47.52 748.94
							 L34.48 748.94 C33.53 748.94 32.65 749.27 31.94 749.84 C31.51 750.19 31.15 750.62 30.88 751.12 A7.92626
							 7.84287 0 0 1 36.02 765.47 L38.23 765.47 ZM24.94 767.05 C23.98 767.05 23.1 767.39 22.4 767.96 C21.91
							 768.35 21.5 768.86 21.22 769.44 C20.94 770.02 20.79 770.68 20.79 771.37 L20.79 787.79 L24.43 787.79
							 L24.43 779.05 L25.21 779.05 L25.21 800.47 L31.19 800.47 L31.19 790.34 L31.97 790.34 L31.97 800.47 L37.82
							 800.47 L37.82 779.05 L38.6 779.05 L38.6 787.79 L42.38 787.79 L42.38 771.37 C42.38 770.37 42.05 769.46
							 41.51 768.72 C41.13 768.22 40.64 767.8 40.08 767.51 C39.52 767.21 38.89 767.05 38.23 767.05 L24.94 767.05
							 ZM37.91 758.92 A6.32755 6.26098 -180 1 0 25.26 758.92 A6.32755 6.26098 -180 1 0 37.91 758.92 ZM17.19
							 752.13 A6.32755 6.26099 -180 1 0 4.54 752.13 A6.32755 6.26099 -180 1 0 17.19 752.13 ZM21.59 764.58 C21.59
							 763.58 21.27 762.66 20.72 761.93 C20.34 761.42 19.85 761 19.29 760.71 C18.74 760.42 18.11 760.25 17.44
							 760.25 L4.15 760.25 C3.19 760.25 2.31 760.59 1.61 761.16 C1.12 761.56 0.72 762.06 0.44 762.65 C0.16
							 763.23 0 763.88 0 764.58 L0 780.99 L3.64 780.99 L3.64 772.24 L4.42 772.24 L4.42 793.67 L10.41 793.67
							 L10.41 783.54 L11.19 783.54 L11.19 793.67 L17.03 793.67 L17.03 772.25 L17.81 772.25 L17.81 780.99 L19.19
							 780.99 L19.19 771.37 C19.19 770.28 19.48 769.24 20 768.35 C20.4 767.66 20.94 767.05 21.59 766.57 L21.59
							 764.58 Z" class="st4"/>
			</g>
			<g id="shape12-25" v:mID="12" v:groupContext="shape" v:layerMember="0" transform="translate(13.4563,-3.28495)">
				<title>Sheet.12</title>
				<path d="M15.34 739.15 A6.32755 6.26099 -180 1 0 2.68 739.15 A6.32755 6.26099 -180 1 0 15.34 739.15 ZM9.73 769.03
							 C10.29 768.85 10.87 768.75 11.48 768.75 L13.83 768.75 A7.92626 7.84287 0 0 1 15.53 754.82 C15.66 754.36
							 15.85 753.93 16.09 753.52 C16.61 752.63 17.34 751.89 18.24 751.38 C18.68 751.13 19.16 750.93 19.66 750.81
							 C19.54 750.12 19.26 749.48 18.86 748.95 C18.48 748.44 17.99 748.02 17.44 747.73 C16.88 747.44 16.25
							 747.28 15.58 747.28 L2.29 747.28 C1.44 747.28 0.66 747.54 0 748 A7.92626 7.84287 0 0 1 1.78 761.95 L1.78
							 761.96 L3.99 761.96 C4.97 761.95 5.92 762.22 6.73 762.67 C7.54 763.13 8.22 763.77 8.73 764.54 C9.37
							 765.49 9.73 766.64 9.73 767.86 L9.73 769.03 ZM31.47 767.05 C30.51 767.05 29.63 767.39 28.93 767.96 C28.44
							 768.35 28.03 768.86 27.75 769.44 C27.73 769.49 27.71 769.53 27.69 769.57 C28.43 770.02 29.05 770.62
							 29.52 771.33 C30.15 772.29 30.52 773.44 30.52 774.66 L30.52 787.79 L30.95 787.79 L30.95 779.05 L31.73
							 779.05 L31.73 800.47 L37.72 800.47 L37.72 790.34 L38.5 790.34 L38.5 800.47 L44.35 800.47 L44.35 779.05
							 L45.13 779.05 L45.13 787.79 L48.91 787.79 L48.91 771.37 C48.91 770.37 48.58 769.46 48.03 768.72 C47.65
							 768.22 47.17 767.8 46.61 767.51 C46.05 767.21 45.42 767.05 44.76 767.05 L31.47 767.05 ZM44.51 758.92
							 A6.32754 6.26099 -180 1 0 31.85 758.92 A6.32754 6.26099 -180 1 0 44.51 758.92 Z" class="st4"/>
			</g>
		</g>
		<g id="group17-27" transform="translate(239.477,-444.205)" v:mID="17" v:groupContext="group" v:layerMember="0">
			<v:userDefs>
				<v:ud v:nameU="visVersion" v:prompt="" v:val="VT0(15):26"/>
				<v:ud v:nameU="ConnGap" v:prompt="" v:val="VT0(0.00012908222537757):24"/>
			</v:userDefs>
			<title>Vendor</title>
			<g id="shape18-28" v:mID="18" v:groupContext="shape" v:layerMember="0" transform="translate(23.5497,0)">
				<title>Sheet.18</title>
				<path d="M25.83 800.47 L47.32 800.47 L47.32 779.22 L25.83 779.22 L25.83 800.47 ZM12.92 774.64 L34.4 774.64 L34.4
							 753.39 L12.92 753.39 L12.92 774.64 ZM0 800.47 L21.48 800.47 L21.48 779.22 L0 779.22 L0 800.47 Z"
						class="st4"/>
			</g>
			<g id="shape19-30" v:mID="19" v:groupContext="shape" v:layerMember="0">
				<title>Sheet.19</title>
				<path d="M3.65 787.42 L0 787.41 L0 771.05 A3.82035 3.77868 0 0 1 3.93 767.14 L30.33 767.14 L30.33 771.38 L21.34 771.38
							 A3.003 2.97024 -180 0 0 18.11 774.38 L18.11 800.47 L3.64 800.47 L3.65 787.42 ZM17.13 758.25 A5.9672
							 5.97154 0 1 1 5.2 758.25 A5.9672 5.97154 0 1 1 17.13 758.25 Z" class="st2"/>
				<path d="M11.23 791.11 L11.23 800.47" class="st3"/>
				<path d="M3.65 778.83 L3.65 787.48" class="st3"/>
				<path d="M3.65 787.42 L0 787.41 L0 771.05 A3.82035 3.77868 0 0 1 3.93 767.14 L30.33 767.14 L30.33 771.38 L21.34 771.38
							 A3.003 2.97024 -180 0 0 18.11 774.38 L18.11 800.47 L3.64 800.47 L3.65 787.42" class="st3"/>
				<path d="M17.13 758.25 A5.9672 5.97154 0 1 1 5.2 758.25 A5.9672 5.97154 0 1 1 17.13 758.25" class="st3"/>
			</g>
		</g>
		<g id="group20-36" transform="translate(240.945,-704.476)" v:mID="20" v:groupContext="group" v:layerMember="0">
			<v:userDefs>
				<v:ud v:nameU="visVersion" v:prompt="" v:val="VT0(15):26"/>
				<v:ud v:nameU="ConnGap" v:prompt="" v:val="VT0(0.00012908222537757):24"/>
			</v:userDefs>
			<title>Executive</title>
			<g id="shape21-37" v:mID="21" v:groupContext="shape" v:layerMember="0" transform="translate(32.7075,0)">
				<title>Sheet.21</title>
				<path d="M47.8 759.22 A6.06527 6.34987 -180 1 0 35.67 759.22 A6.06527 6.34987 -180 1 0 47.8 759.22 ZM48.23 767.29
							 L35.1 767.29 C34.15 767.29 33.28 767.62 32.59 768.19 C32.11 768.58 31.71 769.09 31.43 769.66 C31.16
							 770.24 31 770.89 31 771.58 L31 787.88 L34.59 787.88 L34.59 800.47 L48.6 800.47 L48.6 787.88 L52.33 787.88
							 L52.33 771.58 C52.33 770.59 52.01 769.68 51.47 768.95 C51.09 768.45 50.61 768.03 50.06 767.74 C49.51
							 767.45 48.89 767.29 48.23 767.29 Z" class="st2"/>
				<path d="M47.8 759.22 A6.06527 6.34987 -180 1 0 35.67 759.22 A6.06527 6.34987 -180 1 0 47.8 759.22" class="st3"/>
				<path d="M48.23 767.29 L35.1 767.29 C34.15 767.29 33.28 767.62 32.59 768.19 C32.11 768.58 31.71 769.09 31.43 769.66
							 C31.16 770.24 31 770.89 31 771.58 L31 787.88 L34.59 787.88 L34.59 800.47 L48.6 800.47 L48.6 787.88 L52.33
							 787.88 L52.33 771.58 C52.33 770.59 52.01 769.68 51.47 768.95 C51.09 768.45 50.61 768.03 50.06 767.74
							 C49.51 767.45 48.89 767.29 48.23 767.29" class="st3"/>
				<path d="M41.67 800.47 L41.67 790.41" class="st3"/>
				<path d="M34.59 787.88 L34.59 779.2" class="st3"/>
				<path d="M48.6 787.88 L48.6 779.2" class="st3"/>
				<path d="M0 787.88 L31 787.88" class="st3"/>
			</g>
			<g id="shape22-45" v:mID="22" v:groupContext="shape" v:layerMember="0" transform="translate(-4.31655E-13,-21.0766)">
				<title>Sheet.22</title>
				<path d="M18.5 782.39 A5.41717 5.67027 -180 1 0 7.67 782.39 A5.41717 5.67027 -180 1 0 18.5 782.39 ZM33.22 782.39
							 A5.41717 5.67027 -180 1 0 22.38 782.39 A5.41717 5.67027 -180 1 0 33.22 782.39 ZM47.94 782.39 A5.41717
							 5.67027 -180 1 0 37.1 782.39 A5.41717 5.67027 -180 1 0 47.94 782.39 ZM8.59 795.98 A4.29285 4.49342 -180
							 1 0 0 795.98 A4.29285 4.49342 -180 1 0 8.59 795.98 ZM17.99 795.98 A4.29285 4.49342 -180 1 0 9.4 795.98
							 A4.29285 4.49342 -180 1 0 17.99 795.98 ZM27.39 795.98 A4.29285 4.49342 -180 1 0 18.81 795.98 A4.29285
							 4.49342 -180 1 0 27.39 795.98 ZM36.8 795.98 A4.29285 4.49342 -180 1 0 28.21 795.98 A4.29285 4.49342
							 -180 1 0 36.8 795.98 ZM46.2 795.98 A4.29285 4.49342 -180 1 0 37.61 795.98 A4.29285 4.49342 -180 1 0
							 46.2 795.98 ZM55.6 795.98 A4.29285 4.49342 -180 1 0 47.02 795.98 A4.29285 4.49342 -180 1 0 55.6 795.98
							 Z" class="st5"/>
				<path d="M18.5 782.39 A5.41717 5.67027 -180 1 0 7.67 782.39 A5.41717 5.67027 -180 1 0 18.5 782.39" class="st3"/>
				<path d="M33.22 782.39 A5.41717 5.67027 -180 1 0 22.38 782.39 A5.41717 5.67027 -180 1 0 33.22 782.39" class="st3"/>
				<path d="M47.94 782.39 A5.41717 5.67027 -180 1 0 37.1 782.39 A5.41717 5.67027 -180 1 0 47.94 782.39" class="st3"/>
				<path d="M40.18 777.28 L35.06 768.64" class="st3"/>
				<path d="M27.8 776.72 L27.8 770.94" class="st3"/>
				<path d="M15.43 777.28 L20.54 768.64" class="st3"/>
				<path d="M8.59 795.98 A4.29285 4.49342 -180 1 0 0 795.98 A4.29285 4.49342 -180 1 0 8.59 795.98" class="st3"/>
				<path d="M17.99 795.98 A4.29285 4.49342 -180 1 0 9.4 795.98 A4.29285 4.49342 -180 1 0 17.99 795.98" class="st3"/>
				<path d="M27.39 795.98 A4.29285 4.49342 -180 1 0 18.81 795.98 A4.29285 4.49342 -180 1 0 27.39 795.98" class="st3"/>
				<path d="M36.8 795.98 A4.29285 4.49342 -180 1 0 28.21 795.98 A4.29285 4.49342 -180 1 0 36.8 795.98" class="st3"/>
				<path d="M46.2 795.98 A4.29285 4.49342 -180 1 0 37.61 795.98 A4.29285 4.49342 -180 1 0 46.2 795.98" class="st3"/>
				<path d="M55.6 795.98 A4.29285 4.49342 -180 1 0 47.02 795.98 A4.29285 4.49342 -180 1 0 55.6 795.98" class="st3"/>
				<path d="M45.5 787.12 L49.07 792.14" class="st3"/>
				<path d="M41.98 788.03 L41.91 791.48" class="st3"/>
				<path d="M29.86 787.63 L30.83 791.84" class="st3"/>
				<path d="M10.1 787.12 L6.53 792.14" class="st3"/>
				<path d="M13.63 788.03 L13.7 791.48" class="st3"/>
				<path d="M25.75 787.63 L24.78 791.84" class="st3"/>
			</g>
			<g id="shape23-65" v:mID="23" v:groupContext="shape" v:layerMember="0" transform="translate(14.7184,-50.6048)">
				<title>Sheet.23</title>
				<ellipse cx="13.083" cy="786.775" rx="13.083" ry="13.6942" class="st4"/>
			</g>
		</g>
		<g id="group24-67" transform="translate(18.375,-535.197)" v:mID="24" v:groupContext="group" v:layerMember="0">
			<v:userDefs>
				<v:ud v:nameU="visVersion" v:prompt="" v:val="VT0(15):26"/>
				<v:ud v:nameU="ConnGap" v:prompt="" v:val="VT0(0.00012908222537757):24"/>
			</v:userDefs>
			<title>Product</title>
			<g id="shape25-68" v:mID="25" v:groupContext="shape" v:layerMember="0">
				<title>Sheet.25</title>
				<path d="M33.57 728.3 L33.57 716.8 L51.47 716.8 L51.47 728.3 L33.57 728.3 ZM25.74 716.69 L25.74 728.3 L0 728.3 L0
							 800.47 L85.04 800.47 L85.04 728.3 L59.3 728.3 L59.3 716.69 L51.59 709.48 L33.45 709.48 L25.74 716.69
							 Z" class="st2"/>
				<path d="M33.57 728.3 L33.57 716.8 L51.47 716.8 L51.47 728.3 L33.57 728.3" class="st3"/>
				<path d="M25.74 716.69 L25.74 728.3 L0 728.3 L0 800.47 L85.04 800.47 L85.04 728.3 L59.3 728.3 L59.3 716.69 L51.59
							 709.48 L33.45 709.48 L25.74 716.69" class="st3"/>
				<path d="M25.74 716.69 L33.57 716.69" class="st3"/>
				<path d="M51.47 716.69 L59.3 716.69" class="st3"/>
			</g>
		</g>
		<g id="group26-74" transform="translate(239.477,-535.197)" v:mID="26" v:groupContext="group">
			<v:custProps>
				<v:cp v:nameU="AssetNumber" v:lbl="Asset Number" v:prompt="" v:type="0" v:format="" v:sortKey="Asset"
						v:invis="false" v:ask="false" v:langID="1033" v:cal="0"/>
				<v:cp v:nameU="SerialNumber" v:lbl="Serial Number" v:prompt="" v:type="0" v:format="" v:sortKey="Asset"
						v:invis="false" v:ask="false" v:langID="1033" v:cal="0"/>
				<v:cp v:nameU="Location" v:lbl="Location" v:prompt="" v:type="0" v:format="" v:sortKey="Asset" v:invis="false"
						v:ask="false" v:langID="1033" v:cal="0"/>
				<v:cp v:nameU="Building" v:lbl="Building" v:prompt="" v:type="0" v:format="" v:sortKey="Asset" v:invis="false"
						v:ask="false" v:langID="1033" v:cal="0"/>
				<v:cp v:nameU="Room" v:lbl="Room" v:prompt="" v:type="0" v:format="" v:sortKey="Asset" v:invis="false"
						v:ask="false" v:langID="1033" v:cal="0"/>
				<v:cp v:nameU="Manufacturer" v:lbl="Manufacturer" v:prompt="" v:type="0" v:format="" v:sortKey="Equipment"
						v:invis="false" v:ask="false" v:langID="1033" v:cal="0"/>
				<v:cp v:nameU="ProductNumber" v:lbl="Product Number" v:prompt="" v:type="0" v:format="" v:sortKey="Equipment"
						v:invis="false" v:ask="false" v:langID="1033" v:cal="0"/>
				<v:cp v:nameU="PartNumber" v:lbl="Part Number" v:prompt="" v:type="0" v:format="" v:sortKey="Equipment"
						v:invis="false" v:ask="false" v:langID="1033" v:cal="0"/>
				<v:cp v:nameU="ProductDescription" v:lbl="Product Description" v:prompt="" v:type="0" v:format=""
						v:sortKey="Equipment" v:invis="false" v:ask="false" v:langID="1033" v:cal="0"/>
				<v:cp v:nameU="NetworkName" v:lbl="Network Name" v:prompt="" v:type="0" v:format="" v:sortKey="Network"
						v:invis="false" v:ask="false" v:langID="1033" v:cal="0"/>
				<v:cp v:nameU="IPAddress" v:lbl="IP Address" v:prompt="" v:type="0" v:format="" v:sortKey="Network" v:invis="false"
						v:ask="false" v:langID="1033" v:cal="0"/>
				<v:cp v:nameU="SubnetMask" v:lbl="Subnet Mask" v:prompt="" v:type="0" v:format="" v:sortKey="Network"
						v:invis="false" v:ask="false" v:langID="1033" v:cal="0"/>
				<v:cp v:nameU="AdminInterface" v:lbl="Administrative Interface" v:prompt="" v:type="0" v:format=""
						v:sortKey="Network" v:invis="false" v:ask="false" v:langID="1033" v:cal="0"/>
				<v:cp v:nameU="NumberofPorts" v:lbl="Number of Ports" v:prompt="" v:type="0" v:format="" v:sortKey="Network"
						v:invis="false" v:ask="false" v:langID="1033" v:cal="0"/>
				<v:cp v:nameU="CommunityString" v:lbl="Community String" v:prompt="" v:type="0" v:format="" v:sortKey="Network"
						v:invis="false" v:ask="false" v:langID="1033" v:cal="0"/>
				<v:cp v:nameU="NetworkDescription" v:lbl="Network Description" v:prompt="" v:type="0" v:format=""
						v:sortKey="Network" v:invis="false" v:ask="false" v:langID="1033" v:cal="0"/>
				<v:cp v:nameU="MACAddress" v:lbl="MAC Address" v:prompt="" v:type="0" v:format="" v:sortKey="Network"
						v:invis="false" v:ask="false" v:langID="1033" v:cal="0"/>
				<v:cp v:nameU="CPU" v:lbl="CPU" v:prompt="" v:type="0" v:format="" v:sortKey="Workstation" v:invis="false"
						v:ask="false" v:langID="1033" v:cal="0"/>
				<v:cp v:nameU="Memory" v:lbl="Memory" v:prompt="" v:type="0" v:format="" v:sortKey="Workstation" v:invis="false"
						v:ask="false" v:langID="1033" v:cal="0"/>
				<v:cp v:nameU="OperatingSystem" v:lbl="Operating System" v:prompt="" v:type="0" v:format="" v:sortKey="Workstation"
						v:invis="false" v:ask="false" v:langID="1033" v:cal="0"/>
				<v:cp v:nameU="HardDriveSize" v:lbl="Hard Drive Capacity" v:prompt="" v:type="0" v:format=""
						v:sortKey="Workstation" v:invis="false" v:ask="false" v:langID="1033" v:cal="0"/>
				<v:cp v:nameU="Department" v:lbl="Department" v:prompt="" v:type="0" v:format="" v:sortKey="" v:invis="false"
						v:ask="false" v:langID="1033" v:cal="0"/>
				<v:cp v:nameU="ShapeClass" v:lbl="ShapeClass" v:prompt="" v:type="0" v:format="" v:sortKey="" v:invis="true"
						v:ask="false" v:langID="1033" v:cal="0" v:val="VT4(Equipment)"/>
				<v:cp v:nameU="ShapeType" v:lbl="ShapeType" v:prompt="" v:type="0" v:format="" v:sortKey="" v:invis="true"
						v:ask="false" v:langID="1033" v:cal="0" v:val="VT4(Computer)"/>
				<v:cp v:nameU="SubShapeType" v:lbl="SubShapeType" v:prompt="" v:type="0" v:format="" v:sortKey="" v:invis="true"
						v:ask="false" v:langID="1033" v:cal="0" v:val="VT4(Desktop)"/>
				<v:cp v:nameU="BelongsTo" v:lbl="Belongs To" v:prompt="" v:type="0" v:format="" v:sortKey="" v:invis="true"
						v:ask="false" v:langID="1033" v:cal="0"/>
			</v:custProps>
			<v:userDefs>
				<v:ud v:nameU="visVersion" v:prompt="" v:val="VT0(15):26"/>
				<v:ud v:nameU="ShapeClass" v:prompt="" v:val="VT0(5):26"/>
				<v:ud v:nameU="SolSH" v:prompt="" v:val="VT15({BF0433D9-CD73-4EB5-8390-8653BE590246}):41"/>
				<v:ud v:nameU="visLegendShape" v:prompt="" v:val="VT0(2):26"/>
			</v:userDefs>
			<title>PC</title>
			<g id="shape27-75" v:mID="27" v:groupContext="shape" transform="translate(0,-5.20149)">
				<title>Sheet.27</title>
				<path d="M57.61 781.32 L57.61 787.9 L61.95 787.9 L66.05 792.61 L85.04 792.61 L85.04 732.88 L57.61 732.88 L57.61 741.45
							 L69.37 741.45 L69.37 781.32 L57.61 781.32 ZM69.37 741.45 L4.24 741.45 L4.24 781.32 L69.37 781.32 L69.37
							 741.45 ZM72.88 800.47 L61.95 787.9 L10.93 787.9 L0 800.47 L72.88 800.47 ZM42.17 781.32 L30.71 781.32
							 L30.71 787.9 L42.17 787.9 L42.17 781.32 Z" class="st4"/>
			</g>
			<g id="shape28-77" v:mID="28" v:groupContext="shape" transform="translate(8.46339,-27.9468)">
				<title>Sheet.28</title>
				<v:userDefs>
					<v:ud v:nameU="SurroundingRegionColor" v:prompt="" v:val="VT5(1)"/>
				</v:userDefs>
				<path d="M56.78 768.15 L0 768.15 L0 800.47 L56.78 800.47 L56.78 768.15 Z" class="st4"/>
			</g>
			<g id="shape29-79" v:mID="29" v:groupContext="shape" transform="translate(9.91833,-7.79605)">
				<title>Sheet.29</title>
				<v:userDefs>
					<v:ud v:nameU="SurroundingRegionColor" v:prompt="" v:val="VT5(1)"/>
				</v:userDefs>
				<path d="M64.13 742.16 L70.01 742.16 L70.01 740.07 L64.13 740.07 L64.13 742.16 ZM64.13 745.9 L70.01 745.9 L70.01
							 743.81 L64.13 743.81 L64.13 745.9 ZM49.77 795.59 L46.53 795.59 L48.34 797.44 L51.83 797.44 L49.77 795.59
							 ZM46.1 792.32 L43.31 792.32 L45.26 794.3 L48.32 794.3 L46.1 792.32 ZM44.79 795.59 L41.55 795.59 L42.97
							 797.44 L46.46 797.44 L44.79 795.59 ZM41.81 792.32 L39.02 792.32 L40.55 794.3 L43.61 794.3 L41.81 792.32
							 ZM39.8 795.59 L36.56 795.59 L37.6 797.44 L41.09 797.44 L39.8 795.59 ZM37.53 792.32 L34.74 792.32 L35.85
							 794.34 L38.92 794.34 L37.53 792.32 ZM34.82 795.59 L31.58 795.59 L32.23 797.44 L35.72 797.44 L34.82 795.59
							 ZM33.3 792.45 L30.49 792.45 L31.14 794.34 L34.21 794.34 L33.3 792.45 ZM29.84 795.59 L26.6 795.59 L26.86
							 797.44 L30.35 797.44 L29.84 795.59 ZM29.02 792.61 L26.19 792.61 L26.44 794.46 L29.53 794.46 L29.02 792.61
							 ZM24.66 792.61 L21.83 792.61 L21.7 794.46 L24.78 794.46 L24.66 792.61 ZM24.86 795.59 L21.62 795.59 L21.48
							 797.44 L24.98 797.44 L24.86 795.59 ZM20.31 792.61 L17.48 792.61 L16.96 794.46 L20.04 794.46 L20.31 792.61
							 ZM19.87 795.59 L16.64 795.59 L16.11 797.44 L19.61 797.44 L19.87 795.59 ZM37.64 798.62 L14.79 798.62
							 L14.2 800.47 L38.63 800.47 L37.64 798.62 ZM15.96 792.61 L13.12 792.61 L12.21 794.46 L15.3 794.46 L15.96
							 792.61 ZM14.89 795.59 L11.65 795.59 L10.74 797.44 L14.23 797.44 L14.89 795.59 ZM11.6 792.61 L8.77 792.61
							 L7.47 794.46 L10.55 794.46 L11.6 792.61 ZM9.91 795.59 L6.67 795.59 L5.37 797.44 L8.86 797.44 L9.91 795.59
							 ZM7.25 792.61 L4.42 792.61 L2.73 794.46 L5.81 794.46 L7.25 792.61 ZM4.93 795.59 L1.69 795.59 L0 797.44
							 L3.49 797.44 L4.93 795.59 Z" class="st5"/>
			</g>
		</g>
		<g id="group30-82" transform="translate(426.564,-535.197)" v:mID="30" v:groupContext="group" v:layerMember="0">
			<v:userDefs>
				<v:ud v:nameU="visVersion" v:prompt="" v:val="VT0(15):26"/>
				<v:ud v:nameU="ConnGap" v:prompt="" v:val="VT0(0.00012908222537757):24"/>
			</v:userDefs>
			<title>Finance</title>
			<g id="shape31-83" v:mID="31" v:groupContext="shape" v:layerMember="0" transform="translate(18.0002,0)">
				<title>Sheet.31</title>
				<path d="M102.47 800.47 L102.47 738.91 L54.12 738.91 L54.12 800.47 L102.47 800.47 ZM48.35 800.47 L48.35 738.91 L0
							 738.91 L0 800.47 L48.35 800.47 Z" class="st2"/>
				<path d="M102.47 800.47 L102.47 738.91 L54.12 738.91 L54.12 800.47 L102.47 800.47" class="st3"/>
				<path d="M48.35 800.47 L48.35 738.91 L0 738.91 L0 800.47 L48.35 800.47" class="st3"/>
				<path d="M54.12 754.47 L48.34 754.47" class="st3"/>
				<path d="M54.12 769.03 L48.34 769.03" class="st3"/>
				<path d="M54.12 783.59 L48.34 783.59" class="st3"/>
			</g>
			<g id="shape32-90" v:mID="32" v:groupContext="shape" v:layerMember="0" transform="translate(80.489,-18.7149)">
				<title>Sheet.32</title>
				<v:userDefs>
					<v:ud v:nameU="SurroundingRegionColor" v:prompt="" v:val="VT5(1)"/>
				</v:userDefs>
				<path d="M28.04 790.13 L31.09 786.08 L29.2 779.9 L22.35 780.88 L18.92 785.41 L23.1 784.82 L18.73 792.22 L7.02 778.72
							 L0 798.7 L4.55 800.32 L8.81 788.17 L19.48 800.47 L27.2 787.37 L28.04 790.13 Z" class="st5"/>
			</g>
			<g id="shape33-93" v:mID="33" v:groupContext="shape" v:layerMember="0" transform="translate(27.4397,-10.9319)">
				<title>Sheet.33</title>
				<v:userDefs>
					<v:ud v:nameU="SurroundingRegionColor" v:prompt="" v:val="VT5(1)"/>
				</v:userDefs>
				<path d="M28.17 800.47 L28.17 796.14 L20.21 796.14 L20.21 800.47 L28.17 800.47 ZM28.17 794.65 L28.17 790.31 L20.21
							 790.31 L20.21 794.65 L28.17 794.65 ZM28.17 788.82 L28.17 784.49 L20.21 784.49 L20.21 788.82 L28.17 788.82
							 ZM28.17 782.94 L28.17 778.61 L20.21 778.61 L20.21 782.94 L28.17 782.94 ZM18.68 782.94 L18.68 778.61
							 L10.72 778.61 L10.72 782.94 L18.68 782.94 ZM18.68 788.82 L18.68 784.49 L10.72 784.49 L10.72 788.82 L18.68
							 788.82 ZM18.68 794.65 L18.68 790.31 L10.72 790.31 L10.72 794.65 L18.68 794.65 ZM18.68 800.47 L18.68
							 796.14 L10.72 796.14 L10.72 800.47 L18.68 800.47 ZM9.22 800.47 L9.22 796.14 L1.26 796.14 L1.26 800.47
							 L9.22 800.47 ZM9.22 794.65 L9.22 790.31 L1.26 790.31 L1.26 794.65 L9.22 794.65 ZM9.22 788.82 L9.22 784.49
							 L1.26 784.49 L1.26 788.82 L9.22 788.82 ZM9.22 782.94 L9.22 778.61 L1.26 778.61 L1.26 782.94 L9.22 782.94
							 ZM-0 770.07 L23.73 770.07 L23.73 766.91 L-0 766.91 L-0 770.07 ZM-0 764.25 L23.73 764.25 L23.73 761.09
							 L-0 761.09 L-0 764.25 Z" class="st5"/>
			</g>
			<g id="shape34-96" v:mID="34" v:groupContext="shape" v:layerMember="0" transform="translate(-6.03517E-13,-48.1917)">
				<title>Sheet.34</title>
				<path d="M43.99 800.47 C51.6 800.47 57.79 794.24 57.79 786.58 C57.79 784.29 57.22 782.03 56.18 780.09 L48.98 764.42
							 C47.28 760.19 44.22 757.67 40.78 757.67 L40.61 757.67 C35.2 757.8 30.76 761.71 30.05 766.98 L29.85 768.49
							 L34.12 768.49 L34.31 767.38 C34.82 764.24 37.48 761.96 40.64 761.96 C41.77 761.96 43.67 763.31 44.76
							 765.46 L44.99 765.96 C45.22 766.52 45.8 767.72 45.8 767.72 L48.42 773.42 C47.01 772.94 45.51 772.69
							 43.98 772.69 C37.39 772.69 31.7 777.51 30.44 783.9 C29.41 783.8 28.38 783.8 27.34 783.93 C26.1 777.52
							 20.41 772.69 13.8 772.69 C12.3 772.69 10.83 772.93 9.44 773.4 L12.04 767.74 C12.04 767.74 12.63 766.52
							 12.84 766 L13.08 765.5 C14.25 763.17 16.05 761.96 17.22 761.96 C20.37 761.96 23.04 764.24 23.55 767.38
							 L23.73 768.49 L28.01 768.49 L27.81 766.98 C27.09 761.67 22.54 757.67 17.22 757.67 C14.06 757.67 10.39
							 760.64 8.9 764.36 L1.98 779.41 C0.68 781.57 0 784.05 0 786.58 C0 794.24 6.19 800.47 13.8 800.47 C20.86
							 800.47 26.69 795.17 27.51 788.23 C28.42 788.08 29.36 788.08 30.28 788.2 C31.08 795.16 36.91 800.47 43.99
							 800.47 Z" class="st5"/>
			</g>
			<g id="shape35-99" v:mID="35" v:groupContext="shape" v:layerMember="0" transform="translate(4.25923,-52.4788)">
				<title>Sheet.35</title>
				<v:userDefs>
					<v:ud v:nameU="SurroundingRegionColor" v:prompt="" v:val="VT0(0):26"/>
				</v:userDefs>
				<path d="M39.73 781.26 C34.47 781.26 30.19 785.57 30.19 790.86 C30.19 796.16 34.47 800.47 39.73 800.47 C44.99 800.47
							 49.27 796.16 49.27 790.86 C49.27 789.67 49.05 788.51 48.63 787.41 L48.08 786.21 C46.43 783.19 43.22
							 781.26 39.73 781.26 ZM0.75 787.13 C0.25 788.32 0 789.57 0 790.86 C0 796.16 4.28 800.47 9.54 800.47 C14.8
							 800.47 19.09 796.16 19.09 790.86 C19.09 785.57 14.8 781.26 9.54 781.26 C6.24 781.26 3.22 782.94 1.46
							 785.77 L0.75 787.13 Z" class="st2"/>
			</g>
		</g>
		<g id="group36-102" transform="translate(224.595,-301.622)" v:mID="36" v:groupContext="group" v:layerMember="0">
			<v:userDefs>
				<v:ud v:nameU="visVersion" v:prompt="" v:val="VT0(15):26"/>
				<v:ud v:nameU="ConnGap" v:prompt="" v:val="VT0(0.00012908222537757):24"/>
			</v:userDefs>
			<title>Department</title>
			<g id="shape37-103" v:mID="37" v:groupContext="shape" v:layerMember="0" transform="translate(25.9038,0)">
				<title>Sheet.37</title>
				<rect x="0" y="731.014" width="73.3088" height="69.4559" class="st4"/>
			</g>
			<g id="shape38-105" v:mID="38" v:groupContext="shape" v:layerMember="0">
				<title>Sheet.38</title>
				<path d="M29.08 751.07 L6.92 751.07 C5.32 751.07 3.86 751.57 2.68 752.41 C1.87 753 1.2 753.75 0.73 754.61 C0.26 755.47
							 0 756.43 0 757.46 L0 781.73 L6.07 781.73 L6.07 800.47 L29.7 800.47 L29.7 781.73 L36 781.73 L36 757.46
							 C36 755.98 35.46 754.63 34.54 753.54 C33.91 752.79 33.1 752.17 32.17 751.74 C31.24 751.31 30.19 751.07
							 29.08 751.07 ZM28.35 739.06 A10.3537 9.45354 -180 1 0 7.65 739.06 A10.3537 9.45354 -180 1 0 28.35 739.06
							 Z" class="st2"/>
				<path d="M29.08 751.07 L6.92 751.07 C5.32 751.07 3.86 751.57 2.68 752.41 C1.87 753 1.2 753.75 0.73 754.61 C0.26 755.47
							 0 756.43 0 757.46 L0 781.73 L6.07 781.73 L6.07 800.47 L29.7 800.47 L29.7 781.73 L36 781.73 L36 757.46
							 C36 755.98 35.46 754.63 34.54 753.54 C33.91 752.79 33.1 752.17 32.17 751.74 C31.24 751.31 30.19 751.07
							 29.08 751.07" class="st3"/>
				<path d="M18 800.47 L18 785.49" class="st3"/>
				<path d="M6.07 781.73 L6.07 768.8" class="st3"/>
				<path d="M29.7 781.73 L29.7 768.8" class="st3"/>
				<path d="M28.35 739.06 A10.3537 9.45354 -180 1 0 7.65 739.06 A10.3537 9.45354 -180 1 0 28.35 739.06" class="st3"/>
			</g>
			<g id="shape39-112" v:mID="39" v:groupContext="shape" v:layerMember="0" transform="translate(42.7001,-8.10906)">
				<title>Sheet.39</title>
				<v:userDefs>
					<v:ud v:nameU="SurroundingRegionColor" v:prompt="" v:val="VT5(1)"/>
				</v:userDefs>
				<path d="M16.04 787.78 L3.82 787.78 C2.94 787.78 2.13 788.05 1.48 788.51 C1.03 788.83 0.66 789.24 0.4 789.71 C0.14
							 790.19 0 790.71 0 791.28 L0 800.47 L2.98 800.47 L2.98 795.58 L3.97 795.58 L3.97 800.47 L15.89 800.47
							 L15.89 795.58 L16.88 795.58 L16.88 800.47 L19.86 800.47 L19.86 791.28 C19.86 790.47 19.56 789.73 19.06
							 789.13 C18.71 788.72 18.26 788.38 17.74 788.15 C17.23 787.91 16.65 787.78 16.04 787.78 ZM31.32 758.87
							 L19.09 758.87 C18.21 758.87 17.4 759.14 16.76 759.6 C16.31 759.92 15.93 760.33 15.68 760.8 C15.42 761.27
							 15.27 761.8 15.27 762.37 L15.27 771.56 L18.25 771.56 L18.25 766.67 L19.25 766.67 L19.25 771.56 L31.16
							 771.56 L31.16 766.67 L32.15 766.67 L32.15 771.56 L35.13 771.56 L35.13 762.37 C35.13 761.56 34.83 760.82
							 34.33 760.22 C33.98 759.81 33.53 759.47 33.02 759.24 C32.51 759 31.93 758.87 31.32 758.87 ZM46.59 787.78
							 L34.37 787.78 C33.48 787.78 32.68 788.05 32.03 788.51 C31.58 788.83 31.21 789.24 30.95 789.71 C30.69
							 790.19 30.55 790.71 30.55 791.28 L30.55 800.47 L33.53 800.47 L33.53 795.58 L34.52 795.58 L34.52 800.47
							 L46.44 800.47 L46.44 795.58 L47.43 795.58 L47.43 800.47 L50.41 800.47 L50.41 791.28 C50.41 790.47 50.11
							 789.73 49.6 789.13 C49.25 788.72 48.81 788.38 48.29 788.15 C47.78 787.91 47.2 787.78 46.59 787.78 ZM15.64
							 781.2 A5.64558 5.17009 -180 1 0 4.35 781.2 A5.64558 5.17009 -180 1 0 15.64 781.2 ZM30.91 752.29 A5.64558
							 5.17543 -180 1 0 19.62 752.29 A5.64558 5.17543 -180 1 0 30.91 752.29 ZM46.19 781.2 A5.64558 5.17009
							 -180 1 0 34.9 781.2 A5.64558 5.17009 -180 1 0 46.19 781.2 Z" class="st5"/>
			</g>
		</g>
		<g id="group40-115" transform="translate(289.084,-38)" v:mID="40" v:groupContext="group" v:layerMember="0">
			<v:userDefs>
				<v:ud v:nameU="visVersion" v:prompt="" v:val="VT0(15):26"/>
				<v:ud v:nameU="ConnGap" v:prompt="" v:val="VT0(0.00012908222537757):24"/>
			</v:userDefs>
			<title>Team.40</title>
			<g id="shape41-116" v:mID="41" v:groupContext="shape" v:layerMember="0">
				<title>Sheet.41</title>
				<path d="M47.53 740.81 A6.32754 6.26099 -180 1 0 34.87 740.81 A6.32754 6.26099 -180 1 0 47.53 740.81 ZM38.23 765.47
							 C38.73 765.47 39.22 765.54 39.68 765.66 C39.77 765.46 39.87 765.26 39.98 765.07 C40.5 764.18 41.23 763.44
							 42.13 762.93 C42.95 762.46 43.91 762.18 44.92 762.18 L47.27 762.18 A7.92626 7.84287 0 0 1 47.52 748.94
							 L34.48 748.94 C33.53 748.94 32.65 749.27 31.94 749.84 C31.51 750.19 31.15 750.62 30.88 751.12 A7.92626
							 7.84287 0 0 1 36.02 765.47 L38.23 765.47 ZM24.94 767.05 C23.98 767.05 23.1 767.39 22.4 767.96 C21.91
							 768.35 21.5 768.86 21.22 769.44 C20.94 770.02 20.79 770.68 20.79 771.37 L20.79 787.79 L24.43 787.79
							 L24.43 779.05 L25.21 779.05 L25.21 800.47 L31.19 800.47 L31.19 790.34 L31.97 790.34 L31.97 800.47 L37.82
							 800.47 L37.82 779.05 L38.6 779.05 L38.6 787.79 L42.38 787.79 L42.38 771.37 C42.38 770.37 42.05 769.46
							 41.51 768.72 C41.13 768.22 40.64 767.8 40.08 767.51 C39.52 767.21 38.89 767.05 38.23 767.05 L24.94 767.05
							 ZM37.91 758.92 A6.32755 6.26098 -180 1 0 25.26 758.92 A6.32755 6.26098 -180 1 0 37.91 758.92 ZM17.19
							 752.13 A6.32755 6.26099 -180 1 0 4.54 752.13 A6.32755 6.26099 -180 1 0 17.19 752.13 ZM21.59 764.58 C21.59
							 763.58 21.27 762.66 20.72 761.93 C20.34 761.42 19.85 761 19.29 760.71 C18.74 760.42 18.11 760.25 17.44
							 760.25 L4.15 760.25 C3.19 760.25 2.31 760.59 1.61 761.16 C1.12 761.56 0.72 762.06 0.44 762.65 C0.16
							 763.23 0 763.88 0 764.58 L0 780.99 L3.64 780.99 L3.64 772.24 L4.42 772.24 L4.42 793.67 L10.41 793.67
							 L10.41 783.54 L11.19 783.54 L11.19 793.67 L17.03 793.67 L17.03 772.25 L17.81 772.25 L17.81 780.99 L19.19
							 780.99 L19.19 771.37 C19.19 770.28 19.48 769.24 20 768.35 C20.4 767.66 20.94 767.05 21.59 766.57 L21.59
							 764.58 Z" class="st4"/>
			</g>
			<g id="shape42-118" v:mID="42" v:groupContext="shape" v:layerMember="0" transform="translate(13.4563,-3.28495)">
				<title>Sheet.42</title>
				<path d="M15.34 739.15 A6.32755 6.26099 -180 1 0 2.68 739.15 A6.32755 6.26099 -180 1 0 15.34 739.15 ZM9.73 769.03
							 C10.29 768.85 10.87 768.75 11.48 768.75 L13.83 768.75 A7.92626 7.84287 0 0 1 15.53 754.82 C15.66 754.36
							 15.85 753.93 16.09 753.52 C16.61 752.63 17.34 751.89 18.24 751.38 C18.68 751.13 19.16 750.93 19.66 750.81
							 C19.54 750.12 19.26 749.48 18.86 748.95 C18.48 748.44 17.99 748.02 17.44 747.73 C16.88 747.44 16.25
							 747.28 15.58 747.28 L2.29 747.28 C1.44 747.28 0.66 747.54 0 748 A7.92626 7.84287 0 0 1 1.78 761.95 L1.78
							 761.96 L3.99 761.96 C4.97 761.95 5.92 762.22 6.73 762.67 C7.54 763.13 8.22 763.77 8.73 764.54 C9.37
							 765.49 9.73 766.64 9.73 767.86 L9.73 769.03 ZM31.47 767.05 C30.51 767.05 29.63 767.39 28.93 767.96 C28.44
							 768.35 28.03 768.86 27.75 769.44 C27.73 769.49 27.71 769.53 27.69 769.57 C28.43 770.02 29.05 770.62
							 29.52 771.33 C30.15 772.29 30.52 773.44 30.52 774.66 L30.52 787.79 L30.95 787.79 L30.95 779.05 L31.73
							 779.05 L31.73 800.47 L37.72 800.47 L37.72 790.34 L38.5 790.34 L38.5 800.47 L44.35 800.47 L44.35 779.05
							 L45.13 779.05 L45.13 787.79 L48.91 787.79 L48.91 771.37 C48.91 770.37 48.58 769.46 48.03 768.72 C47.65
							 768.22 47.17 767.8 46.61 767.51 C46.05 767.21 45.42 767.05 44.76 767.05 L31.47 767.05 ZM44.51 758.92
							 A6.32754 6.26099 -180 1 0 31.85 758.92 A6.32754 6.26099 -180 1 0 44.51 758.92 Z" class="st4"/>
			</g>
		</g>
		<g id="group43-120" transform="translate(362.784,-38)" v:mID="43" v:groupContext="group" v:layerMember="0">
			<v:userDefs>
				<v:ud v:nameU="visVersion" v:prompt="" v:val="VT0(15):26"/>
				<v:ud v:nameU="ConnGap" v:prompt="" v:val="VT0(0.00012908222537757):24"/>
			</v:userDefs>
			<title>Team.43</title>
			<g id="shape44-121" v:mID="44" v:groupContext="shape" v:layerMember="0">
				<title>Sheet.44</title>
				<path d="M47.53 740.81 A6.32754 6.26099 -180 1 0 34.87 740.81 A6.32754 6.26099 -180 1 0 47.53 740.81 ZM38.23 765.47
							 C38.73 765.47 39.22 765.54 39.68 765.66 C39.77 765.46 39.87 765.26 39.98 765.07 C40.5 764.18 41.23 763.44
							 42.13 762.93 C42.95 762.46 43.91 762.18 44.92 762.18 L47.27 762.18 A7.92626 7.84287 0 0 1 47.52 748.94
							 L34.48 748.94 C33.53 748.94 32.65 749.27 31.94 749.84 C31.51 750.19 31.15 750.62 30.88 751.12 A7.92626
							 7.84287 0 0 1 36.02 765.47 L38.23 765.47 ZM24.94 767.05 C23.98 767.05 23.1 767.39 22.4 767.96 C21.91
							 768.35 21.5 768.86 21.22 769.44 C20.94 770.02 20.79 770.68 20.79 771.37 L20.79 787.79 L24.43 787.79
							 L24.43 779.05 L25.21 779.05 L25.21 800.47 L31.19 800.47 L31.19 790.34 L31.97 790.34 L31.97 800.47 L37.82
							 800.47 L37.82 779.05 L38.6 779.05 L38.6 787.79 L42.38 787.79 L42.38 771.37 C42.38 770.37 42.05 769.46
							 41.51 768.72 C41.13 768.22 40.64 767.8 40.08 767.51 C39.52 767.21 38.89 767.05 38.23 767.05 L24.94 767.05
							 ZM37.91 758.92 A6.32755 6.26098 -180 1 0 25.26 758.92 A6.32755 6.26098 -180 1 0 37.91 758.92 ZM17.19
							 752.13 A6.32755 6.26099 -180 1 0 4.54 752.13 A6.32755 6.26099 -180 1 0 17.19 752.13 ZM21.59 764.58 C21.59
							 763.58 21.27 762.66 20.72 761.93 C20.34 761.42 19.85 761 19.29 760.71 C18.74 760.42 18.11 760.25 17.44
							 760.25 L4.15 760.25 C3.19 760.25 2.31 760.59 1.61 761.16 C1.12 761.56 0.72 762.06 0.44 762.65 C0.16
							 763.23 0 763.88 0 764.58 L0 780.99 L3.64 780.99 L3.64 772.24 L4.42 772.24 L4.42 793.67 L10.41 793.67
							 L10.41 783.54 L11.19 783.54 L11.19 793.67 L17.03 793.67 L17.03 772.25 L17.81 772.25 L17.81 780.99 L19.19
							 780.99 L19.19 771.37 C19.19 770.28 19.48 769.24 20 768.35 C20.4 767.66 20.94 767.05 21.59 766.57 L21.59
							 764.58 Z" class="st4"/>
			</g>
			<g id="shape45-123" v:mID="45" v:groupContext="shape" v:layerMember="0" transform="translate(13.4563,-3.28495)">
				<title>Sheet.45</title>
				<path d="M15.34 739.15 A6.32755 6.26099 -180 1 0 2.68 739.15 A6.32755 6.26099 -180 1 0 15.34 739.15 ZM9.73 769.03
							 C10.29 768.85 10.87 768.75 11.48 768.75 L13.83 768.75 A7.92626 7.84287 0 0 1 15.53 754.82 C15.66 754.36
							 15.85 753.93 16.09 753.52 C16.61 752.63 17.34 751.89 18.24 751.38 C18.68 751.13 19.16 750.93 19.66 750.81
							 C19.54 750.12 19.26 749.48 18.86 748.95 C18.48 748.44 17.99 748.02 17.44 747.73 C16.88 747.44 16.25
							 747.28 15.58 747.28 L2.29 747.28 C1.44 747.28 0.66 747.54 0 748 A7.92626 7.84287 0 0 1 1.78 761.95 L1.78
							 761.96 L3.99 761.96 C4.97 761.95 5.92 762.22 6.73 762.67 C7.54 763.13 8.22 763.77 8.73 764.54 C9.37
							 765.49 9.73 766.64 9.73 767.86 L9.73 769.03 ZM31.47 767.05 C30.51 767.05 29.63 767.39 28.93 767.96 C28.44
							 768.35 28.03 768.86 27.75 769.44 C27.73 769.49 27.71 769.53 27.69 769.57 C28.43 770.02 29.05 770.62
							 29.52 771.33 C30.15 772.29 30.52 773.44 30.52 774.66 L30.52 787.79 L30.95 787.79 L30.95 779.05 L31.73
							 779.05 L31.73 800.47 L37.72 800.47 L37.72 790.34 L38.5 790.34 L38.5 800.47 L44.35 800.47 L44.35 779.05
							 L45.13 779.05 L45.13 787.79 L48.91 787.79 L48.91 771.37 C48.91 770.37 48.58 769.46 48.03 768.72 C47.65
							 768.22 47.17 767.8 46.61 767.51 C46.05 767.21 45.42 767.05 44.76 767.05 L31.47 767.05 ZM44.51 758.92
							 A6.32754 6.26099 -180 1 0 31.85 758.92 A6.32754 6.26099 -180 1 0 44.51 758.92 Z" class="st4"/>
			</g>
		</g>
		<g id="group46-125" transform="translate(436.485,-38)" v:mID="46" v:groupContext="group" v:layerMember="0">
			<v:userDefs>
				<v:ud v:nameU="visVersion" v:prompt="" v:val="VT0(15):26"/>
				<v:ud v:nameU="ConnGap" v:prompt="" v:val="VT0(0.00012908222537757):24"/>
			</v:userDefs>
			<title>Team.46</title>
			<g id="shape47-126" v:mID="47" v:groupContext="shape" v:layerMember="0">
				<title>Sheet.47</title>
				<path d="M47.53 740.81 A6.32754 6.26099 -180 1 0 34.87 740.81 A6.32754 6.26099 -180 1 0 47.53 740.81 ZM38.23 765.47
							 C38.73 765.47 39.22 765.54 39.68 765.66 C39.77 765.46 39.87 765.26 39.98 765.07 C40.5 764.18 41.23 763.44
							 42.13 762.93 C42.95 762.46 43.91 762.18 44.92 762.18 L47.27 762.18 A7.92626 7.84287 0 0 1 47.52 748.94
							 L34.48 748.94 C33.53 748.94 32.65 749.27 31.94 749.84 C31.51 750.19 31.15 750.62 30.88 751.12 A7.92626
							 7.84287 0 0 1 36.02 765.47 L38.23 765.47 ZM24.94 767.05 C23.98 767.05 23.1 767.39 22.4 767.96 C21.91
							 768.35 21.5 768.86 21.22 769.44 C20.94 770.02 20.79 770.68 20.79 771.37 L20.79 787.79 L24.43 787.79
							 L24.43 779.05 L25.21 779.05 L25.21 800.47 L31.19 800.47 L31.19 790.34 L31.97 790.34 L31.97 800.47 L37.82
							 800.47 L37.82 779.05 L38.6 779.05 L38.6 787.79 L42.38 787.79 L42.38 771.37 C42.38 770.37 42.05 769.46
							 41.51 768.72 C41.13 768.22 40.64 767.8 40.08 767.51 C39.52 767.21 38.89 767.05 38.23 767.05 L24.94 767.05
							 ZM37.91 758.92 A6.32755 6.26098 -180 1 0 25.26 758.92 A6.32755 6.26098 -180 1 0 37.91 758.92 ZM17.19
							 752.13 A6.32755 6.26099 -180 1 0 4.54 752.13 A6.32755 6.26099 -180 1 0 17.19 752.13 ZM21.59 764.58 C21.59
							 763.58 21.27 762.66 20.72 761.93 C20.34 761.42 19.85 761 19.29 760.71 C18.74 760.42 18.11 760.25 17.44
							 760.25 L4.15 760.25 C3.19 760.25 2.31 760.59 1.61 761.16 C1.12 761.56 0.72 762.06 0.44 762.65 C0.16
							 763.23 0 763.88 0 764.58 L0 780.99 L3.64 780.99 L3.64 772.24 L4.42 772.24 L4.42 793.67 L10.41 793.67
							 L10.41 783.54 L11.19 783.54 L11.19 793.67 L17.03 793.67 L17.03 772.25 L17.81 772.25 L17.81 780.99 L19.19
							 780.99 L19.19 771.37 C19.19 770.28 19.48 769.24 20 768.35 C20.4 767.66 20.94 767.05 21.59 766.57 L21.59
							 764.58 Z" class="st4"/>
			</g>
			<g id="shape48-128" v:mID="48" v:groupContext="shape" v:layerMember="0" transform="translate(13.4563,-3.28495)">
				<title>Sheet.48</title>
				<path d="M15.34 739.15 A6.32755 6.26099 -180 1 0 2.68 739.15 A6.32755 6.26099 -180 1 0 15.34 739.15 ZM9.73 769.03
							 C10.29 768.85 10.87 768.75 11.48 768.75 L13.83 768.75 A7.92626 7.84287 0 0 1 15.53 754.82 C15.66 754.36
							 15.85 753.93 16.09 753.52 C16.61 752.63 17.34 751.89 18.24 751.38 C18.68 751.13 19.16 750.93 19.66 750.81
							 C19.54 750.12 19.26 749.48 18.86 748.95 C18.48 748.44 17.99 748.02 17.44 747.73 C16.88 747.44 16.25
							 747.28 15.58 747.28 L2.29 747.28 C1.44 747.28 0.66 747.54 0 748 A7.92626 7.84287 0 0 1 1.78 761.95 L1.78
							 761.96 L3.99 761.96 C4.97 761.95 5.92 762.22 6.73 762.67 C7.54 763.13 8.22 763.77 8.73 764.54 C9.37
							 765.49 9.73 766.64 9.73 767.86 L9.73 769.03 ZM31.47 767.05 C30.51 767.05 29.63 767.39 28.93 767.96 C28.44
							 768.35 28.03 768.86 27.75 769.44 C27.73 769.49 27.71 769.53 27.69 769.57 C28.43 770.02 29.05 770.62
							 29.52 771.33 C30.15 772.29 30.52 773.44 30.52 774.66 L30.52 787.79 L30.95 787.79 L30.95 779.05 L31.73
							 779.05 L31.73 800.47 L37.72 800.47 L37.72 790.34 L38.5 790.34 L38.5 800.47 L44.35 800.47 L44.35 779.05
							 L45.13 779.05 L45.13 787.79 L48.91 787.79 L48.91 771.37 C48.91 770.37 48.58 769.46 48.03 768.72 C47.65
							 768.22 47.17 767.8 46.61 767.51 C46.05 767.21 45.42 767.05 44.76 767.05 L31.47 767.05 ZM44.51 758.92
							 A6.32754 6.26099 -180 1 0 31.85 758.92 A6.32754 6.26099 -180 1 0 44.51 758.92 Z" class="st4"/>
			</g>
		</g>
		<g id="shape50-130" v:mID="50" v:groupContext="shape" v:layerMember="1"
				transform="translate(1061.17,364.046) rotate(90.5663)">
			<title>Hollow connect 1</title>
			<v:userDefs>
				<v:ud v:nameU="visVersion" v:val="VT0(15):26"/>
			</v:userDefs>
			<path d="M0 793.38 L57.53 793.38 L57.53 800.47 L71.7 786.3 L57.53 772.12 L57.53 779.21 L0 779.21" class="st6"/>
		</g>
		<g id="shape51-133" v:mID="51" v:groupContext="shape" v:layerMember="1"
				transform="translate(1065.2,507.978) rotate(90.5663)">
			<title>Hollow connect 1.51</title>
			<v:userDefs>
				<v:ud v:nameU="visVersion" v:val="VT0(15):26"/>
			</v:userDefs>
			<path d="M0 793.38 L35.48 793.38 L35.48 800.47 L49.66 786.3 L35.48 772.12 L35.48 779.21 L0 779.21" class="st6"/>
		</g>
		<g id="shape63-136" v:mID="63" v:groupContext="shape" v:layerMember="1" transform="translate(1061.21,259.32) rotate(90)">
			<title>Hollow connect 1.63</title>
			<v:userDefs>
				<v:ud v:nameU="visVersion" v:val="VT0(15):26"/>
			</v:userDefs>
			<path d="M0 793.38 L34.57 793.38 L34.57 800.47 L48.75 786.3 L34.57 772.12 L34.57 779.21 L0 779.21" class="st6"/>
		</g>
		<g id="shape65-139" v:mID="65" v:groupContext="shape" v:layerMember="1" transform="translate(204.044,-731.638)">
			<title>Elbow 1</title>
			<v:userDefs>
				<v:ud v:nameU="Scale" v:val="VT0(1):26"/>
				<v:ud v:nameU="AntiScale" v:val="VT0(1):26"/>
				<v:ud v:nameU="visVersion" v:val="VT0(15):26"/>
			</v:userDefs>
			<path d="M0 808.97 L-134.65 808.97 L-134.65 891.74 L-128.98 891.74 L-143.15 905.91 L-157.32 891.74 L-151.65 891.74 L-151.65
						 791.97 L0 791.97 L0 808.97 Z" class="st7"/>
			<path d="M0 808.97 L-134.65 808.97 L-134.65 891.74 L-128.98 891.74 L-143.15 905.91 L-157.32 891.74 L-151.65 891.74 L-151.65
						 791.97 L0 791.97" class="st6"/>
			<path d="" class="st6"/>
			<path d="M0 808.97 L0 791.97" class="st6"/>
		</g>
		<g id="shape66-144" v:mID="66" v:groupContext="shape" v:layerMember="1" transform="translate(352.863,-732.488)">
			<title>Elbow 1.66</title>
			<v:userDefs>
				<v:ud v:nameU="Scale" v:val="VT0(1):26"/>
				<v:ud v:nameU="AntiScale" v:val="VT0(1):26"/>
				<v:ud v:nameU="visVersion" v:val="VT0(15):26"/>
			</v:userDefs>
			<path d="M0 808.97 L125.43 808.97 L125.43 892.59 L119.76 892.59 L133.94 906.76 L148.11 892.59 L142.44 892.59 L142.44
						 791.97 L0 791.97 L0 808.97 Z" class="st7"/>
			<path d="M0 808.97 L125.43 808.97 L125.43 892.59 L119.76 892.59 L133.94 906.76 L148.11 892.59 L142.44 892.59 L142.44
						 791.97 L0 791.97" class="st6"/>
			<path d="" class="st6"/>
			<path d="M0 808.97 L0 791.97" class="st6"/>
		</g>
		<g id="shape71-149" v:mID="71" v:groupContext="shape" v:layerMember="1" transform="translate(1064.75,613.651) rotate(90)">
			<title>One to many</title>
			<v:userDefs>
				<v:ud v:nameU="Scale" v:val="VT0(1):26"/>
				<v:ud v:nameU="AntiScale" v:val="VT0(1):26"/>
				<v:ud v:nameU="visVersion" v:val="VT0(15):26"/>
			</v:userDefs>
			<path d="M77.94 597.08 L42.52 786.3 L77.94 968.42" class="st8"/>
			<path d="M0 786.3 L70.87 786.3" class="st8"/>
		</g>
		<g id="shape72-153" v:mID="72" v:groupContext="shape" transform="translate(289.084,-134.173)">
			<title>Sheet.72</title>
			<desc>Students</desc>
			<v:textBlock v:margins="rect(4,4,4,4)" v:tabSpace="42.5197"/>
			<v:textRect cx="49.6063" cy="776.375" width="99.22" height="48.189"/>
			<rect x="0" y="752.281" width="99.2126" height="48.189" class="st9"/>
			<text x="15.39" y="780.58" class="st10" v:langID="11274"><v:paragraph v:horizAlign="1"/><v:tabList/>Students</text>		</g>
		<g id="shape74-156" v:mID="74" v:groupContext="shape" transform="translate(317.43,-312.961)">
			<title>Sheet.74</title>
			<desc>Educator</desc>
			<v:textBlock v:margins="rect(4,4,4,4)" v:tabSpace="42.5197"/>
			<v:textRect cx="49.6063" cy="776.375" width="99.22" height="48.189"/>
			<rect x="0" y="752.281" width="99.2126" height="48.189" class="st9"/>
			<text x="14.99" y="780.58" class="st10" v:langID="11274"><v:paragraph v:horizAlign="1"/><v:tabList/>Educator</text>		</g>
		<g id="shape75-159" v:mID="75" v:groupContext="shape" transform="translate(317.43,-444.205)">
			<title>Sheet.75</title>
			<desc>Introducer</desc>
			<v:textBlock v:margins="rect(4,4,4,4)" v:tabSpace="42.5197"/>
			<v:textRect cx="49.6063" cy="776.375" width="99.22" height="48.189"/>
			<rect x="0" y="752.281" width="99.2126" height="48.189" class="st9"/>
			<text x="9.55" y="780.58" class="st10" v:langID="11274"><v:paragraph v:horizAlign="1"/><v:tabList/>Introducer</text>		</g>
		<g id="shape76-162" v:mID="76" v:groupContext="shape" transform="translate(447.824,-483.039)">
			<title>Sheet.76</title>
			<desc>Finance</desc>
			<v:textBlock v:margins="rect(4,4,4,4)" v:tabSpace="42.5197"/>
			<v:textRect cx="49.6063" cy="776.375" width="99.22" height="48.189"/>
			<rect x="0" y="752.281" width="99.2126" height="48.189" class="st9"/>
			<text x="19.26" y="780.58" class="st10" v:langID="11274"><v:paragraph v:horizAlign="1"/><v:tabList/>Finance</text>		</g>
		<g id="shape77-165" v:mID="77" v:groupContext="shape" transform="translate(7.08661,-483.039)">
			<title>Sheet.77</title>
			<desc>Training Material</desc>
			<v:textBlock v:margins="rect(4,4,4,4)" v:tabSpace="42.5197"/>
			<v:textRect cx="49.6063" cy="776.375" width="99.22" height="48.189"/>
			<rect x="0" y="752.281" width="99.2126" height="48.189" class="st9"/>
			<text x="18.11" y="772.18" class="st10" v:langID="11274"><v:paragraph v:horizAlign="1"/><v:tabList/>Training <tspan
						x="18.12" dy="1.2em" class="st11">Material</tspan></text>		</g>
		<g id="shape78-169" v:mID="78" v:groupContext="shape" transform="translate(225.304,-668.976)">
			<title>Sheet.78</title>
			<desc>Business Person</desc>
			<v:textBlock v:margins="rect(4,4,4,4)" v:tabSpace="42.5197"/>
			<v:textRect cx="49.6063" cy="780.627" width="99.22" height="39.685"/>
			<rect x="0" y="760.784" width="99.2126" height="39.685" class="st9"/>
			<text x="15" y="776.43" class="st10" v:langID="11274"><v:paragraph v:horizAlign="1"/><v:tabList/>Business <tspan
						x="23.16" dy="1.2em" class="st11">Person</tspan></text>		</g>
		<g id="shape79-173" v:mID="79" v:groupContext="shape" transform="translate(289.084,-193.055)">
			<title>Sheet.79</title>
			<desc>IT Trainer</desc>
			<v:textBlock v:margins="rect(4,4,4,4)" v:tabSpace="42.5197"/>
			<v:textRect cx="49.6063" cy="776.375" width="99.22" height="48.189"/>
			<rect x="0" y="752.281" width="99.2126" height="48.189" class="st9"/>
			<text x="11.89" y="780.58" class="st10" v:langID="11274"><v:paragraph v:horizAlign="1"/><v:tabList/>IT Trainer</text>		</g>
		<g id="shape80-176" v:mID="80" v:groupContext="shape" transform="translate(317.43,-556.598)">
			<title>Sheet.80</title>
			<desc>Study Program</desc>
			<v:textBlock v:margins="rect(4,4,4,4)" v:tabSpace="42.5197"/>
			<v:textRect cx="49.6063" cy="776.375" width="99.22" height="48.189"/>
			<rect x="0" y="752.281" width="99.2126" height="48.189" class="st9"/>
			<text x="27.83" y="772.18" class="st10" v:langID="11274"><v:paragraph v:horizAlign="1"/><v:tabList/>Study <tspan
						x="17.33" dy="1.2em" class="st11">Program</tspan></text>		</g>
		<g id="shape93-180" v:mID="93" v:groupContext="shape" v:layerMember="1" transform="translate(1059.68,131.493) rotate(90)">
			<title>Hollow connect 1.93</title>
			<v:userDefs>
				<v:ud v:nameU="visVersion" v:val="VT0(15):26"/>
			</v:userDefs>
			<path d="M0 793.38 L48.82 793.38 L48.82 800.47 L62.99 786.3 L48.82 772.12 L48.82 779.21 L0 779.21" class="st6"/>
		</g>
	</g>
</svg>
