<?xml version="1.0" encoding="UTF-8" standalone="no"?>
<!DOCTYPE svg PUBLIC "-//W3C//DTD SVG 1.1//EN" "http://www.w3.org/Graphics/SVG/1.1/DTD/svg11.dtd">
<!-- Generated by Microsoft Visio, SVG Export visio-training-course-income.svg Page-1 -->
<svg xmlns="http://www.w3.org/2000/svg" xmlns:xlink="http://www.w3.org/1999/xlink" xmlns:ev="http://www.w3.org/2001/xml-events"
		xmlns:v="http://schemas.microsoft.com/visio/2003/SVGExtensions/" width="8.26772in" height="11.6929in"
		viewBox="0 0 595.276 841.89" xml:space="preserve" color-interpolation-filters="sRGB" class="st20">
	<v:documentProperties v:langID="3082" v:metric="true" v:viewMarkup="false">
		<v:userDefs>
			<v:ud v:nameU="msvNoAutoConnect" v:val="VT0(1):26"/>
		</v:userDefs>
	</v:documentProperties>

	<style type="text/css">
	<![CDATA[
		.st1 {fill:url(#grad7-4);stroke:none;stroke-linecap:round;stroke-linejoin:round;stroke-width:0.75}
		.st2 {visibility:visible}
		.st3 {fill:#d9958f;filter:url(#filter_11.333333015442);stroke:#d9958f;stroke-linecap:round;stroke-linejoin:round}
		.st4 {fill:#f9c499;stroke:#c05046;stroke-linecap:round;stroke-linejoin:round;stroke-width:0.24}
		.st5 {fill:#000000;font-family:Liberation Mono;font-size:1.16666em;font-weight:bold}
		.st6 {font-family:Symbol;font-size:1em;font-weight:normal}
		.st7 {font-size:1em;font-weight:normal}
		.st8 {fill:#ffffff;stroke:#000000;stroke-linecap:round;stroke-linejoin:round;stroke-width:0.75}
		.st9 {fill:#595959;stroke:none;stroke-linecap:butt;stroke-width:0.75}
		.st10 {fill:#000000;stroke:none;stroke-linecap:round;stroke-linejoin:round;stroke-width:6.375}
		.st11 {fill:#612621;fill-opacity:0.66;filter:url(#filter_24);stroke:#612621;stroke-linecap:round;stroke-linejoin:round;stroke-opacity:0.66}
		.st12 {fill:#000000;font-family:Liberation Mono;font-size:1.16666em;font-weight:bold;letter-spacing:0.0714292em}
		.st13 {fill:none;stroke:none;stroke-linecap:round;stroke-linejoin:round;stroke-width:0.75}
		.st14 {fill:#000000;font-family:Arial Black;font-size:1.00001em}
		.st15 {stroke:#000000;stroke-linecap:round;stroke-linejoin:round;stroke-width:0.239976}
		.st16 {fill:#0070c0;fill-opacity:0.49;filter:url(#filter_17.333332061768);stroke:#0070c0;stroke-linecap:round;stroke-linejoin:round;stroke-opacity:0.49}
		.st17 {fill:#0070c0;fill-opacity:0.8;stroke:#427bc8;stroke-linecap:round;stroke-linejoin:round;stroke-width:2.5}
		.st18 {fill:#ffffff;font-family:Microsoft JhengHei;font-size:1.16666em}
		.st19 {font-size:1em}
		.st20 {fill:none;fill-rule:evenodd;font-size:12px;overflow:visible;stroke-linecap:square;stroke-miterlimit:3}
	]]>
	</style>

	<defs id="Patterns_And_Gradients">
		<radialGradient id="grad7-4" cx="0" cy="0" r="1.4">
			<stop offset="0" stop-color="#ffd966" stop-opacity="1"/>
			<stop offset="1" stop-color="#ffca2b" stop-opacity="1"/>
		</radialGradient>
	</defs>
	<defs id="Filters">
		<filter id="filter_11.333333015442">
			<feGaussianBlur stdDeviation="11.333333015442"/>
		</filter>
		<filter id="filter_24">
			<feGaussianBlur stdDeviation="24"/>
		</filter>
		<filter id="filter_17.333332061768">
			<feGaussianBlur stdDeviation="17.333332061768"/>
		</filter>
	</defs>
	<g v:mID="4" v:index="1" v:groupContext="backgroundPage">
		<v:userDefs>
			<v:ud v:nameU="msvVisioCreated" v:prompt="" v:val="VT0(0):26"/>
		</v:userDefs>
		<title>VBackground-1</title>
		<v:pageProperties width="8.26772" height="11.6929" v:drawingScale="0.0393701" v:pageScale="0.0393701" v:drawingUnits="24"
				v:shadowOffsetX="8.50394" v:shadowOffsetY="-8.50394"/>
		<g id="shape2-1" v:mID="2" v:groupContext="shape">
			<title>Corner Gradient</title>
			<v:userDefs>
				<v:ud v:nameU="Background" v:val="VT0(0):26"/>
				<v:ud v:nameU="visVersion" v:val="VT0(15):26"/>
				<v:ud v:nameU="msvShapeCategories" v:prompt="" v:val="VT4(DoNotContain)"/>
				<v:ud v:nameU="msvVisioCreated" v:prompt="" v:val="VT0(0):26"/>
			</v:userDefs>
			<rect x="0" y="0" width="595.276" height="841.89" class="st1"/>
		</g>
	</g>
	<g v:mID="0" v:index="2" v:groupContext="foregroundPage">
		<title>Page-1</title>
		<v:pageProperties v:drawingScale="0.0393701" v:pageScale="0.0393701" v:drawingUnits="24" v:shadowOffsetX="8.50394"
				v:shadowOffsetY="-8.50394"/>
		<v:layer v:name="Connector" v:index="0"/>
		<g id="shape16-5" v:mID="16" v:groupContext="shape" transform="translate(164.409,-680.315)">
			<title>Rectangle</title>
			<desc>Payment Paypal Western Union</desc>
			<v:userDefs>
				<v:ud v:nameU="visVersion" v:val="VT0(15):26"/>
			</v:userDefs>
			<v:textBlock v:margins="rect(4,4,4,4)" v:tabSpace="42.5197"/>
			<v:textRect cx="73.7008" cy="788.031" width="147.41" height="107.717"/>
			<g id="shadow16-6" v:groupContext="shadow" v:shadowOffsetX="10.239" v:shadowOffsetY="9.54798" v:shadowType="1"
					transform="matrix(1,0,0,1,10.239,-9.54798)" class="st2">
				<rect x="0" y="734.173" width="147.402" height="107.717" rx="8.50394" ry="8.50394" class="st3"/>
			</g>
			<rect x="0" y="734.173" width="147.402" height="107.717" rx="8.50394" ry="8.50394" class="st4"/>
			<text x="4" y="759.5" class="st5" v:langID="11274"><v:paragraph v:spAfter="5" v:bulletSpace="11.3386"/><v:tabList/>Payment<v:newlineChar/><v:paragraph
						v:indentFirst="-18" v:indentLeft="18" v:spAfter="5" v:bullet="1" v:bulletSpace="11.3386"/><tspan x="4"
						dy="1.559em" class="st6" v:isBullet="true">·</tspan><tspan class="st6"> </tspan><tspan class="st7">Paypal<v:newlineChar/></tspan><tspan
						x="4" dy="1.56em" class="st6" v:isBullet="true">·</tspan><tspan class="st6"> </tspan><tspan class="st7">Western Union</tspan><v:newlineChar/></text>		</g>
		<g id="shape18-17" v:mID="18" v:groupContext="shape" transform="translate(62.3622,-684.567)">
			<title>Actor</title>
			<v:userDefs>
				<v:ud v:nameU="visVersion" v:prompt="" v:val="VT0(15):26"/>
			</v:userDefs>
			<path d="M6.8 841.89 L6.8 806.46 L6.8 820.63 L0 820.63 L0 792.28 L3.4 788.74 L30.61 788.74 L34.02 792.28 L34.02 820.63
						 L27.21 820.63 L27.21 806.46 L27.21 841.89 L17.01 841.89 L17.01 813.54 L17.01 841.89 L6.8 841.89 ZM24.09
						 778.11 A7.08661 7.08661 -180 1 0 9.92 778.11 A7.08661 7.08661 -180 1 0 24.09 778.11 Z" class="st8"/>
		</g>
		<g id="shape21-19" v:mID="21" v:groupContext="shape" transform="translate(36.6249,-55.2756)">
			<title>Users</title>
			<v:userDefs>
				<v:ud v:nameU="msvShapeCategories" v:prompt="" v:val="VT4(Icon)"/>
				<v:ud v:nameU="visVersion" v:prompt="" v:val="VT0(15):26"/>
			</v:userDefs>
			<path d="M62.31 794.12 A9.10022 9.24583 -180 0 0 71.4 784.88 A9.10022 9.24583 -180 0 0 62.31 775.64 A9.10364 9.24929
						 -180 0 0 53.21 784.88 A9.10534 9.25103 -180 0 0 62.31 794.12 ZM62.31 771.02 A13.6381 13.8563 0 0 1 75.95
						 784.88 A13.6381 13.8563 0 0 1 62.31 798.74 A13.6376 13.8558 0 0 1 48.67 784.88 A13.6376 13.8558 0 0 1 62.31
						 771.02 ZM22.78 836.56 A15.893 16.1473 -180 0 0 40.97 827.32 A19.9936 20.3135 -180 0 0 32.23 809.39 A66881.9
						 67952 -180 0 0 22.78 828.28 A33976.5 34520.1 0 0 1 13.33 809.39 A19.9958 20.3158 -180 0 0 4.59 827.32 A15.8912
						 16.1454 -180 0 0 22.78 836.56 ZM31.76 803.7 A23.9623 24.3457 0 0 1 45.51 827.32 A18.1597 18.4503 0 0 1 22.78
						 841.18 A18.1582 18.4488 0 0 1 0.05 827.32 A23.9724 24.3559 0 0 1 13.79 803.7 A16.3232 16.5844 -180 0 0 16.28
						 805.09 L22.78 818.09 L29.28 805.09 A16.0737 16.3309 -180 0 0 31.76 803.7 ZM71.29 798.21 A23.9623 24.3457
						 0 0 1 85.04 821.83 A18.1597 18.4503 0 0 1 62.31 835.69 A36.1991 36.7783 0 0 1 47.1 832.88 A13.7995 14.0203
						 -180 0 0 48.11 828.22 A31.3332 31.8345 -180 0 0 62.31 831.07 A15.893 16.1473 -180 0 0 80.5 821.83 A19.9889
						 20.3087 -180 0 0 71.76 803.9 A42773.3 43457.7 -180 0 0 62.31 822.79 A47605.7 48367.4 0 0 1 52.86 803.9 A18.1191
						 18.409 -180 0 0 45.37 813.81 A25.7337 26.1454 -180 0 0 42.45 808.86 A21.3884 21.7306 0 0 1 53.32 798.21
						 A16.3232 16.5844 -180 0 0 55.81 799.6 L62.31 812.59 L68.81 799.6 A16.0737 16.3309 -180 0 0 71.29 798.21
						 ZM22.78 799.61 A9.09852 9.2441 -180 0 0 31.87 790.37 A9.10022 9.24583 -180 0 0 22.78 781.14 A9.10364 9.24929
						 -180 0 0 13.69 790.37 A9.10534 9.25103 -180 0 0 22.78 799.61 ZM22.78 776.52 A13.6381 13.8563 0 0 1 36.42
						 790.37 A13.6381 13.8563 0 0 1 22.78 804.23 A13.6376 13.8558 0 0 1 9.14 790.37 A13.6376 13.8558 0 0 1 22.78
						 776.52 Z" class="st9"/>
		</g>
		<g id="group22-21" transform="translate(133.128,-361.417)" v:mID="22" v:groupContext="group">
			<title>Teacher</title>
			<g id="shape23-22" v:mID="23" v:groupContext="shape" transform="translate(17.6858,-9.77464)">
				<title>Sheet.23</title>
				<path d="M77.09 780.8 C79.59 780.8 81.63 783 81.63 785.69 L81.63 837 C81.63 839.69 79.59 841.89 77.09 841.89 L29.93
							 841.89 L36.39 834.56 L74.82 834.56 L74.82 788.13 L6.8 788.13 L6.8 803.04 C5.9 802.91 4.99 802.79 4.08
							 802.79 C2.72 802.79 1.25 803.04 0 803.4 L0 785.69 C0 783 2.04 780.8 4.53 780.8 L77.09 780.8 Z"
						class="st10"/>
			</g>
			<g id="shape24-24" v:mID="24" v:groupContext="shape" transform="translate(12.2419,-23.2148)">
				<title>Sheet.24</title>
				<path d="M9.64 841.89 C4.31 841.89 -0.11 837.25 0 831.5 C0 825.76 4.31 821.12 9.64 821.12 C14.97 821.12 19.28 825.76
							 19.28 831.5 C19.28 837.25 14.97 841.89 9.64 841.89 Z" class="st10"/>
			</g>
			<g id="shape25-26" v:mID="25" v:groupContext="shape">
				<title>Sheet.25</title>
				<path d="M58.95 806.58 C60.2 808.53 59.75 811.34 58.39 812.81 L43.53 829.67 L33.9 841.77 L33.9 841.89 L0 841.89 L2.38
							 831.14 C2.61 830.16 3.17 829.06 3.85 828.33 C6.69 825.76 10.09 823.68 13.94 822.58 C16.55 821.73 19.27
							 821.24 21.88 821.24 C24.49 821.24 27.21 821.85 29.82 822.34 C31.52 822.95 33.22 823.68 34.8 824.54 L51.36
							 805.97 C51.58 805.72 51.81 805.23 52.26 804.99 C54.53 803.52 57.48 804.14 58.95 806.58 Z" class="st10"/>
			</g>
		</g>
		<g id="shape26-28" v:mID="26" v:groupContext="shape" transform="translate(147.301,-55.2756)">
			<title>Users.26</title>
			<v:userDefs>
				<v:ud v:nameU="msvShapeCategories" v:prompt="" v:val="VT4(Icon)"/>
				<v:ud v:nameU="visVersion" v:prompt="" v:val="VT0(15):26"/>
			</v:userDefs>
			<path d="M62.31 794.12 A9.10022 9.24583 -180 0 0 71.4 784.88 A9.10022 9.24583 -180 0 0 62.31 775.64 A9.10364 9.24929
						 -180 0 0 53.21 784.88 A9.10534 9.25103 -180 0 0 62.31 794.12 ZM62.31 771.02 A13.6381 13.8563 0 0 1 75.95
						 784.88 A13.6381 13.8563 0 0 1 62.31 798.74 A13.6376 13.8558 0 0 1 48.67 784.88 A13.6376 13.8558 0 0 1 62.31
						 771.02 ZM22.78 836.56 A15.893 16.1473 -180 0 0 40.97 827.32 A19.9936 20.3135 -180 0 0 32.23 809.39 A66881.9
						 67952 -180 0 0 22.78 828.28 A33976.5 34520.1 0 0 1 13.33 809.39 A19.9958 20.3158 -180 0 0 4.59 827.32 A15.8912
						 16.1454 -180 0 0 22.78 836.56 ZM31.76 803.7 A23.9623 24.3457 0 0 1 45.51 827.32 A18.1597 18.4503 0 0 1 22.78
						 841.18 A18.1582 18.4488 0 0 1 0.05 827.32 A23.9724 24.3559 0 0 1 13.79 803.7 A16.3232 16.5844 -180 0 0 16.28
						 805.09 L22.78 818.09 L29.28 805.09 A16.0737 16.3309 -180 0 0 31.76 803.7 ZM71.29 798.21 A23.9623 24.3457
						 0 0 1 85.04 821.83 A18.1597 18.4503 0 0 1 62.31 835.69 A36.1991 36.7783 0 0 1 47.1 832.88 A13.7995 14.0203
						 -180 0 0 48.11 828.22 A31.3332 31.8345 -180 0 0 62.31 831.07 A15.893 16.1473 -180 0 0 80.5 821.83 A19.9889
						 20.3087 -180 0 0 71.76 803.9 A42773.3 43457.7 -180 0 0 62.31 822.79 A47605.7 48367.4 0 0 1 52.86 803.9 A18.1191
						 18.409 -180 0 0 45.37 813.81 A25.7337 26.1454 -180 0 0 42.45 808.86 A21.3884 21.7306 0 0 1 53.32 798.21
						 A16.3232 16.5844 -180 0 0 55.81 799.6 L62.31 812.59 L68.81 799.6 A16.0737 16.3309 -180 0 0 71.29 798.21
						 ZM22.78 799.61 A9.09852 9.2441 -180 0 0 31.87 790.37 A9.10022 9.24583 -180 0 0 22.78 781.14 A9.10364 9.24929
						 -180 0 0 13.69 790.37 A9.10534 9.25103 -180 0 0 22.78 799.61 ZM22.78 776.52 A13.6381 13.8563 0 0 1 36.42
						 790.37 A13.6381 13.8563 0 0 1 22.78 804.23 A13.6376 13.8558 0 0 1 9.14 790.37 A13.6376 13.8558 0 0 1 22.78
						 776.52 Z" class="st9"/>
		</g>
		<g id="shape27-30" v:mID="27" v:groupContext="shape" transform="translate(255.068,-55.2756)">
			<title>Users.27</title>
			<v:userDefs>
				<v:ud v:nameU="msvShapeCategories" v:prompt="" v:val="VT4(Icon)"/>
				<v:ud v:nameU="visVersion" v:prompt="" v:val="VT0(15):26"/>
			</v:userDefs>
			<path d="M62.31 794.12 A9.10022 9.24583 -180 0 0 71.4 784.88 A9.10022 9.24583 -180 0 0 62.31 775.64 A9.10364 9.24929
						 -180 0 0 53.21 784.88 A9.10534 9.25103 -180 0 0 62.31 794.12 ZM62.31 771.02 A13.6381 13.8563 0 0 1 75.95
						 784.88 A13.6381 13.8563 0 0 1 62.31 798.74 A13.6376 13.8558 0 0 1 48.67 784.88 A13.6376 13.8558 0 0 1 62.31
						 771.02 ZM22.78 836.56 A15.893 16.1473 -180 0 0 40.97 827.32 A19.9936 20.3135 -180 0 0 32.23 809.39 A66881.9
						 67952 -180 0 0 22.78 828.28 A33976.5 34520.1 0 0 1 13.33 809.39 A19.9958 20.3158 -180 0 0 4.59 827.32 A15.8912
						 16.1454 -180 0 0 22.78 836.56 ZM31.76 803.7 A23.9623 24.3457 0 0 1 45.51 827.32 A18.1597 18.4503 0 0 1 22.78
						 841.18 A18.1582 18.4488 0 0 1 0.05 827.32 A23.9724 24.3559 0 0 1 13.79 803.7 A16.3232 16.5844 -180 0 0 16.28
						 805.09 L22.78 818.09 L29.28 805.09 A16.0737 16.3309 -180 0 0 31.76 803.7 ZM71.29 798.21 A23.9623 24.3457
						 0 0 1 85.04 821.83 A18.1597 18.4503 0 0 1 62.31 835.69 A36.1991 36.7783 0 0 1 47.1 832.88 A13.7995 14.0203
						 -180 0 0 48.11 828.22 A31.3332 31.8345 -180 0 0 62.31 831.07 A15.893 16.1473 -180 0 0 80.5 821.83 A19.9889
						 20.3087 -180 0 0 71.76 803.9 A42773.3 43457.7 -180 0 0 62.31 822.79 A47605.7 48367.4 0 0 1 52.86 803.9 A18.1191
						 18.409 -180 0 0 45.37 813.81 A25.7337 26.1454 -180 0 0 42.45 808.86 A21.3884 21.7306 0 0 1 53.32 798.21
						 A16.3232 16.5844 -180 0 0 55.81 799.6 L62.31 812.59 L68.81 799.6 A16.0737 16.3309 -180 0 0 71.29 798.21
						 ZM22.78 799.61 A9.09852 9.2441 -180 0 0 31.87 790.37 A9.10022 9.24583 -180 0 0 22.78 781.14 A9.10364 9.24929
						 -180 0 0 13.69 790.37 A9.10534 9.25103 -180 0 0 22.78 799.61 ZM22.78 776.52 A13.6381 13.8563 0 0 1 36.42
						 790.37 A13.6381 13.8563 0 0 1 22.78 804.23 A13.6376 13.8558 0 0 1 9.14 790.37 A13.6376 13.8558 0 0 1 22.78
						 776.52 Z" class="st9"/>
		</g>
		<g id="group28-32" transform="translate(28.3465,-361.417)" v:mID="28" v:groupContext="group">
			<title>Teacher.28</title>
			<g id="shape29-33" v:mID="29" v:groupContext="shape" transform="translate(17.6858,-9.77464)">
				<title>Sheet.29</title>
				<path d="M77.09 780.8 C79.59 780.8 81.63 783 81.63 785.69 L81.63 837 C81.63 839.69 79.59 841.89 77.09 841.89 L29.93
							 841.89 L36.39 834.56 L74.82 834.56 L74.82 788.13 L6.8 788.13 L6.8 803.04 C5.9 802.91 4.99 802.79 4.08
							 802.79 C2.72 802.79 1.25 803.04 0 803.4 L0 785.69 C0 783 2.04 780.8 4.53 780.8 L77.09 780.8 Z"
						class="st10"/>
			</g>
			<g id="shape30-35" v:mID="30" v:groupContext="shape" transform="translate(12.2419,-23.2148)">
				<title>Sheet.30</title>
				<path d="M9.64 841.89 C4.31 841.89 -0.11 837.25 0 831.5 C0 825.76 4.31 821.12 9.64 821.12 C14.97 821.12 19.28 825.76
							 19.28 831.5 C19.28 837.25 14.97 841.89 9.64 841.89 Z" class="st10"/>
			</g>
			<g id="shape31-37" v:mID="31" v:groupContext="shape">
				<title>Sheet.31</title>
				<path d="M58.95 806.58 C60.2 808.53 59.75 811.34 58.39 812.81 L43.53 829.67 L33.9 841.77 L33.9 841.89 L0 841.89 L2.38
							 831.14 C2.61 830.16 3.17 829.06 3.85 828.33 C6.69 825.76 10.09 823.68 13.94 822.58 C16.55 821.73 19.27
							 821.24 21.88 821.24 C24.49 821.24 27.21 821.85 29.82 822.34 C31.52 822.95 33.22 823.68 34.8 824.54 L51.36
							 805.97 C51.58 805.72 51.81 805.23 52.26 804.99 C54.53 803.52 57.48 804.14 58.95 806.58 Z" class="st10"/>
			</g>
		</g>
		<g id="group32-39" transform="translate(239.477,-361.417)" v:mID="32" v:groupContext="group">
			<title>Teacher.32</title>
			<g id="shape33-40" v:mID="33" v:groupContext="shape" transform="translate(17.6858,-9.77464)">
				<title>Sheet.33</title>
				<path d="M77.09 780.8 C79.59 780.8 81.63 783 81.63 785.69 L81.63 837 C81.63 839.69 79.59 841.89 77.09 841.89 L29.93
							 841.89 L36.39 834.56 L74.82 834.56 L74.82 788.13 L6.8 788.13 L6.8 803.04 C5.9 802.91 4.99 802.79 4.08
							 802.79 C2.72 802.79 1.25 803.04 0 803.4 L0 785.69 C0 783 2.04 780.8 4.53 780.8 L77.09 780.8 Z"
						class="st10"/>
			</g>
			<g id="shape34-42" v:mID="34" v:groupContext="shape" transform="translate(12.2419,-23.2148)">
				<title>Sheet.34</title>
				<path d="M9.64 841.89 C4.31 841.89 -0.11 837.25 0 831.5 C0 825.76 4.31 821.12 9.64 821.12 C14.97 821.12 19.28 825.76
							 19.28 831.5 C19.28 837.25 14.97 841.89 9.64 841.89 Z" class="st10"/>
			</g>
			<g id="shape35-44" v:mID="35" v:groupContext="shape">
				<title>Sheet.35</title>
				<path d="M58.95 806.58 C60.2 808.53 59.75 811.34 58.39 812.81 L43.53 829.67 L33.9 841.77 L33.9 841.89 L0 841.89 L2.38
							 831.14 C2.61 830.16 3.17 829.06 3.85 828.33 C6.69 825.76 10.09 823.68 13.94 822.58 C16.55 821.73 19.27
							 821.24 21.88 821.24 C24.49 821.24 27.21 821.85 29.82 822.34 C31.52 822.95 33.22 823.68 34.8 824.54 L51.36
							 805.97 C51.58 805.72 51.81 805.23 52.26 804.99 C54.53 803.52 57.48 804.14 58.95 806.58 Z" class="st10"/>
			</g>
		</g>
		<g id="shape36-46" v:mID="36" v:groupContext="shape" transform="translate(340.157,-680.315)">
			<title>Rectangle.36</title>
			<desc>Topics for Teaching Programming Marketing Writing</desc>
			<v:userDefs>
				<v:ud v:nameU="visVersion" v:val="VT0(15):26"/>
			</v:userDefs>
			<v:textBlock v:margins="rect(4,4,4,4)" v:tabSpace="42.5197"/>
			<v:textRect cx="96.3779" cy="788.031" width="192.76" height="107.717"/>
			<g id="shadow36-47" v:groupContext="shadow" v:shadowOffsetX="13.2115" v:shadowOffsetY="10.6984" v:shadowType="1"
					v:shadowScale="0.99" transform="matrix(0.99,0,0,0.99,14.1753,-2.81813)" class="st2">
				<rect x="0" y="734.173" width="192.756" height="107.717" rx="8.50394" ry="8.50394" class="st11"/>
			</g>
			<rect x="0" y="734.173" width="192.756" height="107.717" rx="8.50394" ry="8.50394" class="st4"/>
			<text x="4" y="759.48" class="st12" v:langID="11274"><v:paragraph v:spAfter="5" v:bulletSpace="11.3386"/><v:tabList/>Topics For Teaching<v:newlineChar/><v:paragraph
						v:indentFirst="-18" v:indentLeft="18" v:spAfter="5" v:bullet="1" v:bulletSpace="11.3386"/><tspan x="4"
						dy="1.559em" class="st6" v:isBullet="true">·</tspan><tspan class="st6"> </tspan><tspan class="st7">Programming<v:newlineChar/></tspan><tspan
						x="4" dy="1.56em" class="st6" v:isBullet="true">·</tspan><tspan class="st6"> </tspan><tspan class="st7">Marketing<v:newlineChar/></tspan><tspan
						x="4" dy="1.56em" class="st6" v:isBullet="true">·</tspan><tspan class="st6"> </tspan><tspan class="st7">Writing</tspan></text>		</g>
		<g id="shape37-61" v:mID="37" v:groupContext="shape" transform="translate(18,-759.685)">
			<title>Sheet.37</title>
			<desc>Entrepreneur</desc>
			<v:textBlock v:margins="rect(4,4,4,4)" v:tabSpace="42.5197"/>
			<v:textRect cx="65.1968" cy="819.213" width="130.4" height="45.3543"/>
			<rect x="0" y="796.535" width="130.394" height="45.3543" class="st13"/>
			<text x="22.2" y="822.81" class="st14" v:langID="11274"><v:paragraph v:horizAlign="1"/><v:tabList/>Entrepreneur</text>		</g>
		<g id="shape40-64" v:mID="40" v:groupContext="shape" transform="translate(31.0057,-430.866)">
			<title>Sheet.40</title>
			<desc>Teacher</desc>
			<v:textBlock v:margins="rect(4,4,4,4)" v:tabSpace="42.5197"/>
			<v:textRect cx="49.6564" cy="819.213" width="99.32" height="45.3543"/>
			<rect x="0" y="796.535" width="99.3128" height="45.3543" class="st13"/>
			<text x="22.65" y="822.81" class="st14" v:langID="11274"><v:paragraph v:horizAlign="1"/><v:tabList/>Teacher</text>		</g>
		<g id="shape41-67" v:mID="41" v:groupContext="shape" transform="translate(137.43,-430.866)">
			<title>Sheet.41</title>
			<desc>Teacher</desc>
			<v:textBlock v:margins="rect(4,4,4,4)" v:tabSpace="42.5197"/>
			<v:textRect cx="49.6564" cy="819.213" width="99.32" height="45.3543"/>
			<rect x="0" y="796.535" width="99.3128" height="45.3543" class="st13"/>
			<text x="22.65" y="822.81" class="st14" v:langID="11274"><v:paragraph v:horizAlign="1"/><v:tabList/>Teacher</text>		</g>
		<g id="shape42-70" v:mID="42" v:groupContext="shape" transform="translate(245.147,-430.866)">
			<title>Sheet.42</title>
			<desc>Teacher</desc>
			<v:textBlock v:margins="rect(4,4,4,4)" v:tabSpace="42.5197"/>
			<v:textRect cx="49.6564" cy="819.213" width="99.32" height="45.3543"/>
			<rect x="0" y="796.535" width="99.3128" height="45.3543" class="st13"/>
			<text x="22.65" y="822.81" class="st14" v:langID="11274"><v:paragraph v:horizAlign="1"/><v:tabList/>Teacher</text>		</g>
		<g id="shape43-73" v:mID="43" v:groupContext="shape" transform="translate(127.459,-124.724)">
			<title>Sheet.43</title>
			<desc>Students</desc>
			<v:textBlock v:margins="rect(4,4,4,4)" v:tabSpace="42.5197"/>
			<v:textRect cx="49.6564" cy="819.213" width="99.32" height="45.3543"/>
			<rect x="0" y="796.535" width="99.3128" height="45.3543" class="st13"/>
			<text x="20.32" y="822.81" class="st14" v:langID="11274"><v:paragraph v:horizAlign="1"/><v:tabList/>Students</text>		</g>
		<g id="shape44-76" v:mID="44" v:groupContext="shape" v:layerMember="0" transform="translate(1004.76,501.732) rotate(90)">
			<title>One to many</title>
			<v:userDefs>
				<v:ud v:nameU="Scale" v:val="VT0(1):26"/>
				<v:ud v:nameU="AntiScale" v:val="VT0(1):26"/>
				<v:ud v:nameU="visVersion" v:val="VT0(15):26"/>
			</v:userDefs>
			<path d="M181.42 704.28 L145.98 827.72 L184.25 948.06" class="st15"/>
			<path d="M0 827.72 L174.33 827.72" class="st15"/>
		</g>
		<g id="shape45-80" v:mID="45" v:groupContext="shape" v:layerMember="0"
				transform="translate(-761.228,178.583) rotate(-90) scale(-1,1)">
			<title>Line connector</title>
			<v:userDefs>
				<v:ud v:nameU="visVersion" v:val="VT0(15):26"/>
			</v:userDefs>
			<path d="M0 841.89 L187.09 841.89" class="st15"/>
		</g>
		<g id="shape46-83" v:mID="46" v:groupContext="shape" transform="translate(362.835,-348.661)">
			<title>Sheet.46</title>
			<desc>Teacher receives 10% fee from Training Course Income.</desc>
			<v:textBlock v:margins="rect(4,4,4,4)" v:tabSpace="42.5197"/>
			<v:textRect cx="85.0394" cy="788.031" width="170.08" height="107.717"/>
			<g id="shadow46-84" v:groupContext="shadow" v:shadowOffsetX="19.8559" v:shadowOffsetY="6.83693" v:shadowType="1"
					v:shadowScale="1.08" transform="matrix(1.08,0,0,1.08,13.0527,-69.8795)" class="st2">
				<rect x="0" y="734.173" width="170.079" height="107.717" rx="8.50394" ry="8.50394" class="st16"/>
			</g>
			<rect x="0" y="734.173" width="170.079" height="107.717" rx="8.50394" ry="8.50394" class="st17"/>
			<text x="4" y="766.43" class="st18" v:langID="11274"><v:paragraph v:spAfter="9"/><v:tabList/>Teacher receives <v:newlineChar/><tspan
						x="4" dy="1.843em" class="st19">10% fee from <v:newlineChar/></tspan><tspan x="4" dy="1.843em" class="st19">Training Course Income.</tspan></text>		</g>
	</g>
</svg>
