<?xml version="1.0" encoding="UTF-8" standalone="no"?>
<!DOCTYPE svg PUBLIC "-//W3C//DTD SVG 1.1//EN" "http://www.w3.org/Graphics/SVG/1.1/DTD/svg11.dtd">
<!-- Generated by Microsoft Visio, SVG Export stock-market-analysis-using-bar.svg Page-1 -->
<svg xmlns="http://www.w3.org/2000/svg" xmlns:xlink="http://www.w3.org/1999/xlink" xmlns:ev="http://www.w3.org/2001/xml-events"
		xmlns:v="http://schemas.microsoft.com/visio/2003/SVGExtensions/" width="11.6929in" height="8.26772in"
		viewBox="0 0 841.89 595.276" xml:space="preserve" color-interpolation-filters="sRGB" class="st9">
	<v:documentProperties v:langID="3082" v:metric="true" v:viewMarkup="false">
		<v:userDefs>
			<v:ud v:nameU="msvNoAutoConnect" v:val="VT0(1):26"/>
		</v:userDefs>
	</v:documentProperties>

	<style type="text/css">
	<![CDATA[
		.st1 {fill:#262626;stroke:none;stroke-linecap:round;stroke-linejoin:round;stroke-width:0.75}
		.st2 {fill:#d9958f;stroke:#c05046;stroke-linecap:round;stroke-linejoin:round;stroke-width:8.75}
		.st3 {fill:#4bacc6;stroke:#4bacc6;stroke-linecap:round;stroke-linejoin:round;stroke-width:9.24}
		.st4 {fill:#923931;stroke:#612621;stroke-linecap:round;stroke-linejoin:round;stroke-width:5.24}
		.st5 {fill:none;stroke:none;stroke-linecap:round;stroke-linejoin:round;stroke-width:0.75}
		.st6 {fill:#ffffff;font-family:MS Gothic;font-size:2.08333em;font-weight:bold}
		.st7 {fill:#ffffff;font-family:Noto Sans Georgian Bold;font-size:1.33333em;font-weight:bold}
		.st8 {fill:#d8d8d8;font-family:Segoe UI Black;font-size:1.99999em;font-weight:bold}
		.st9 {fill:none;fill-rule:evenodd;font-size:12px;overflow:visible;stroke-linecap:square;stroke-miterlimit:3}
	]]>
	</style>

	<g v:mID="4" v:index="1" v:groupContext="backgroundPage">
		<v:userDefs>
			<v:ud v:nameU="msvVisioCreated" v:prompt="" v:val="VT0(0):26"/>
		</v:userDefs>
		<title>VBackground-1</title>
		<v:pageProperties width="11.6929" height="8.26772" v:drawingScale="0.0393701" v:pageScale="0.0393701" v:drawingUnits="24"
				v:shadowOffsetX="8.50394" v:shadowOffsetY="-8.50394"/>
		<g id="shape1-1" v:mID="1" v:groupContext="shape">
			<title>Solid</title>
			<v:userDefs>
				<v:ud v:nameU="Background" v:val="VT0(0):26"/>
				<v:ud v:nameU="visVersion" v:val="VT0(15):26"/>
				<v:ud v:nameU="msvShapeCategories" v:prompt="" v:val="VT4(DoNotContain)"/>
				<v:ud v:nameU="msvVisioCreated" v:prompt="" v:val="VT0(0):26"/>
			</v:userDefs>
			<rect x="0" y="0" width="841.89" height="595.276" class="st1"/>
		</g>
	</g>
	<g v:mID="0" v:index="2" v:groupContext="foregroundPage">
		<title>Page-1</title>
		<v:pageProperties v:drawingScale="0.0393701" v:pageScale="0.0393701" v:drawingUnits="24" v:shadowOffsetX="8.50394"
				v:shadowOffsetY="-8.50394"/>
		<g id="shape2-3" v:mID="2" v:groupContext="shape" transform="translate(158.74,-138.047)">
			<title>Rectangle</title>
			<v:userDefs>
				<v:ud v:nameU="visVersion" v:val="VT0(15):26"/>
			</v:userDefs>
			<rect x="0" y="222.52" width="99.2126" height="372.756" rx="28.3465" ry="28.3465" class="st2"/>
		</g>
		<g id="shape7-5" v:mID="7" v:groupContext="shape" transform="translate(708.661,66.0472) rotate(90)">
			<title>Simple Arrow</title>
			<v:userDefs>
				<v:ud v:nameU="visVersion" v:val="VT0(15):26"/>
				<v:ud v:nameU="ArrowType" v:prompt="" v:val="VT0(2):26"/>
			</v:userDefs>
			<path d="M0 595.28 L56.69 595.28 L425.2 595.28 L56.69 595.28 L0 595.28 Z" class="st3"/>
		</g>
		<g id="shape8-7" v:mID="8" v:groupContext="shape" transform="translate(790.866,1095.02) rotate(180)">
			<title>Simple Arrow.8</title>
			<v:userDefs>
				<v:ud v:nameU="visVersion" v:val="VT0(15):26"/>
				<v:ud v:nameU="ArrowType" v:prompt="" v:val="VT0(2):26"/>
			</v:userDefs>
			<path d="M0 595.28 L36.85 595.28 L643.46 595.28 L36.85 595.28 L0 595.28 Z" class="st3"/>
		</g>
		<g id="shape11-9" v:mID="11" v:groupContext="shape" transform="translate(637.795,783.213) rotate(180)">
			<title>Simple Arrow.11</title>
			<v:userDefs>
				<v:ud v:nameU="visVersion" v:val="VT0(15):26"/>
				<v:ud v:nameU="ArrowType" v:prompt="" v:val="VT0(2):26"/>
			</v:userDefs>
			<path d="M0 595.28 L35.07 595.28 L113.39 595.28 L35.07 595.28 L0 595.28 Z" class="st3"/>
		</g>
		<g id="shape13-11" v:mID="13" v:groupContext="shape" transform="translate(411.024,-138.047)">
			<title>Rectangle.13</title>
			<v:userDefs>
				<v:ud v:nameU="visVersion" v:val="VT0(15):26"/>
			</v:userDefs>
			<rect x="0" y="222.52" width="99.2126" height="372.756" rx="28.3465" ry="28.3465" class="st2"/>
		</g>
		<g id="shape14-13" v:mID="14" v:groupContext="shape" transform="translate(651.969,-138.047)">
			<title>Rectangle.14</title>
			<v:userDefs>
				<v:ud v:nameU="visVersion" v:val="VT0(15):26"/>
			</v:userDefs>
			<rect x="0" y="222.52" width="99.2126" height="372.756" rx="28.3465" ry="28.3465" class="st2"/>
		</g>
		<g id="shape15-15" v:mID="15" v:groupContext="shape" transform="translate(637.795,939.118) rotate(180)">
			<title>Simple Arrow.15</title>
			<v:userDefs>
				<v:ud v:nameU="visVersion" v:val="VT0(15):26"/>
				<v:ud v:nameU="ArrowType" v:prompt="" v:val="VT0(2):26"/>
			</v:userDefs>
			<path d="M0 595.28 L35.07 595.28 L113.39 595.28 L35.07 595.28 L0 595.28 Z" class="st3"/>
		</g>
		<g id="shape17-17" v:mID="17" v:groupContext="shape" transform="translate(388.346,783.213) rotate(180)">
			<title>Simple Arrow.17</title>
			<v:userDefs>
				<v:ud v:nameU="visVersion" v:val="VT0(15):26"/>
				<v:ud v:nameU="ArrowType" v:prompt="" v:val="VT0(2):26"/>
			</v:userDefs>
			<path d="M0 595.28 L35.07 595.28 L113.39 595.28 L35.07 595.28 L0 595.28 Z" class="st3"/>
		</g>
		<g id="shape18-19" v:mID="18" v:groupContext="shape" transform="translate(388.346,939.118) rotate(180)">
			<title>Simple Arrow.18</title>
			<v:userDefs>
				<v:ud v:nameU="visVersion" v:val="VT0(15):26"/>
				<v:ud v:nameU="ArrowType" v:prompt="" v:val="VT0(2):26"/>
			</v:userDefs>
			<path d="M0 595.28 L35.07 595.28 L113.39 595.28 L35.07 595.28 L0 595.28 Z" class="st3"/>
		</g>
		<g id="shape19-21" v:mID="19" v:groupContext="shape" transform="translate(174.331,-378.992)">
			<title>Circle</title>
			<v:userDefs>
				<v:ud v:nameU="visVersion" v:val="VT0(15):26"/>
			</v:userDefs>
			<path d="M0 561.26 A34.0158 34.0158 0 0 1 68.03 561.26 A34.0158 34.0158 0 1 1 0 561.26 Z" class="st4"/>
		</g>
		<g id="shape20-23" v:mID="20" v:groupContext="shape" transform="translate(174.331,-225.921)">
			<title>Circle.20</title>
			<v:userDefs>
				<v:ud v:nameU="visVersion" v:val="VT0(15):26"/>
			</v:userDefs>
			<path d="M0 561.26 A34.0158 34.0158 0 0 1 68.03 561.26 A34.0158 34.0158 0 1 1 0 561.26 Z" class="st4"/>
		</g>
		<g id="shape21-25" v:mID="21" v:groupContext="shape" transform="translate(425.197,-376.157)">
			<title>Circle.21</title>
			<v:userDefs>
				<v:ud v:nameU="visVersion" v:val="VT0(15):26"/>
			</v:userDefs>
			<path d="M0 561.26 A34.0158 34.0158 0 0 1 68.03 561.26 A34.0158 34.0158 0 1 1 0 561.26 Z" class="st4"/>
		</g>
		<g id="shape22-27" v:mID="22" v:groupContext="shape" transform="translate(425.197,-223.087)">
			<title>Circle.22</title>
			<v:userDefs>
				<v:ud v:nameU="visVersion" v:val="VT0(15):26"/>
			</v:userDefs>
			<path d="M0 561.26 A34.0158 34.0158 0 0 1 68.03 561.26 A34.0158 34.0158 0 1 1 0 561.26 Z" class="st4"/>
		</g>
		<g id="shape23-29" v:mID="23" v:groupContext="shape" transform="translate(668.976,-376.157)">
			<title>Circle.23</title>
			<v:userDefs>
				<v:ud v:nameU="visVersion" v:val="VT0(15):26"/>
			</v:userDefs>
			<path d="M0 561.26 A34.0158 34.0158 0 0 1 68.03 561.26 A34.0158 34.0158 0 1 1 0 561.26 Z" class="st4"/>
		</g>
		<g id="shape24-31" v:mID="24" v:groupContext="shape" transform="translate(668.976,-223.087)">
			<title>Circle.24</title>
			<v:userDefs>
				<v:ud v:nameU="visVersion" v:val="VT0(15):26"/>
			</v:userDefs>
			<path d="M0 561.26 A34.0158 34.0158 0 0 1 68.03 561.26 A34.0158 34.0158 0 1 1 0 561.26 Z" class="st4"/>
		</g>
		<g id="shape27-33" v:mID="27" v:groupContext="shape" transform="translate(14.1732,-481.039)">
			<title>Sheet.27</title>
			<desc>2,4%</desc>
			<v:textBlock v:margins="rect(4,4,4,4)" v:tabSpace="42.5197"/>
			<v:textRect cx="42.5197" cy="574.016" width="85.04" height="42.5197"/>
			<rect x="0" y="552.756" width="85.0394" height="42.5197" class="st5"/>
			<text x="17.32" y="581.52" class="st6" v:langID="11274"><v:paragraph v:horizAlign="1"/><v:tabList/>2,4%</text>		</g>
		<g id="shape28-36" v:mID="28" v:groupContext="shape" transform="translate(14.1732,-116.787)">
			<title>Sheet.28</title>
			<desc>2,1%</desc>
			<v:textBlock v:margins="rect(4,4,4,4)" v:tabSpace="42.5197"/>
			<v:textRect cx="42.5197" cy="574.016" width="85.04" height="42.5197"/>
			<rect x="0" y="552.756" width="85.0394" height="42.5197" class="st5"/>
			<text x="17.32" y="581.52" class="st6" v:langID="11274"><v:paragraph v:horizAlign="1"/><v:tabList/>2,1%</text>		</g>
		<g id="shape29-39" v:mID="29" v:groupContext="shape" transform="translate(167.244,-31.748)">
			<title>Sheet.29</title>
			<desc>Today</desc>
			<v:textBlock v:margins="rect(4,4,4,4)" v:tabSpace="42.5197"/>
			<v:textRect cx="42.5197" cy="574.016" width="85.04" height="42.5197"/>
			<rect x="0" y="552.756" width="85.0394" height="42.5197" class="st5"/>
			<text x="11.03" y="581.52" class="st6" v:langID="11274"><v:paragraph v:horizAlign="1"/><v:tabList/>Today</text>		</g>
		<g id="shape30-42" v:mID="30" v:groupContext="shape" transform="translate(389.764,-31.748)">
			<title>Sheet.30</title>
			<desc>Yesterday</desc>
			<v:textBlock v:margins="rect(4,4,4,4)" v:tabSpace="42.5197"/>
			<v:textRect cx="70.8661" cy="574.016" width="141.74" height="42.5197"/>
			<rect x="0" y="552.756" width="141.732" height="42.5197" class="st5"/>
			<text x="14.18" y="581.52" class="st6" v:langID="11274"><v:paragraph v:horizAlign="1"/><v:tabList/>Yesterday</text>		</g>
		<g id="shape31-45" v:mID="31" v:groupContext="shape" transform="translate(573.591,-31.748)">
			<title>Sheet.31</title>
			<desc>Before Yesterday</desc>
			<v:textBlock v:margins="rect(4,4,4,4)" v:tabSpace="42.5197"/>
			<v:textRect cx="127.063" cy="574.016" width="254.13" height="42.5197"/>
			<rect x="0" y="552.756" width="254.126" height="42.5197" class="st5"/>
			<text x="26.28" y="581.52" class="st6" v:langID="11274"><v:paragraph v:horizAlign="1"/><v:tabList/>Before Yesterday</text>		</g>
		<g id="shape32-48" v:mID="32" v:groupContext="shape" transform="translate(269.291,-407.339)">
			<title>Sheet.32</title>
			<desc>relation N(n)</desc>
			<v:textBlock v:margins="rect(4,4,4,4)" v:tabSpace="42.5197"/>
			<v:textRect cx="63.7795" cy="574.016" width="127.56" height="42.5197"/>
			<rect x="0" y="552.756" width="127.559" height="42.5197" class="st5"/>
			<text x="13.2" y="578.82" class="st7" v:langID="11274"><v:paragraph v:horizAlign="1"/><v:tabList/>relation N(n)</text>		</g>
		<g id="shape33-51" v:mID="33" v:groupContext="shape" transform="translate(270.709,-254.268)">
			<title>Sheet.33</title>
			<desc>relation N(n)</desc>
			<v:textBlock v:margins="rect(4,4,4,4)" v:tabSpace="42.5197"/>
			<v:textRect cx="63.7795" cy="574.016" width="127.56" height="42.5197"/>
			<rect x="0" y="552.756" width="127.559" height="42.5197" class="st5"/>
			<text x="13.2" y="578.82" class="st7" v:langID="11274"><v:paragraph v:horizAlign="1"/><v:tabList/>relation N(n)</text>		</g>
		<g id="shape34-54" v:mID="34" v:groupContext="shape" transform="translate(517.323,-405.921)">
			<title>Sheet.34</title>
			<desc>relation N(n)</desc>
			<v:textBlock v:margins="rect(4,4,4,4)" v:tabSpace="42.5197"/>
			<v:textRect cx="63.7795" cy="574.016" width="127.56" height="42.5197"/>
			<rect x="0" y="552.756" width="127.559" height="42.5197" class="st5"/>
			<text x="13.2" y="578.82" class="st7" v:langID="11274"><v:paragraph v:horizAlign="1"/><v:tabList/>relation N(n)</text>		</g>
		<g id="shape35-57" v:mID="35" v:groupContext="shape" transform="translate(517.323,-255.685)">
			<title>Sheet.35</title>
			<desc>relation N(n)</desc>
			<v:textBlock v:margins="rect(4,4,4,4)" v:tabSpace="42.5197"/>
			<v:textRect cx="63.7795" cy="574.016" width="127.56" height="42.5197"/>
			<rect x="0" y="552.756" width="127.559" height="42.5197" class="st5"/>
			<text x="13.2" y="578.82" class="st7" v:langID="11274"><v:paragraph v:horizAlign="1"/><v:tabList/>relation N(n)</text>		</g>
		<g id="shape36-60" v:mID="36" v:groupContext="shape" transform="translate(102.047,-540.567)">
			<title>Sheet.36</title>
			<desc>Values comparison – Review relations among values</desc>
			<v:textBlock v:margins="rect(4,4,4,4)" v:tabSpace="42.5197"/>
			<v:textRect cx="344.409" cy="574.016" width="688.82" height="42.5197"/>
			<rect x="0" y="552.756" width="688.819" height="42.5197" class="st5"/>
			<text x="37.31" y="581.22" class="st8" v:langID="11274"><v:paragraph v:horizAlign="1"/><v:tabList/>Values comparison – Review relations among values</text>		</g>
	</g>
</svg>
