<?xml version="1.0" encoding="UTF-8" standalone="no"?>
<!DOCTYPE svg PUBLIC "-//W3C//DTD SVG 1.1//EN" "http://www.w3.org/Graphics/SVG/1.1/DTD/svg11.dtd">
<!-- Generated by Microsoft Visio, SVG Export visio-how-to-software-engineers-commercialize-its-products.svg Page-1 -->
<svg xmlns="http://www.w3.org/2000/svg" xmlns:xlink="http://www.w3.org/1999/xlink" xmlns:ev="http://www.w3.org/2001/xml-events"
		xmlns:v="http://schemas.microsoft.com/visio/2003/SVGExtensions/" width="8.26772in" height="11.6929in"
		viewBox="0 0 595.276 841.89" xml:space="preserve" color-interpolation-filters="sRGB" class="st23">
	<v:documentProperties v:langID="11274" v:metric="true" v:viewMarkup="false">
		<v:userDefs>
			<v:ud v:nameU="msvNoAutoConnect" v:val="VT0(1):26"/>
		</v:userDefs>
	</v:documentProperties>

	<style type="text/css">
	<![CDATA[
		.st1 {fill:url(#grad0-5);stroke:none;stroke-linecap:round;stroke-linejoin:round;stroke-width:0.75}
		.st2 {fill:url(#grad0-15);stroke:none;stroke-linecap:round;stroke-linejoin:round;stroke-width:0.75}
		.st3 {fill:#ffffff;stroke:#000000;stroke-dasharray:1.68,1.2;stroke-linecap:round;stroke-linejoin:round;stroke-width:0.24}
		.st4 {fill:#ffffff;stroke:#000000;stroke-dasharray:9.36,2.16,3.6,2.16;stroke-linecap:round;stroke-linejoin:round;stroke-width:0.24}
		.st5 {fill:#ffffff}
		.st6 {stroke:#000000;stroke-linecap:round;stroke-linejoin:round;stroke-width:0.75}
		.st7 {fill:#4d1e1a;font-family:Calibri;font-size:1.16666em}
		.st8 {font-size:1em}
		.st9 {fill:#ffffff;stroke:#000000;stroke-linecap:round;stroke-linejoin:round;stroke-width:0.75}
		.st10 {fill:#000000}
		.st11 {fill:#000000;stroke:#000000;stroke-linecap:round;stroke-linejoin:round;stroke-width:0.75}
		.st12 {fill:#0c0c0c;stroke:#262626;stroke-linecap:round;stroke-linejoin:round;stroke-width:0.75}
		.st13 {fill:#262626;stroke:#000000;stroke-linecap:round;stroke-linejoin:round;stroke-width:0.75}
		.st14 {marker-end:url(#mrkr2-277);stroke:#000000;stroke-linecap:round;stroke-linejoin:round;stroke-width:0.75}
		.st15 {fill:#000000;fill-opacity:1;stroke:#000000;stroke-opacity:1;stroke-width:0.22935779816514}
		.st16 {marker-end:url(#mrkr2-277);stroke:#000000;stroke-dasharray:0.75,1.5;stroke-linecap:round;stroke-linejoin:round;stroke-width:0.75}
		.st17 {stroke:#000000;stroke-dasharray:5.25,3.75;stroke-linecap:round;stroke-linejoin:round;stroke-width:0.75}
		.st18 {marker-start:url(#mrkr2-311);stroke:#000000;stroke-linecap:round;stroke-linejoin:round;stroke-width:0.75}
		.st19 {visibility:visible}
		.st20 {fill:#000000;fill-opacity:0.4;filter:url(#filter_2.6666667461395);stroke:#000000;stroke-linecap:round;stroke-linejoin:round;stroke-opacity:0.4}
		.st21 {fill:#f2dcda;fill-opacity:0.98;stroke:#7f6000;stroke-linecap:round;stroke-linejoin:round;stroke-opacity:0.83;stroke-width:1.75}
		.st22 {fill:#000000;font-family:Microsoft Sans Serif;font-size:1.99999em;font-weight:bold}
		.st23 {fill:none;fill-rule:evenodd;font-size:12px;overflow:visible;stroke-linecap:square;stroke-miterlimit:3}
	]]>
	</style>

	<defs id="Patterns_And_Gradients">
		<linearGradient id="grad0-5" x1="0" y1="0" x2="1" y2="0" gradientTransform="rotate(90 0.5 0.5)">
			<stop offset="0" stop-color="#e6b8b5" stop-opacity="1"/>
			<stop offset="1" stop-color="#d68e89" stop-opacity="1"/>
		</linearGradient>
		<linearGradient id="grad0-15" x1="0" y1="0" x2="1" y2="0" gradientTransform="rotate(180 0.5 0.5)">
			<stop offset="0" stop-color="#e6b8b5" stop-opacity="0.5"/>
			<stop offset="1" stop-color="#d68e89" stop-opacity="0.2"/>
		</linearGradient>
	</defs>
	<defs id="Markers">
		<g id="lend2">
			<path d="M 1 1 L 0 0 L 1 -1 L 1 1 " style="stroke:none"/>
		</g>
		<marker id="mrkr2-277" class="st15" v:arrowType="2" v:arrowSize="2" v:setback="4.36" refX="-4.36" orient="auto"
				markerUnits="strokeWidth" overflow="visible">
			<use xlink:href="#lend2" transform="scale(-4.36,-4.36) "/>
		</marker>
		<marker id="mrkr2-311" class="st15" v:arrowType="2" v:arrowSize="2" v:setback="3.88" refX="3.88" orient="auto"
				markerUnits="strokeWidth" overflow="visible">
			<use xlink:href="#lend2" transform="scale(4.36) "/>
		</marker>
	</defs>
	<defs id="Filters">
		<filter id="filter_2.6666667461395">
			<feGaussianBlur stdDeviation="2.6666667461395"/>
		</filter>
	</defs>
	<g v:mID="4" v:index="1" v:groupContext="backgroundPage">
		<v:userDefs>
			<v:ud v:nameU="msvVisioCreated" v:prompt="" v:val="VT0(0):26"/>
		</v:userDefs>
		<title>VBackground-1</title>
		<v:pageProperties width="8.26772" height="11.6929" v:drawingScale="0.0393701" v:pageScale="0.0393701" v:drawingUnits="24"
				v:shadowOffsetX="8.50394" v:shadowOffsetY="-8.50394"/>
		<g id="group7-1" v:mID="7" v:groupContext="group">
			<v:userDefs>
				<v:ud v:nameU="Background" v:prompt="" v:val="VT0(0):26"/>
				<v:ud v:nameU="visVersion" v:prompt="" v:val="VT0(15):26"/>
				<v:ud v:nameU="msvShapeCategories" v:prompt="" v:val="VT4(DoNotContain)"/>
				<v:ud v:nameU="msvVisioCreated" v:prompt="" v:val="VT0(0):26"/>
			</v:userDefs>
			<title>Verve</title>
			<g id="shape8-2" v:mID="8" v:groupContext="shape">
				<title>Sheet.8</title>
				<path d="M0 0 L595.24 0 L595.24 841.89 L0 0 Z" class="st1"/>
			</g>
			<g id="shape9-6" v:mID="9" v:groupContext="shape" transform="translate(0.0352297,0)">
				<title>Sheet.9</title>
				<path d="M0 0 L595.24 841.89 L0 841.89 L0 0 Z" class="st1"/>
			</g>
			<g id="shape10-9" v:mID="10" v:groupContext="shape" transform="translate(377.098,4.09273E-12)">
				<title>Sheet.10</title>
				<path d="M218.14 544.75 A17630.7 32270.5 -180 0 0 -0 841.89 L218.14 841.89 L218.14 544.75 Z" class="st1"/>
			</g>
			<g id="shape11-12" v:mID="11" v:groupContext="shape" transform="translate(487.753,4.09273E-12)">
				<title>Sheet.11</title>
				<path d="M0 690.01 L107.49 544.75 L107.49 841.89 L0 690.01 Z" class="st2"/>
			</g>
		</g>
	</g>
	<g v:mID="0" v:index="2" v:groupContext="foregroundPage">
		<title>Page-1</title>
		<v:pageProperties v:drawingScale="0.0393701" v:pageScale="0.0393701" v:drawingUnits="24" v:shadowOffsetX="8.50394"
				v:shadowOffsetY="-8.50394"/>
		<v:layer v:name="Flowchart" v:index="0"/>
		<v:layer v:name="Web Site Map Shapes" v:index="1"/>
		<v:layer v:name="Connector" v:index="2"/>
		<g id="shape107-16" v:mID="107" v:groupContext="shape" transform="translate(451.859,-413.858)">
			<title>Single Snip Corner Rectangle</title>
			<v:userDefs>
				<v:ud v:nameU="CTypeTopLeftSnip" v:prompt="" v:val="VT0(0):5"/>
				<v:ud v:nameU="CTypeTopRightSnip" v:prompt="" v:val="VT0(1):5"/>
				<v:ud v:nameU="CTypeBotLeftSnip" v:prompt="" v:val="VT0(1):5"/>
				<v:ud v:nameU="CTypeBotRightSnip" v:prompt="" v:val="VT0(0):5"/>
				<v:ud v:nameU="CornerLockHoriz" v:prompt="" v:val="VT0(0):5"/>
				<v:ud v:nameU="CornerLockVert" v:prompt="" v:val="VT0(0):5"/>
				<v:ud v:nameU="CornerLockDiag" v:prompt="" v:val="VT0(0):5"/>
				<v:ud v:nameU="TopLeftOffset" v:prompt="" v:val="VT0(0):24"/>
				<v:ud v:nameU="TopRightOffset" v:prompt="" v:val="VT0(0.15748031496063):24"/>
				<v:ud v:nameU="BotLeftOffset" v:prompt="" v:val="VT0(0):24"/>
				<v:ud v:nameU="BotRightOffset" v:prompt="" v:val="VT0(0):24"/>
				<v:ud v:nameU="visVersion" v:prompt="" v:val="VT0(15):26"/>
				<v:ud v:nameU="TopRightOffset" v:prompt="" v:val="VT0(0.13066404484675):1"/>
			</v:userDefs>
			<path d="M0 841.89 L94.08 841.89 L94.08 562.16 L84.67 552.76 L0 552.76 L0 841.89 Z" class="st3"/>
		</g>
		<g id="shape106-18" v:mID="106" v:groupContext="shape" transform="translate(28.9818,-291.968)">
			<title>Rounded Rectangle</title>
			<v:userDefs>
				<v:ud v:nameU="CTypeTopLeftSnip" v:prompt="" v:val="VT0(0):5"/>
				<v:ud v:nameU="CTypeTopRightSnip" v:prompt="" v:val="VT0(0):5"/>
				<v:ud v:nameU="CTypeBotLeftSnip" v:prompt="" v:val="VT0(0):5"/>
				<v:ud v:nameU="CTypeBotRightSnip" v:prompt="" v:val="VT0(0):5"/>
				<v:ud v:nameU="CornerLockHoriz" v:prompt="" v:val="VT0(1):5"/>
				<v:ud v:nameU="CornerLockVert" v:prompt="" v:val="VT0(1):5"/>
				<v:ud v:nameU="CornerLockDiag" v:prompt="" v:val="VT0(0):5"/>
				<v:ud v:nameU="TopLeftOffset" v:prompt="" v:val="VT0(0.15748031496063):24"/>
				<v:ud v:nameU="TopRightOffset" v:prompt="" v:val="VT0(0.15748031496063):24"/>
				<v:ud v:nameU="BotLeftOffset" v:prompt="" v:val="VT0(0.15748031496063):24"/>
				<v:ud v:nameU="BotRightOffset" v:prompt="" v:val="VT0(0.15748031496063):24"/>
				<v:ud v:nameU="visVersion" v:prompt="" v:val="VT0(15):26"/>
				<v:ud v:nameU="TopLeftOffset" v:prompt="" v:val="VT0(0.39281840606992):1"/>
				<v:ud v:nameU="TopRightOffset" v:prompt="" v:val="VT0(0.39281840606992):1"/>
				<v:ud v:nameU="BotLeftOffset" v:prompt="" v:val="VT0(0.39281840606992):1"/>
				<v:ud v:nameU="BotRightOffset" v:prompt="" v:val="VT0(0.39281840606992):1"/>
			</v:userDefs>
			<path d="M28.28 841.89 L254.55 841.89 A28.2825 28.2825 -180 0 0 282.83 813.61 L282.83 759.62 A28.2825 28.2825 -180 0
						 0 254.55 731.34 L28.28 731.34 A28.2825 28.2825 -180 0 0 -0 759.62 L0 813.61 A28.2825 28.2825 -180 0 0 28.28
						 841.89 Z" class="st4"/>
		</g>
		<g id="shape1-20" v:mID="1" v:groupContext="shape" v:layerMember="0" transform="translate(153.706,-73.7008)">
			<title>Person</title>
			<desc>Developer</desc>
			<v:userDefs>
				<v:ud v:nameU="visVersion" v:prompt="" v:val="VT0(15):26"/>
				<v:ud v:nameU="ConnGap" v:prompt="" v:val="VT0(0.00012908222537757):24"/>
			</v:userDefs>
			<v:textBlock v:margins="rect(4,4,4,4)" v:tabSpace="42.5197"/>
			<v:textRect cx="11.3386" cy="862.691" width="56.7" height="41.6033"/>
			<path d="M18.32 808.96 L4.36 808.96 C3.35 808.96 2.43 809.29 1.69 809.85 C1.18 810.24 0.75 810.74 0.46 811.31 C0.17 811.89
						 0 812.53 0 813.22 L0 829.4 L3.82 829.4 L3.82 841.89 L18.71 841.89 L18.71 829.4 L22.68 829.4 L22.68 813.22
						 C22.68 812.23 22.34 811.33 21.76 810.61 C21.36 810.1 20.85 809.69 20.26 809.4 C19.68 809.12 19.02 808.96
						 18.32 808.96 ZM17.86 800.95 A6.52195 6.30236 -180 1 0 4.82 800.95 A6.52195 6.30236 -180 1 0 17.86 800.95
						 Z" class="st5"/>
			<path d="M18.32 808.96 L4.36 808.96 C3.35 808.96 2.43 809.29 1.69 809.85 C1.18 810.24 0.75 810.74 0.46 811.31 C0.17 811.89
						 0 812.53 0 813.22 L0 829.4 L3.82 829.4 L3.82 841.89 L18.71 841.89 L18.71 829.4 L22.68 829.4 L22.68 813.22
						 C22.68 812.23 22.34 811.33 21.76 810.61 C21.36 810.1 20.85 809.69 20.26 809.4 C19.68 809.12 19.02 808.96
						 18.32 808.96" class="st6"/>
			<path d="M11.34 841.89 L11.34 831.9" class="st6"/>
			<path d="M3.82 829.4 L3.82 820.78" class="st6"/>
			<path d="M18.71 829.4 L18.71 820.78" class="st6"/>
			<path d="M17.86 800.95 A6.52195 6.30236 -180 1 0 4.82 800.95 A6.52195 6.30236 -180 1 0 17.86 800.95" class="st6"/>
			<text x="-12.07" y="858.49" class="st7" v:langID="2058"><v:paragraph v:horizAlign="1"/><v:tabList/>Develop<tspan
						x="5.42" dy="1.2em" class="st8">er</tspan></text>		</g>
		<g id="group5-29" transform="translate(324.3,-535.3)" v:mID="5" v:groupContext="group" v:layerMember="0">
			<v:userDefs>
				<v:ud v:nameU="visVersion" v:prompt="" v:val="VT0(15):26"/>
				<v:ud v:nameU="ConnGap" v:prompt="" v:val="VT0(0.00012908222537757):24"/>
			</v:userDefs>
			<title>Vendor</title>
			<desc>3th Party Software vendors For example: themeforest.net www.u...</desc>
			<g id="shape6-30" v:mID="6" v:groupContext="shape" v:layerMember="0" transform="translate(23.088,-2.27374E-13)">
				<title>Sheet.6</title>
				<path d="M25.33 841.89 L46.39 841.89 L46.39 821.06 L25.33 821.06 L25.33 841.89 ZM12.66 816.57 L33.72 816.57 L33.72
							 795.73 L12.66 795.73 L12.66 816.57 ZM0 841.89 L21.06 841.89 L21.06 821.06 L0 821.06 L0 841.89 Z"
						class="st9"/>
			</g>
			<g id="shape7-32" v:mID="7" v:groupContext="shape" v:layerMember="0">
				<title>Sheet.7</title>
				<path d="M3.58 829.09 L0 829.08 L0 813.04 A3.74544 3.70458 0 0 1 3.86 809.21 L29.74 809.21 L29.74 813.37 L20.93 813.37
							 A2.94412 2.912 -180 0 0 17.76 816.31 L17.76 841.89 L3.57 841.89 L3.58 829.09 ZM16.8 800.5 A5.8502 5.85446
							 0 1 1 5.1 800.5 A5.8502 5.85446 0 1 1 16.8 800.5 Z" class="st5"/>
				<path d="M11.01 832.72 L11.01 841.89" class="st6"/>
				<path d="M3.58 820.68 L3.58 829.16" class="st6"/>
				<path d="M3.58 829.09 L0 829.08 L0 813.04 A3.74544 3.70458 0 0 1 3.86 809.21 L29.74 809.21 L29.74 813.37 L20.93 813.37
							 A2.94412 2.912 -180 0 0 17.76 816.31 L17.76 841.89 L3.57 841.89 L3.58 829.09" class="st6"/>
				<path d="M16.8 800.5 A5.8502 5.85446 0 1 1 5.1 800.5 A5.8502 5.85446 0 1 1 16.8 800.5" class="st6"/>
			</g>
			<g id="shape5-38" v:mID="5" v:groupContext="groupContent" v:layerMember="0">
				<v:textBlock v:margins="rect(4,4,4,4)" v:tabSpace="42.5197"/>
				<v:textRect cx="34.7383" cy="904.691" width="111.95" height="125.603"/>
				<text x="8.66" y="858.49" class="st7" v:langID="2058"><v:paragraph v:horizAlign="1"/><v:tabList/>3th Party<v:lf/><tspan
							x="-15.38" dy="1.2em" class="st8">Software vendors<v:lf/><v:lf/></tspan><tspan x="-2.29" dy="2.4em"
							class="st8">For example:<v:lf/></tspan><tspan x="-11.95" dy="1.2em" class="st8">themeforest.net<v:newlineChar/></tspan><tspan
							x="-15.65" dy="1.2em" class="st8">www.udemy.com<v:newlineChar/></tspan><tspan x="24.18" dy="1.2em"
							class="st8">etc.</tspan></text>			</g>
		</g>
		<g id="group8-45" transform="translate(466.567,-619.843)" v:mID="8" v:groupContext="group" v:layerMember="0">
			<v:userDefs>
				<v:ud v:nameU="visVersion" v:prompt="" v:val="VT0(15):26"/>
				<v:ud v:nameU="ConnGap" v:prompt="" v:val="VT0(0.00012908222537757):24"/>
			</v:userDefs>
			<title>User</title>
			<desc>User</desc>
			<g id="shape9-46" v:mID="9" v:groupContext="shape" v:layerMember="0" transform="translate(24.2557,-2.27374E-13)">
				<title>Sheet.9</title>
				<path d="M37.78 811.99 A4.79375 4.60289 -180 1 0 28.19 811.99 A4.79375 4.60289 -180 1 0 37.78 811.99 ZM38.12 817.84
							 L27.74 817.84 C26.99 817.84 26.31 818.08 25.76 818.49 C25.38 818.78 25.06 819.14 24.84 819.56 C24.62
							 819.98 24.5 820.45 24.5 820.95 L24.5 832.76 L27.34 832.76 L27.34 841.89 L38.41 841.89 L38.41 832.76
							 L41.36 832.76 L41.36 820.95 C41.36 820.23 41.11 819.57 40.68 819.04 C40.38 818.68 40 818.37 39.57 818.16
							 C39.13 817.95 38.64 817.84 38.12 817.84 Z" class="st5"/>
				<path d="M37.78 811.99 A4.79375 4.60289 -180 1 0 28.19 811.99 A4.79375 4.60289 -180 1 0 37.78 811.99" class="st6"/>
				<path d="M38.12 817.84 L27.74 817.84 C26.99 817.84 26.31 818.08 25.76 818.49 C25.38 818.78 25.06 819.14 24.84 819.56
							 C24.62 819.98 24.5 820.45 24.5 820.95 L24.5 832.76 L27.34 832.76 L27.34 841.89 L38.41 841.89 L38.41
							 832.76 L41.36 832.76 L41.36 820.95 C41.36 820.23 41.11 819.57 40.68 819.04 C40.38 818.68 40 818.37 39.57
							 818.16 C39.13 817.95 38.64 817.84 38.12 817.84" class="st6"/>
				<path d="M32.93 841.89 L32.93 834.6" class="st6"/>
				<path d="M27.34 832.76 L27.34 826.47" class="st6"/>
				<path d="M38.41 832.76 L38.41 826.47" class="st6"/>
				<path d="M0 832.76 L24.5 832.76" class="st6"/>
			</g>
			<g id="shape10-54" v:mID="10" v:groupContext="shape" v:layerMember="0" transform="translate(0,-14.6632)">
				<title>Sheet.10</title>
				<path d="M38.36 812.15 C38.36 811.49 38.13 810.88 37.73 810.4 C37.46 810.07 37.11 809.79 36.72 809.6 C36.32 809.41
							 35.87 809.31 35.4 809.31 L6.45 809.31 C5.76 809.31 5.12 809.53 4.62 809.91 C4.28 810.18 3.99 810.51
							 3.79 810.89 C3.6 811.27 3.49 811.7 3.49 812.15 L3.49 830.54 L38.36 830.54 L38.36 812.15 ZM38.53 832.78
							 L3.22 832.78 L0 838.33 L0 841.89 L41.95 841.89 L41.95 838.34 L38.53 832.78 Z" class="st9"/>
			</g>
			<g id="shape11-56" v:mID="11" v:groupContext="shape" v:layerMember="0" transform="translate(5.80674,-28.2441)">
				<title>Sheet.11</title>
				<v:userDefs>
					<v:ud v:nameU="SurroundingRegionColor" v:prompt="" v:val="VT0(1):26"/>
				</v:userDefs>
				<path d="M30.24 841.89 L30.24 825.73 C30.24 825.62 30.21 825.53 30.16 825.44 C30.1 825.34 30.01 825.25 29.9 825.19
							 C29.81 825.14 29.71 825.12 29.59 825.12 L0.64 825.12 C0.53 825.12 0.43 825.14 0.34 825.19 C0.23 825.25
							 0.14 825.34 0.08 825.44 C0.03 825.53 0 825.62 0 825.73 L0 841.89 L30.24 841.89 Z" class="st9"/>
			</g>
			<g id="shape12-58" v:mID="12" v:groupContext="shape" v:layerMember="0" transform="translate(3.60038,-18.8759)">
				<title>Sheet.12</title>
				<v:userDefs>
					<v:ud v:nameU="SurroundingRegionColor" v:prompt="" v:val="VT0(1):26"/>
				</v:userDefs>
				<path d="M1.75 838.89 L0 841.89 L34.67 841.89 L32.93 838.89 L1.75 838.89 Z" class="st10"/>
			</g>
			<g id="shape8-61" v:mID="8" v:groupContext="groupContent" v:layerMember="0">
				<v:textBlock v:margins="rect(4,4,4,4)" v:tabSpace="42.5197"/>
				<v:textRect cx="32.8084" cy="854.291" width="37.48" height="24.8035"/>
				<text x="19.66" y="858.49" class="st7" v:langID="2058"><v:paragraph v:horizAlign="1"/><v:tabList/>User</text>			</g>
		</g>
		<g id="group13-63" transform="translate(62.3622,-340.157)" v:mID="13" v:groupContext="group" v:layerMember="0">
			<v:userDefs>
				<v:ud v:nameU="visVersion" v:prompt="" v:val="VT0(15):26"/>
				<v:ud v:nameU="ConnGap" v:prompt="" v:val="VT0(0.00012908222537757):24"/>
			</v:userDefs>
			<title>Presentation</title>
			<desc>Online Course</desc>
			<g id="shape14-64" v:mID="14" v:groupContext="shape" v:layerMember="0">
				<title>Sheet.14</title>
				<path d="M34.02 803.64 L25.56 794.65 L0 794.65 L0 841.89 L34.02 841.89 L34.02 803.64 Z" class="st9"/>
			</g>
			<g id="shape15-66" v:mID="15" v:groupContext="shape" v:layerMember="0" transform="translate(13.9026,-17.3911)">
				<title>Sheet.15</title>
				<v:userDefs>
					<v:ud v:nameU="SurroundingRegionColor" v:prompt="" v:val="VT0(1):26"/>
				</v:userDefs>
				<path d="M5.3 837.82 C4.15 836.55 2.68 835.6 0.98 835.12 L0 841.89 L5.3 837.82 Z" class="st11"/>
			</g>
			<g id="shape16-68" v:mID="16" v:groupContext="shape" v:layerMember="0" transform="translate(3.20221,-5.21825)">
				<title>Sheet.16</title>
				<v:userDefs>
					<v:ud v:nameU="SurroundingRegionColor" v:prompt="" v:val="VT0(1):26"/>
				</v:userDefs>
				<path d="M22.11 800.18 L30.3 808.89 L22.11 808.89 L22.11 800.18 ZM14.38 813.11 L28.2 813.11 L28.2 812.15 L14.38 812.15
							 L14.38 813.11 L14.38 813.11 ZM14.38 816.62 L28.2 816.62 L28.2 815.62 L14.38 815.62 L14.38 816.62 L14.38
							 816.62 ZM14.38 819.97 L28.2 819.97 L28.2 818.97 L14.38 818.97 L14.38 819.97 ZM16.69 826.51 L9.25 832.23
							 L10.62 822.71 C5.57 821.93 0.86 825.55 0.1 830.81 C-0.66 836.08 2.82 840.99 7.88 841.78 C12.93 842.57
							 17.65 838.95 18.41 833.68 C18.79 831.05 18.1 828.5 16.69 826.51 Z" class="st10"/>
			</g>
			<g id="shape13-71" v:mID="13" v:groupContext="groupContent" v:layerMember="0">
				<v:textBlock v:margins="rect(4,4,4,4)" v:tabSpace="42.5197"/>
				<v:textRect cx="17.0079" cy="862.691" width="50.7" height="41.6033"/>
				<text x="-1.68" y="858.49" class="st7" v:langID="2058"><v:paragraph v:horizAlign="1"/><v:tabList/>Online<v:lf/><tspan
							x="-2.75" dy="1.2em" class="st8">Course</tspan></text>			</g>
		</g>
		<g id="group25-74" transform="translate(471.254,-539.528)" v:mID="25" v:groupContext="group" v:layerMember="0">
			<v:userDefs>
				<v:ud v:nameU="visVersion" v:prompt="" v:val="VT0(15):26"/>
				<v:ud v:nameU="ConnGap" v:prompt="" v:val="VT0(0.00012908222537757):24"/>
			</v:userDefs>
			<title>Employee</title>
			<desc>Manager</desc>
			<g id="shape26-75" v:mID="26" v:groupContext="shape" v:layerMember="0" transform="translate(2.83773E-13,-12.767)">
				<title>Sheet.26</title>
				<path d="M5.68 839.17 A2.83919 2.72187 -180 1 0 0 839.17 A2.83919 2.72187 -180 1 0 5.68 839.17 ZM11.9 839.17 A2.83919
							 2.72187 -180 1 0 6.22 839.17 A2.83919 2.72187 -180 1 0 11.9 839.17 ZM18.12 839.17 A2.83919 2.72187 -180
							 1 0 12.44 839.17 A2.83919 2.72187 -180 1 0 18.12 839.17 ZM24.34 839.17 A2.83919 2.72187 -180 1 0 18.66
							 839.17 A2.83919 2.72187 -180 1 0 24.34 839.17 ZM30.56 839.17 A2.83919 2.72187 -180 1 0 24.88 839.17
							 A2.83919 2.72187 -180 1 0 30.56 839.17 ZM36.77 839.17 A2.83919 2.72187 -180 1 0 31.1 839.17 A2.83919
							 2.72187 -180 1 0 36.77 839.17 Z" class="st5"/>
				<path d="M5.68 839.17 A2.83919 2.72187 -180 1 0 0 839.17 A2.83919 2.72187 -180 1 0 5.68 839.17" class="st6"/>
				<path d="M11.9 839.17 A2.83919 2.72187 -180 1 0 6.22 839.17 A2.83919 2.72187 -180 1 0 11.9 839.17" class="st6"/>
				<path d="M18.12 839.17 A2.83919 2.72187 -180 1 0 12.44 839.17 A2.83919 2.72187 -180 1 0 18.12 839.17" class="st6"/>
				<path d="M24.34 839.17 A2.83919 2.72187 -180 1 0 18.66 839.17 A2.83919 2.72187 -180 1 0 24.34 839.17" class="st6"/>
				<path d="M30.56 839.17 A2.83919 2.72187 -180 1 0 24.88 839.17 A2.83919 2.72187 -180 1 0 30.56 839.17" class="st6"/>
				<path d="M36.77 839.17 A2.83919 2.72187 -180 1 0 31.1 839.17 A2.83919 2.72187 -180 1 0 36.77 839.17" class="st6"/>
				<path d="M30.09 833.81 L32.46 836.84" class="st6"/>
				<path d="M27.76 834.35 L27.72 836.45" class="st6"/>
				<path d="M19.75 834.12 L20.39 836.66" class="st6"/>
				<path d="M6.68 833.81 L4.32 836.84" class="st6"/>
				<path d="M9.01 834.35 L9.06 836.45" class="st6"/>
				<path d="M17.03 834.12 L16.39 836.66" class="st6"/>
			</g>
			<g id="shape27-89" v:mID="27" v:groupContext="shape" v:layerMember="0" transform="translate(21.6319,0)">
				<title>Sheet.27</title>
				<path d="M31.61 816.9 A4.01142 3.84641 -180 1 0 23.59 816.9 A4.01142 3.84641 -180 1 0 31.61 816.9 ZM31.9 821.79 L23.21
							 821.79 C22.59 821.79 22.01 821.99 21.55 822.34 C21.24 822.57 20.97 822.88 20.79 823.23 C20.61 823.58
							 20.5 823.97 20.5 824.39 L20.5 834.26 L22.88 834.26 L22.88 841.89 L32.14 841.89 L32.14 834.26 L34.61
							 834.26 L34.61 824.39 C34.61 823.79 34.4 823.24 34.04 822.8 C33.79 822.49 33.47 822.24 33.11 822.06 C32.74
							 821.89 32.33 821.79 31.9 821.79 Z" class="st5"/>
				<path d="M31.61 816.9 A4.01142 3.84641 -180 1 0 23.59 816.9 A4.01142 3.84641 -180 1 0 31.61 816.9" class="st6"/>
				<path d="M31.9 821.79 L23.21 821.79 C22.59 821.79 22.01 821.99 21.55 822.34 C21.24 822.57 20.97 822.88 20.79 823.23
							 C20.61 823.58 20.5 823.97 20.5 824.39 L20.5 834.26 L22.88 834.26 L22.88 841.89 L32.14 841.89 L32.14
							 834.26 L34.61 834.26 L34.61 824.39 C34.61 823.79 34.4 823.24 34.04 822.8 C33.79 822.49 33.47 822.24
							 33.11 822.06 C32.74 821.89 32.33 821.79 31.9 821.79" class="st6"/>
				<path d="M27.56 841.89 L27.56 835.79" class="st6"/>
				<path d="M22.88 834.26 L22.88 829" class="st6"/>
				<path d="M32.14 834.26 L32.14 829" class="st6"/>
				<path d="M0 834.26 L20.5 834.26" class="st6"/>
			</g>
			<g id="shape28-97" v:mID="28" v:groupContext="shape" v:layerMember="0" transform="translate(5.06998,-20.2846)">
				<title>Sheet.28</title>
				<path d="M7.17 838.46 A3.58279 3.43474 -180 1 0 0 838.46 A3.58279 3.43474 -180 1 0 7.17 838.46 ZM16.9 838.46 A3.58279
							 3.43474 -180 1 0 9.73 838.46 A3.58279 3.43474 -180 1 0 16.9 838.46 ZM26.63 838.46 A3.58279 3.43474 -180
							 1 0 19.47 838.46 A3.58279 3.43474 -180 1 0 26.63 838.46 ZM21.97 823.23 A8.65276 8.29523 -180 1 0 4.66
							 823.23 A8.65276 8.29523 -180 1 0 21.97 823.23 Z" class="st10"/>
				<path d="M7.17 838.46 A3.58279 3.43474 -180 1 0 0 838.46 A3.58279 3.43474 -180 1 0 7.17 838.46" class="st6"/>
				<path d="M16.9 838.46 A3.58279 3.43474 -180 1 0 9.73 838.46 A3.58279 3.43474 -180 1 0 16.9 838.46" class="st6"/>
				<path d="M26.63 838.46 A3.58279 3.43474 -180 1 0 19.47 838.46 A3.58279 3.43474 -180 1 0 26.63 838.46" class="st6"/>
				<path d="M21.5 835.36 L18.12 830.13" class="st6"/>
				<path d="M13.32 835.02 L13.32 831.52" class="st6"/>
				<path d="M5.13 835.36 L8.52 830.13" class="st6"/>
				<path d="M21.97 823.23 A8.65276 8.29523 -180 1 0 4.66 823.23 A8.65276 8.29523 -180 1 0 21.97 823.23" class="st6"/>
			</g>
			<g id="shape25-106" v:mID="25" v:groupContext="groupContent" v:layerMember="0">
				<v:textBlock v:margins="rect(4,4,4,4)" v:tabSpace="42.5197"/>
				<v:textRect cx="28.1215" cy="854.291" width="62.35" height="24.8035"/>
				<text x="2.53" y="858.49" class="st7" v:langID="2058"><v:paragraph v:horizAlign="1"/><v:tabList/>Manager</text>			</g>
		</g>
		<g id="group29-108" transform="translate(471.254,-459.213)" v:mID="29" v:groupContext="group" v:layerMember="0">
			<v:userDefs>
				<v:ud v:nameU="visVersion" v:prompt="" v:val="VT0(15):26"/>
				<v:ud v:nameU="ConnGap" v:prompt="" v:val="VT0(0.00012908222537757):24"/>
			</v:userDefs>
			<title>Executive</title>
			<desc>Executive</desc>
			<g id="shape30-109" v:mID="30" v:groupContext="shape" v:layerMember="0" transform="translate(21.6319,0)">
				<title>Sheet.30</title>
				<path d="M31.61 816.9 A4.01142 3.84641 -180 1 0 23.59 816.9 A4.01142 3.84641 -180 1 0 31.61 816.9 ZM31.9 821.79 L23.21
							 821.79 C22.59 821.79 22.01 821.99 21.55 822.34 C21.24 822.57 20.97 822.88 20.79 823.23 C20.61 823.58
							 20.5 823.97 20.5 824.39 L20.5 834.26 L22.88 834.26 L22.88 841.89 L32.14 841.89 L32.14 834.26 L34.61
							 834.26 L34.61 824.39 C34.61 823.79 34.4 823.24 34.04 822.8 C33.79 822.49 33.47 822.24 33.11 822.06 C32.74
							 821.89 32.33 821.79 31.9 821.79 Z" class="st5"/>
				<path d="M31.61 816.9 A4.01142 3.84641 -180 1 0 23.59 816.9 A4.01142 3.84641 -180 1 0 31.61 816.9" class="st6"/>
				<path d="M31.9 821.79 L23.21 821.79 C22.59 821.79 22.01 821.99 21.55 822.34 C21.24 822.57 20.97 822.88 20.79 823.23
							 C20.61 823.58 20.5 823.97 20.5 824.39 L20.5 834.26 L22.88 834.26 L22.88 841.89 L32.14 841.89 L32.14
							 834.26 L34.61 834.26 L34.61 824.39 C34.61 823.79 34.4 823.24 34.04 822.8 C33.79 822.49 33.47 822.24
							 33.11 822.06 C32.74 821.89 32.33 821.79 31.9 821.79" class="st6"/>
				<path d="M27.56 841.89 L27.56 835.79" class="st6"/>
				<path d="M22.88 834.26 L22.88 829" class="st6"/>
				<path d="M32.14 834.26 L32.14 829" class="st6"/>
				<path d="M0 834.26 L20.5 834.26" class="st6"/>
			</g>
			<g id="shape31-117" v:mID="31" v:groupContext="shape" v:layerMember="0" transform="translate(-2.8777E-13,-12.767)">
				<title>Sheet.31</title>
				<path d="M12.24 830.94 A3.58279 3.43474 -180 1 0 5.07 830.94 A3.58279 3.43474 -180 1 0 12.24 830.94 ZM21.97 830.94
							 A3.58279 3.43474 -180 1 0 14.8 830.94 A3.58279 3.43474 -180 1 0 21.97 830.94 ZM31.7 830.94 A3.58278
							 3.43474 -180 1 0 24.54 830.94 A3.58278 3.43474 -180 1 0 31.7 830.94 ZM5.68 839.17 A2.83919 2.72187 -180
							 1 0 0 839.17 A2.83919 2.72187 -180 1 0 5.68 839.17 ZM11.9 839.17 A2.83919 2.72187 -180 1 0 6.22 839.17
							 A2.83919 2.72187 -180 1 0 11.9 839.17 ZM18.12 839.17 A2.83919 2.72187 -180 1 0 12.44 839.17 A2.83919
							 2.72187 -180 1 0 18.12 839.17 ZM24.34 839.17 A2.83919 2.72187 -180 1 0 18.66 839.17 A2.83919 2.72187
							 -180 1 0 24.34 839.17 ZM30.56 839.17 A2.83919 2.72187 -180 1 0 24.88 839.17 A2.83919 2.72187 -180 1
							 0 30.56 839.17 ZM36.77 839.17 A2.83919 2.72187 -180 1 0 31.1 839.17 A2.83919 2.72187 -180 1 0 36.77
							 839.17 Z" class="st10"/>
				<path d="M12.24 830.94 A3.58279 3.43474 -180 1 0 5.07 830.94 A3.58279 3.43474 -180 1 0 12.24 830.94" class="st6"/>
				<path d="M21.97 830.94 A3.58279 3.43474 -180 1 0 14.8 830.94 A3.58279 3.43474 -180 1 0 21.97 830.94" class="st6"/>
				<path d="M31.7 830.94 A3.58278 3.43474 -180 1 0 24.54 830.94 A3.58278 3.43474 -180 1 0 31.7 830.94" class="st6"/>
				<path d="M26.57 827.84 L23.19 822.61" class="st6"/>
				<path d="M18.39 827.5 L18.39 824" class="st6"/>
				<path d="M10.2 827.84 L13.59 822.61" class="st6"/>
				<path d="M5.68 839.17 A2.83919 2.72187 -180 1 0 0 839.17 A2.83919 2.72187 -180 1 0 5.68 839.17" class="st6"/>
				<path d="M11.9 839.17 A2.83919 2.72187 -180 1 0 6.22 839.17 A2.83919 2.72187 -180 1 0 11.9 839.17" class="st6"/>
				<path d="M18.12 839.17 A2.83919 2.72187 -180 1 0 12.44 839.17 A2.83919 2.72187 -180 1 0 18.12 839.17" class="st6"/>
				<path d="M24.34 839.17 A2.83919 2.72187 -180 1 0 18.66 839.17 A2.83919 2.72187 -180 1 0 24.34 839.17" class="st6"/>
				<path d="M30.56 839.17 A2.83919 2.72187 -180 1 0 24.88 839.17 A2.83919 2.72187 -180 1 0 30.56 839.17" class="st6"/>
				<path d="M36.77 839.17 A2.83919 2.72187 -180 1 0 31.1 839.17 A2.83919 2.72187 -180 1 0 36.77 839.17" class="st6"/>
				<path d="M30.09 833.81 L32.46 836.84" class="st6"/>
				<path d="M27.76 834.35 L27.72 836.45" class="st6"/>
				<path d="M19.75 834.12 L20.39 836.66" class="st6"/>
				<path d="M6.68 833.81 L4.32 836.84" class="st6"/>
				<path d="M9.01 834.35 L9.06 836.45" class="st6"/>
				<path d="M17.03 834.12 L16.39 836.66" class="st6"/>
			</g>
			<g id="shape32-137" v:mID="32" v:groupContext="shape" v:layerMember="0" transform="translate(9.73436,-30.6536)">
				<title>Sheet.32</title>
				<ellipse cx="8.65276" cy="833.595" rx="8.65276" ry="8.29523" class="st9"/>
			</g>
			<g id="shape29-139" v:mID="29" v:groupContext="groupContent" v:layerMember="0">
				<v:textBlock v:margins="rect(4,4,4,4)" v:tabSpace="42.5197"/>
				<v:textRect cx="28.1215" cy="854.291" width="65.51" height="24.8035"/>
				<text x="0.96" y="858.49" class="st7" v:langID="2058"><v:paragraph v:horizAlign="1"/><v:tabList/>Executive</text>			</g>
		</g>
		<g id="group38-141" transform="translate(245.84,-535.3)" v:mID="38" v:groupContext="group" v:layerMember="0">
			<v:userDefs>
				<v:ud v:nameU="visVersion" v:prompt="" v:val="VT0(15):26"/>
				<v:ud v:nameU="ConnGap" v:prompt="" v:val="VT0(0.00012908222537757):24"/>
			</v:userDefs>
			<title>Income</title>
			<desc>Money Income</desc>
			<g id="shape39-142" v:mID="39" v:groupContext="shape" v:layerMember="0" transform="translate(17.1359,-14.8825)">
				<title>Sheet.39</title>
				<path d="M11.28 809.53 L0 820.46 L0 832.72 L6.38 826.54 L6.38 841.89 L16.17 841.89 L16.17 826.54 L22.55 832.73 L22.55
							 820.46 L11.28 809.53 Z" class="st9"/>
			</g>
			<g id="shape40-144" v:mID="40" v:groupContext="shape" v:layerMember="0" transform="translate(0.000715149,-1.29165)">
				<title>Sheet.40</title>
				<v:userDefs>
					<v:ud v:nameU="SurroundingRegionColor" v:prompt="" v:val="VT0(1):26"/>
				</v:userDefs>
				<path d="M0 838.31 A16.5226 15.9817 -180 0 0 10.38 839.37 L10.38 840.7 A18.2751 17.6768 -180 0 0 23.57 840.7 L23.46
							 834.74 L26.8 834.06 L26.8 826.11 L13.61 826.11 L13.65 829.86 L13.1 829.96 L13.06 821.77 L0 821.77 L0
							 838.31 Z" class="st10"/>
			</g>
			<g id="shape41-147" v:mID="41" v:groupContext="shape" v:layerMember="0" transform="translate(0.0011621,0.000326176)">
				<title>Sheet.41</title>
				<path d="M10.39 837.68 C9.32 837.9 8.01 838.03 6.61 838.03 C2.96 838.03 0 837.17 0 836.11 L0 837.48 C0 838.54 2.96
							 839.41 6.61 839.41 C8.01 839.41 9.32 839.28 10.39 839.06 L10.39 837.68 ZM10.39 834.94 C9.32 835.16 8.01
							 835.29 6.61 835.29 C2.96 835.29 0 834.43 0 833.36 L0 834.74 C0 835.8 2.96 836.66 6.61 836.66 C8.01 836.66
							 9.32 836.53 10.39 836.31 L10.39 834.94 ZM10.39 833.57 L10.39 832.19 C9.32 832.41 8.01 832.54 6.61 832.54
							 C2.96 832.54 0 831.68 0 830.61 L0 831.99 C0 833.05 2.96 833.91 6.61 833.91 C8.01 833.91 9.32 833.78
							 10.39 833.57 ZM13.21 828.78 L13.21 827.87 C13.21 828.93 10.25 829.79 6.61 829.79 C2.96 829.79 0 828.93
							 0 827.87 L0 829.24 C0 830.3 2.96 831.17 6.61 831.17 C8.01 831.17 9.32 831.04 10.39 830.82 L10.39 830.36
							 C10.39 829.71 11.51 829.13 13.21 828.78 ZM6.61 827.05 C2.96 827.05 0 826.19 0 825.12 L0 826.5 C0 827.56
							 2.96 828.42 6.61 828.42 C10.25 828.42 13.21 827.56 13.21 826.5 L13.21 825.12 C13.21 826.19 10.25 827.05
							 6.61 827.05 ZM6.61 824.3 C2.96 824.3 0 823.44 0 822.38 L0 823.75 C0 824.81 2.96 825.67 6.61 825.67 C10.25
							 825.67 13.21 824.81 13.21 823.75 L13.21 822.38 C13.21 823.44 10.25 824.3 6.61 824.3 ZM6.61 817.71 C2.96
							 817.71 0 818.57 0 819.63 L0 821.01 C0 822.07 2.96 822.93 6.61 822.93 C10.25 822.93 13.21 822.07 13.21
							 821.01 L13.21 819.63 C13.21 818.57 10.25 817.71 6.61 817.71 ZM17 840.52 C13.35 840.52 10.39 839.66 10.39
							 838.59 L10.39 839.97 C10.39 841.03 13.35 841.89 17 841.89 C20.65 841.89 23.6 841.03 23.6 839.97 L23.6
							 838.59 C23.6 839.66 20.65 840.52 17 840.52 ZM17 837.77 C13.35 837.77 10.39 836.91 10.39 835.85 L10.39
							 837.22 C10.39 838.28 13.35 839.15 17 839.15 C20.65 839.15 23.6 838.29 23.6 837.22 L23.6 835.85 C23.6
							 836.91 20.65 837.77 17 837.77 ZM17 835.02 C13.35 835.02 10.39 834.16 10.39 833.1 L10.39 834.47 C10.39
							 835.54 13.35 836.4 17 836.4 C20.65 836.4 23.6 835.54 23.6 834.47 L23.6 833.1 C23.6 834.16 20.65 835.02
							 17 835.02 ZM17 828.43 C13.35 828.43 10.39 829.29 10.39 830.36 L10.39 831.73 C10.39 832.79 13.35 833.66
							 17 833.66 C20.65 833.66 23.6 832.8 23.6 831.73 L23.6 830.36 C23.6 829.29 20.65 828.43 17 828.43 ZM22.69
							 829.38 C25.12 829.1 26.84 828.4 26.84 827.59 L26.84 826.22 C26.84 827.28 23.89 828.14 20.24 828.14 C16.59
							 828.14 13.63 827.28 13.63 826.22 L13.63 827.59 C13.63 827.95 13.97 828.28 14.55 828.57 C15.31 828.48
							 16.13 828.43 17 828.43 C19.42 828.43 21.54 828.81 22.69 829.38 ZM20.24 821.55 C16.59 821.55 13.63 822.42
							 13.63 823.48 L13.63 824.85 C13.63 825.91 16.59 826.78 20.24 826.78 C23.89 826.78 26.84 825.92 26.84
							 824.85 L26.84 823.48 C26.84 822.42 23.89 821.55 20.24 821.55 ZM23.6 833.37 L23.6 834.74 C25.54 834.41
							 26.84 833.79 26.84 833.09 L26.84 831.71 C26.84 832.42 25.54 833.03 23.6 833.37 ZM23.6 831.99 C25.54
							 831.66 26.84 831.04 26.84 830.34 L26.84 828.97 C26.84 829.67 25.54 830.29 23.6 830.62 L23.6 831.99 Z"
						class="st5"/>
				<path d="M10.39 837.68 C9.32 837.9 8.01 838.03 6.61 838.03 C2.96 838.03 0 837.17 0 836.11 L0 837.48 C0 838.54 2.96
							 839.41 6.61 839.41 C8.01 839.41 9.32 839.28 10.39 839.06 L10.39 837.68" class="st6"/>
				<path d="M10.39 834.94 C9.32 835.16 8.01 835.29 6.61 835.29 C2.96 835.29 0 834.43 0 833.36 L0 834.74 C0 835.8 2.96
							 836.66 6.61 836.66 C8.01 836.66 9.32 836.53 10.39 836.31 L10.39 834.94" class="st6"/>
				<path d="M0 836.11 L0 821.01" class="st6"/>
				<path d="M10.39 833.57 L10.39 832.19 C9.32 832.41 8.01 832.54 6.61 832.54 C2.96 832.54 0 831.68 0 830.61 L0 831.99
							 C0 833.05 2.96 833.91 6.61 833.91 C8.01 833.91 9.32 833.78 10.39 833.57" class="st6"/>
				<path d="M13.21 828.78 L13.21 827.87 C13.21 828.93 10.25 829.79 6.61 829.79 C2.96 829.79 0 828.93 0 827.87 L0 829.24
							 C0 830.3 2.96 831.17 6.61 831.17 C8.01 831.17 9.32 831.04 10.39 830.82 L10.39 830.36 C10.39 829.71 11.51
							 829.13 13.21 828.78" class="st6"/>
				<path d="M6.61 827.05 C2.96 827.05 0 826.19 0 825.12 L0 826.5 C0 827.56 2.96 828.42 6.61 828.42 C10.25 828.42 13.21
							 827.56 13.21 826.5 L13.21 825.12 C13.21 826.19 10.25 827.05 6.61 827.05" class="st6"/>
				<path d="M6.61 824.3 C2.96 824.3 0 823.44 0 822.38 L0 823.75 C0 824.81 2.96 825.67 6.61 825.67 C10.25 825.67 13.21
							 824.81 13.21 823.75 L13.21 822.38 C13.21 823.44 10.25 824.3 6.61 824.3" class="st6"/>
				<path d="M6.61 817.71 C2.96 817.71 0 818.57 0 819.63 L0 821.01 C0 822.07 2.96 822.93 6.61 822.93 C10.25 822.93 13.21
							 822.07 13.21 821.01 L13.21 819.63 C13.21 818.57 10.25 817.71 6.61 817.71" class="st6"/>
				<path d="M17 840.52 C13.35 840.52 10.39 839.66 10.39 838.59 L10.39 839.97 C10.39 841.03 13.35 841.89 17 841.89 C20.65
							 841.89 23.6 841.03 23.6 839.97 L23.6 838.59 C23.6 839.66 20.65 840.52 17 840.52" class="st6"/>
				<path d="M17 837.77 C13.35 837.77 10.39 836.91 10.39 835.85 L10.39 837.22 C10.39 838.28 13.35 839.15 17 839.15 C20.65
							 839.15 23.6 838.29 23.6 837.22 L23.6 835.85 C23.6 836.91 20.65 837.77 17 837.77" class="st6"/>
				<path d="M10.39 838.59 L10.39 831.73" class="st6"/>
				<path d="M17 835.02 C13.35 835.02 10.39 834.16 10.39 833.1 L10.39 834.47 C10.39 835.54 13.35 836.4 17 836.4 C20.65
							 836.4 23.6 835.54 23.6 834.47 L23.6 833.1 C23.6 834.16 20.65 835.02 17 835.02" class="st6"/>
				<path d="M17 828.43 C13.35 828.43 10.39 829.29 10.39 830.36 L10.39 831.73 C10.39 832.79 13.35 833.66 17 833.66 C20.65
							 833.66 23.6 832.8 23.6 831.73 L23.6 830.36 C23.6 829.29 20.65 828.43 17 828.43" class="st6"/>
				<path d="M13.21 827.87 L13.21 821.01" class="st6"/>
				<path d="M22.69 829.38 C25.12 829.1 26.84 828.4 26.84 827.59 L26.84 826.22 C26.84 827.28 23.89 828.14 20.24 828.14
							 C16.59 828.14 13.63 827.28 13.63 826.22 L13.63 827.59 C13.63 827.95 13.97 828.28 14.55 828.57 C15.31
							 828.48 16.13 828.43 17 828.43 C19.42 828.43 21.54 828.81 22.69 829.38" class="st6"/>
				<path d="M13.63 824.85 L13.63 828.68" class="st6"/>
				<path d="M20.24 821.55 C16.59 821.55 13.63 822.42 13.63 823.48 L13.63 824.85 C13.63 825.91 16.59 826.78 20.24 826.78
							 C23.89 826.78 26.84 825.92 26.84 824.85 L26.84 823.48 C26.84 822.42 23.89 821.55 20.24 821.55"
						class="st6"/>
				<path d="M23.6 833.37 L23.6 834.74 C25.54 834.41 26.84 833.79 26.84 833.09 L26.84 831.71 C26.84 832.42 25.54 833.03
							 23.6 833.37" class="st6"/>
				<path d="M23.6 831.99 C25.54 831.66 26.84 831.04 26.84 830.34 L26.84 828.97 C26.84 829.67 25.54 830.29 23.6 830.62
							 L23.6 831.99" class="st6"/>
				<path d="M23.6 838.59 L23.6 831.73" class="st6"/>
				<path d="M26.84 831.71 L26.84 824.85" class="st6"/>
			</g>
			<g id="shape38-170" v:mID="38" v:groupContext="groupContent" v:layerMember="0">
				<v:textBlock v:margins="rect(4,4,4,4)" v:tabSpace="42.5197"/>
				<v:textRect cx="19.8425" cy="862.691" width="53.51" height="41.6033"/>
				<text x="-0.16" y="858.49" class="st7" v:langID="2058"><v:paragraph v:horizAlign="1"/><v:tabList/>Money<v:lf/><tspan
							x="-1.32" dy="1.2em" class="st8">Income</tspan></text>			</g>
		</g>
		<g id="group42-173" transform="translate(144.567,-444.567)" v:mID="42" v:groupContext="group" v:layerMember="0">
			<v:userDefs>
				<v:ud v:nameU="visVersion" v:prompt="" v:val="VT0(15):26"/>
				<v:ud v:nameU="ConnGap" v:prompt="" v:val="VT0(0.00012908222537757):24"/>
			</v:userDefs>
			<title>Submit</title>
			<desc>Publish</desc>
			<g id="shape43-174" v:mID="43" v:groupContext="shape" v:layerMember="0" transform="translate(6.44011,-1.0833)">
				<title>Sheet.43</title>
				<path d="M33.42 805.29 L25.11 796.67 L0 796.67 L0 841.89 L33.42 841.89 L33.42 805.29 Z" class="st9"/>
			</g>
			<g id="shape44-176" v:mID="44" v:groupContext="shape" v:layerMember="0" transform="translate(12.6519,-3.70912)">
				<title>Sheet.44</title>
				<v:userDefs>
					<v:ud v:nameU="SurroundingRegionColor" v:prompt="" v:val="VT0(1):26"/>
				</v:userDefs>
				<path d="M18.66 799.6 L26.7 807.88 L18.66 807.88 L18.66 799.6 ZM0 807.55 L8.29 807.55 L8.29 806.49 L0 806.49 L0 807.55
							 ZM0 812.38 L8.29 812.38 L8.29 811.33 L0 811.33 L-0 812.38 ZM0 817.22 L20.99 817.22 L20.99 816.17 L0
							 816.17 L-0 817.22 ZM0 822.06 L20.99 822.06 L20.99 821 L0 821 L-0 822.06 ZM0 826.9 L20.99 826.9 L20.99
							 825.84 L0 825.84 L-0 826.9 ZM12.55 835.8 L12.55 830.79 L8.35 830.79 L8.35 835.8 L4.5 835.8 L10.5 841.89
							 L16.49 835.8 L12.55 835.8 Z" class="st10"/>
			</g>
			<g id="shape45-179" v:mID="45" v:groupContext="shape" v:layerMember="0">
				<title>Sheet.45</title>
				<path d="M11.62 829.7 L0 829.7 L0 841.89 L46.3 841.89 L46.3 829.7 L34.77 829.7 L34.77 835.8 L25.76 835.8 L23.15 838.18
							 L20.58 835.8 L11.62 835.8 L11.62 829.7 ZM39.86 829.7 L46.3 829.7 L46.3 828.64 L39.86 823.86 L39.86 829.7
							 ZM6.44 823.79 L0 828.64 L0 829.7 L6.44 829.7 L6.44 823.79 Z" class="st9"/>
			</g>
			<g id="shape42-181" v:mID="42" v:groupContext="groupContent" v:layerMember="0">
				<v:textBlock v:margins="rect(4,4,4,4)" v:tabSpace="42.5197"/>
				<v:textRect cx="23.1496" cy="854.291" width="52.37" height="24.8035"/>
				<text x="2.55" y="858.49" class="st7" v:langID="2058"><v:paragraph v:horizAlign="1"/><v:tabList/>Publish</text>			</g>
		</g>
		<g id="group46-183" transform="translate(145.798,-198.425)" v:mID="46" v:groupContext="group" v:layerMember="0">
			<v:userDefs>
				<v:ud v:nameU="visVersion" v:prompt="" v:val="VT0(15):26"/>
				<v:ud v:nameU="ConnGap" v:prompt="" v:val="VT0(0.00012908222537757):24"/>
			</v:userDefs>
			<title>Analyze</title>
			<desc>Investigate Analyze Work</desc>
			<g id="shape47-184" v:mID="47" v:groupContext="shape" v:layerMember="0" transform="translate(0,-14.4131)">
				<title>Sheet.47</title>
				<path d="M21.49 816.17 L16.14 810.48 L0 810.48 L0 840.39 L12.34 840.39 L14.04 841.89 L23.65 841.89 L23.65 829.92
							 L21.5 828.73 L21.49 816.17 Z" class="st9"/>
			</g>
			<g id="shape48-186" v:mID="48" v:groupContext="shape" v:layerMember="0" transform="translate(3.9936,-20.5836)">
				<title>Sheet.48</title>
				<v:userDefs>
					<v:ud v:nameU="SurroundingRegionColor" v:prompt="" v:val="VT0(1):26"/>
				</v:userDefs>
				<path d="M12 816.85 L17.16 822.36 L12 822.36 L12 816.85 ZM0 822.71 L5.33 822.71 L5.33 822.08 L0 822.08 L-0 822.71
							 ZM0 826.28 L5.33 826.28 L5.33 825.66 L0 825.66 L-0 826.28 ZM0 829.85 L13.49 829.85 L13.49 829.23 L0
							 829.23 L-0 829.85 ZM0 833.42 L13.49 833.42 L13.49 832.8 L0 832.8 L-0 833.42 ZM0 837 L13.49 837 L13.49
							 836.37 L0 836.37 L-0 837 ZM8.17 840.53 L8.76 840.53 L8.76 839.9 L8.17 839.9 L8.16 840.53 L8.17 840.53
							 ZM10.3 841.89 L15.79 841.89 L15.79 840.89 L10.3 840.89 L10.3 841.89 Z" class="st10"/>
			</g>
			<g id="shape49-189" v:mID="49" v:groupContext="shape" v:layerMember="0" transform="translate(12.0855,-2.27374E-13)">
				<title>Sheet.49</title>
				<path d="M10.88 832.36 L17.3 825.65 C17.46 824.95 17.55 824.21 17.55 823.46 C17.55 818.4 13.62 814.29 8.77 814.29
							 C3.93 814.29 0 818.4 0 823.46 C0 828.52 3.93 832.62 8.77 832.62 C9.5 832.62 10.2 832.53 10.88 832.36
							 ZM13.58 828.48 C10.93 831.25 6.62 831.25 3.97 828.48 C1.32 825.71 1.32 821.21 3.97 818.44 C6.62 815.67
							 10.93 815.67 13.58 818.44 C16.23 821.21 16.23 825.71 13.58 828.48 ZM17.3 825.65 L10.84 832.4 C11.8 833.4
							 12.19 834.17 13.79 832.49 C16.17 829.98 14.4 832.11 15.3 833.06 C22.68 840.87 24.09 843.19 25.96 841.23
							 L25.96 841.23 C25.97 841.23 25.97 841.23 25.97 841.23 C25.97 841.22 25.97 841.22 25.97 841.22 C27.51
							 839.62 25.03 837.67 17.97 830.27 C17.07 829.32 15.02 831.18 17.42 828.69 C19.03 827.02 18.3 826.61 17.34
							 825.61 L17.3 825.65 Z" class="st9"/>
			</g>
			<g id="shape46-191" v:mID="46" v:groupContext="groupContent" v:layerMember="0">
				<v:textBlock v:margins="rect(4,4,4,4)" v:tabSpace="42.5197"/>
				<v:textRect cx="19.2472" cy="871.091" width="73.67" height="58.4032"/>
				<text x="-12" y="858.49" class="st7" v:langID="2058"><v:paragraph v:horizAlign="1"/><v:tabList/>Investigate<v:lf/><tspan
							x="-2.86" dy="1.2em" class="st8">Analyze<v:lf/></tspan><tspan x="3.71" dy="1.2em" class="st8">Work</tspan></text>			</g>
		</g>
		<g id="group50-195" transform="translate(140.315,-637.795)" v:mID="50" v:groupContext="group" v:layerMember="0">
			<v:userDefs>
				<v:ud v:nameU="visVersion" v:prompt="" v:val="VT0(15):26"/>
				<v:ud v:nameU="ConnGap" v:prompt="" v:val="VT0(0.00012908222537757):24"/>
			</v:userDefs>
			<title>Present</title>
			<desc>Introduction Software Product</desc>
			<g id="shape51-196" v:mID="51" v:groupContext="shape" v:layerMember="0" transform="translate(0,-26.6631)">
				<title>Sheet.51</title>
				<rect x="0" y="814.695" width="53.8583" height="27.1952" class="st9"/>
			</g>
			<g id="shape52-198" v:mID="52" v:groupContext="shape" v:layerMember="0" transform="translate(34.0282,-23.7994)">
				<title>Sheet.52</title>
				<path d="M14.03 822.94 C14.03 822.94 1.88 822.94 0 822.94 L0 826.32 L0 826.32 L4.56 826.32 C5.74 826.32 6.23 826.83
							 6.24 827.7 L6.26 841.89 L9.84 841.89 L9.84 836.36 C9.84 836.16 10 836.01 10.19 836.01 C10.38 836.01
							 10.54 836.16 10.54 836.36 L10.54 841.89 L13.93 841.89 L13.93 829.51 L14.62 829.51 L14.62 834.93 L16.7
							 834.93 L16.7 825.61 C16.7 824.14 15.51 822.94 14.03 822.94 ZM6.38 818.78 A3.81665 3.81578 -180 1 1 14.01
							 818.78 A3.81665 3.81578 -180 1 1 6.38 818.78 Z" class="st9"/>
			</g>
			<g id="shape53-200" v:mID="53" v:groupContext="shape" v:layerMember="0" transform="translate(0.810567,0)">
				<title>Sheet.53</title>
				<path d="M49.13 830.2 L39.74 830.2 C37.93 830.2 36.45 831.68 36.45 833.5 L36.45 841.89 L39.02 841.89 L39.02 837.21
							 L39.87 837.21 L39.87 841.89 L49.34 841.89 L49.34 837.21 L50.2 837.21 L50.2 841.89 L52.42 841.89 L52.42
							 833.5 C52.42 831.68 50.94 830.2 49.13 830.2 ZM30.9 830.2 L21.52 830.2 C19.7 830.2 18.22 831.68 18.22
							 833.5 L18.22 841.89 L20.79 841.89 L20.79 837.21 L21.65 837.21 L21.65 841.89 L31.11 841.89 L31.11 837.21
							 L31.97 837.21 L31.97 841.89 L34.2 841.89 L34.2 833.5 C34.2 831.68 32.72 830.2 30.9 830.2 ZM12.68 830.2
							 L3.3 830.2 C1.48 830.2 0 831.68 0 833.5 L0 841.89 L2.57 841.89 L2.57 837.21 L3.43 837.21 L3.43 841.89
							 L12.89 841.89 L12.89 837.21 L13.75 837.21 L13.75 841.89 L15.98 841.89 L15.98 833.5 C15.98 831.68 14.5
							 830.2 12.68 830.2 ZM39.77 825.06 A4.7129 4.70937 -180 1 1 49.2 825.06 A4.7129 4.70937 -180 1 1 39.77
							 825.06 ZM21.55 825.06 A4.70765 4.70937 -180 1 1 30.97 825.06 A4.70765 4.70937 -180 1 1 21.55 825.06
							 ZM3.33 825.06 A4.70765 4.70937 -180 1 1 12.74 825.06 A4.70765 4.70937 -180 1 1 3.33 825.06 Z"
						class="st10"/>
			</g>
			<g id="shape50-203" v:mID="50" v:groupContext="groupContent" v:layerMember="0">
				<v:textBlock v:margins="rect(4,4,4,4)" v:tabSpace="42.5197"/>
				<v:textRect cx="26.9291" cy="862.691" width="110.49" height="41.6033"/>
				<text x="-8.62" y="858.49" class="st7" v:langID="2058"><v:paragraph v:horizAlign="1"/><v:tabList/>Introduction<v:lf/><tspan
							x="-22.73" dy="1.2em" class="st8">Software Product</tspan></text>			</g>
		</g>
		<g id="group80-206" transform="translate(470.276,-290.551)" v:mID="80" v:groupContext="group" v:layerMember="0">
			<v:userDefs>
				<v:ud v:nameU="visVersion" v:prompt="" v:val="VT0(15):26"/>
				<v:ud v:nameU="ConnGap" v:prompt="" v:val="VT0(0.00012908222537757):24"/>
			</v:userDefs>
			<title>End</title>
			<desc>End</desc>
			<g id="shape81-207" v:mID="81" v:groupContext="shape" v:layerMember="0">
				<title>Sheet.81</title>
				<path d="M28.12 841.89 C12.62 841.89 0 829.81 0 814.96 C0 800.11 12.62 788.03 28.12 788.03 C43.63 788.03 56.24 800.11
							 56.24 814.96 C56.24 829.81 43.63 841.89 28.12 841.89 Z" class="st12"/>
			</g>
			<g id="shape82-209" v:mID="82" v:groupContext="shape" v:layerMember="0" transform="translate(15.748,-15.0803)">
				<title>Sheet.82</title>
				<v:userDefs>
					<v:ud v:nameU="SurroundingRegionColor" v:prompt="" v:val="VT0(1):26"/>
					<v:ud v:nameU="SurroundingRegionColor" v:prompt="" v:val="VT5(#0c0c0c)"/>
				</v:userDefs>
				<path d="M0 841.89 L24.75 841.89 L24.75 818.19 L0 818.19 L0 841.89 Z" class="st5"/>
			</g>
			<g id="shape80-212" v:mID="80" v:groupContext="groupContent" v:layerMember="0">
				<v:textBlock v:margins="rect(4,4,4,4)" v:tabSpace="42.5197"/>
				<v:textRect cx="28.1215" cy="854.291" width="32.72" height="24.8035"/>
				<text x="17.35" y="858.49" class="st7" v:langID="2058"><v:paragraph v:horizAlign="1"/><v:tabList/>End</text>			</g>
		</g>
		<g id="group83-214" transform="translate(28.7964,-73.7008)" v:mID="83" v:groupContext="group" v:layerMember="0">
			<v:userDefs>
				<v:ud v:nameU="visVersion" v:prompt="" v:val="VT0(15):26"/>
				<v:ud v:nameU="ConnGap" v:prompt="" v:val="VT0(0.00012908222537757):24"/>
			</v:userDefs>
			<title>Start</title>
			<desc>Start</desc>
			<g id="shape84-215" v:mID="84" v:groupContext="shape" v:layerMember="0">
				<title>Sheet.84</title>
				<path d="M28.12 841.89 C12.62 841.89 0 831.29 0 818.27 C0 805.24 12.62 794.65 28.12 794.65 C43.63 794.65 56.24 805.24
							 56.24 818.27 C56.24 831.29 43.63 841.89 28.12 841.89 Z" class="st13"/>
			</g>
			<g id="shape85-217" v:mID="85" v:groupContext="shape" v:layerMember="0" transform="translate(22.4972,-13.218)">
				<title>Sheet.85</title>
				<v:userDefs>
					<v:ud v:nameU="SurroundingRegionColor" v:prompt="" v:val="VT0(1):26"/>
					<v:ud v:nameU="SurroundingRegionColor" v:prompt="" v:val="VT5(#262626)"/>
				</v:userDefs>
				<path d="M0 841.89 L19.69 831.49 L0 821.08 L0 841.89 Z" class="st5"/>
			</g>
			<g id="shape83-220" v:mID="83" v:groupContext="groupContent" v:layerMember="0">
				<v:textBlock v:margins="rect(4,4,4,4)" v:tabSpace="42.5197"/>
				<v:textRect cx="28.1215" cy="854.291" width="38.57" height="24.8035"/>
				<text x="14.42" y="858.49" class="st7" v:langID="2058"><v:paragraph v:horizAlign="1"/><v:tabList/>Start</text>			</g>
		</g>
		<g id="group86-222" transform="translate(141.379,-531.326)" v:mID="86" v:groupContext="group" v:layerMember="0">
			<v:userDefs>
				<v:ud v:nameU="visVersion" v:prompt="" v:val="VT0(15):26"/>
				<v:ud v:nameU="ConnGap" v:prompt="" v:val="VT0(0.00012908222537757):24"/>
			</v:userDefs>
			<title>Web Page</title>
			<desc>Internet</desc>
			<g id="shape87-223" v:mID="87" v:groupContext="shape" v:layerMember="0" transform="translate(2.59792E-13,-11.5635)">
				<title>Sheet.87</title>
				<rect x="0" y="806.909" width="44.4794" height="34.9804" class="st9"/>
			</g>
			<g id="shape88-225" v:mID="88" v:groupContext="shape" v:layerMember="0" transform="translate(6.96199,-27.3527)">
				<title>Sheet.88</title>
				<v:userDefs>
					<v:ud v:nameU="SurroundingRegionColor" v:prompt="" v:val="VT0(1):26"/>
				</v:userDefs>
				<path d="M0 834.09 L2.13 834.09 L2.13 832.69 L0 832.69 L0 834.09 ZM4.83 834.09 L17.02 834.09 L17.02 832.69 L4.83
							 832.69 L4.83 834.09 ZM4.83 837.99 L17.02 837.99 L17.02 836.59 L4.83 836.59 L4.83 837.99 ZM0 837.99 L2.13
							 837.99 L2.13 836.59 L0 836.59 L0 837.99 ZM0 841.89 L2.13 841.89 L2.13 840.49 L0 840.49 L0 841.89 ZM4.83
							 841.89 L17.02 841.89 L17.02 840.49 L4.83 840.49 L4.83 841.89 Z" class="st10"/>
			</g>
			<g id="shape89-228" v:mID="89" v:groupContext="shape" v:layerMember="0" transform="translate(0.966943,-0.397776)">
				<title>Sheet.89</title>
				<path d="M0 802.24 L42.55 802.24 L42.55 796.64 L0 796.64 L0 802.24 ZM50.06 828.33 A13.1195 13.5604 -180 1 0 23.82
							 828.33 A13.1195 13.5604 -180 1 0 50.06 828.33 Z" class="st9"/>
			</g>
			<g id="shape90-230" v:mID="90" v:groupContext="shape" v:layerMember="0" transform="translate(24.7847,-0.397778)">
				<title>Sheet.90</title>
				<v:userDefs>
					<v:ud v:nameU="GrpLineWeight" v:prompt="" v:val="VT0(0.010416666666667):3"/>
				</v:userDefs>
				<path d="M1.37 834.37 L24.87 834.37" class="st6"/>
				<path d="M-0 828.33 L26.24 828.33" class="st6"/>
				<path d="M1.37 822.29 L24.87 822.29" class="st6"/>
				<path d="M20.55 828.33 A7.42612 13.5604 -180 1 0 5.69 828.33 A7.42612 13.5604 -180 1 0 20.55 828.33" class="st6"/>
				<path d="M13.12 841.89 L13.12 814.77" class="st6"/>
			</g>
			<g id="shape86-237" v:mID="86" v:groupContext="groupContent" v:layerMember="0">
				<v:textBlock v:margins="rect(4,4,4,4)" v:tabSpace="42.5197"/>
				<v:textRect cx="25.5118" cy="854.291" width="57.6" height="24.8035"/>
				<text x="2.3" y="858.49" class="st7" v:langID="2058"><v:paragraph v:horizAlign="1"/><v:tabList/>Internet</text>			</g>
		</g>
		<g id="group91-239" transform="translate(121.89,-340.157)" v:mID="91" v:groupContext="group" v:layerMember="0">
			<v:userDefs>
				<v:ud v:nameU="visVersion" v:prompt="" v:val="VT0(15):26"/>
				<v:ud v:nameU="ConnGap" v:prompt="" v:val="VT0(0.00012908222537757):24"/>
			</v:userDefs>
			<title>Presentation.91</title>
			<desc>WordPress Plugin</desc>
			<g id="shape92-240" v:mID="92" v:groupContext="shape" v:layerMember="0">
				<title>Sheet.92</title>
				<path d="M34.02 803.64 L25.56 794.65 L0 794.65 L0 841.89 L34.02 841.89 L34.02 803.64 Z" class="st9"/>
			</g>
			<g id="shape93-242" v:mID="93" v:groupContext="shape" v:layerMember="0" transform="translate(13.9026,-17.3911)">
				<title>Sheet.93</title>
				<v:userDefs>
					<v:ud v:nameU="SurroundingRegionColor" v:prompt="" v:val="VT0(1):26"/>
				</v:userDefs>
				<path d="M5.3 837.82 C4.15 836.55 2.68 835.6 0.98 835.12 L0 841.89 L5.3 837.82 Z" class="st11"/>
			</g>
			<g id="shape94-244" v:mID="94" v:groupContext="shape" v:layerMember="0" transform="translate(3.20221,-5.21825)">
				<title>Sheet.94</title>
				<v:userDefs>
					<v:ud v:nameU="SurroundingRegionColor" v:prompt="" v:val="VT0(1):26"/>
				</v:userDefs>
				<path d="M22.11 800.18 L30.3 808.89 L22.11 808.89 L22.11 800.18 ZM14.38 813.11 L28.2 813.11 L28.2 812.15 L14.38 812.15
							 L14.38 813.11 L14.38 813.11 ZM14.38 816.62 L28.2 816.62 L28.2 815.62 L14.38 815.62 L14.38 816.62 L14.38
							 816.62 ZM14.38 819.97 L28.2 819.97 L28.2 818.97 L14.38 818.97 L14.38 819.97 ZM16.69 826.51 L9.25 832.23
							 L10.62 822.71 C5.57 821.93 0.86 825.55 0.1 830.81 C-0.66 836.08 2.82 840.99 7.88 841.78 C12.93 842.57
							 17.65 838.95 18.41 833.68 C18.79 831.05 18.1 828.5 16.69 826.51 Z" class="st10"/>
			</g>
			<g id="shape91-247" v:mID="91" v:groupContext="groupContent" v:layerMember="0">
				<v:textBlock v:margins="rect(4,4,4,4)" v:tabSpace="42.5197"/>
				<v:textRect cx="17.0079" cy="862.691" width="76.44" height="41.6033"/>
				<text x="-14.04" y="858.49" class="st7" v:langID="2058"><v:paragraph v:horizAlign="1"/><v:tabList/>WordPress <v:lf/><tspan
							x="-0.47" dy="1.2em" class="st8">Plugin</tspan></text>			</g>
		</g>
		<g id="group95-250" transform="translate(181.417,-340.903)" v:mID="95" v:groupContext="group" v:layerMember="0">
			<v:userDefs>
				<v:ud v:nameU="visVersion" v:prompt="" v:val="VT0(15):26"/>
				<v:ud v:nameU="ConnGap" v:prompt="" v:val="VT0(0.00012908222537757):24"/>
			</v:userDefs>
			<title>Presentation.95</title>
			<desc>HTML Template</desc>
			<g id="shape96-251" v:mID="96" v:groupContext="shape" v:layerMember="0">
				<title>Sheet.96</title>
				<path d="M34.02 803.64 L25.56 794.65 L0 794.65 L0 841.89 L34.02 841.89 L34.02 803.64 Z" class="st9"/>
			</g>
			<g id="shape97-253" v:mID="97" v:groupContext="shape" v:layerMember="0" transform="translate(13.9026,-17.3911)">
				<title>Sheet.97</title>
				<v:userDefs>
					<v:ud v:nameU="SurroundingRegionColor" v:prompt="" v:val="VT0(1):26"/>
				</v:userDefs>
				<path d="M5.3 837.82 C4.15 836.55 2.68 835.6 0.98 835.12 L0 841.89 L5.3 837.82 Z" class="st11"/>
			</g>
			<g id="shape98-255" v:mID="98" v:groupContext="shape" v:layerMember="0" transform="translate(3.20221,-5.21825)">
				<title>Sheet.98</title>
				<v:userDefs>
					<v:ud v:nameU="SurroundingRegionColor" v:prompt="" v:val="VT0(1):26"/>
				</v:userDefs>
				<path d="M22.11 800.18 L30.3 808.89 L22.11 808.89 L22.11 800.18 ZM14.38 813.11 L28.2 813.11 L28.2 812.15 L14.38 812.15
							 L14.38 813.11 L14.38 813.11 ZM14.38 816.62 L28.2 816.62 L28.2 815.62 L14.38 815.62 L14.38 816.62 L14.38
							 816.62 ZM14.38 819.97 L28.2 819.97 L28.2 818.97 L14.38 818.97 L14.38 819.97 ZM16.69 826.51 L9.25 832.23
							 L10.62 822.71 C5.57 821.93 0.86 825.55 0.1 830.81 C-0.66 836.08 2.82 840.99 7.88 841.78 C12.93 842.57
							 17.65 838.95 18.41 833.68 C18.79 831.05 18.1 828.5 16.69 826.51 Z" class="st10"/>
			</g>
			<g id="shape95-258" v:mID="95" v:groupContext="groupContent" v:layerMember="0">
				<v:textBlock v:margins="rect(4,4,4,4)" v:tabSpace="42.5197"/>
				<v:textRect cx="17.0079" cy="862.691" width="65.07" height="41.6033"/>
				<text x="0.31" y="858.49" class="st7" v:langID="2058"><v:paragraph v:horizAlign="1"/><v:tabList/>HTML <v:lf/><tspan
							x="-9.94" dy="1.2em" class="st8">Template</tspan></text>			</g>
		</g>
		<g id="group99-261" transform="translate(238.11,-340.903)" v:mID="99" v:groupContext="group" v:layerMember="0">
			<v:userDefs>
				<v:ud v:nameU="visVersion" v:prompt="" v:val="VT0(15):26"/>
				<v:ud v:nameU="ConnGap" v:prompt="" v:val="VT0(0.00012908222537757):24"/>
			</v:userDefs>
			<title>Presentation.99</title>
			<desc>Specific Software</desc>
			<g id="shape100-262" v:mID="100" v:groupContext="shape" v:layerMember="0">
				<title>Sheet.100</title>
				<path d="M34.02 803.64 L25.56 794.65 L0 794.65 L0 841.89 L34.02 841.89 L34.02 803.64 Z" class="st9"/>
			</g>
			<g id="shape101-264" v:mID="101" v:groupContext="shape" v:layerMember="0" transform="translate(13.9026,-17.3911)">
				<title>Sheet.101</title>
				<v:userDefs>
					<v:ud v:nameU="SurroundingRegionColor" v:prompt="" v:val="VT0(1):26"/>
				</v:userDefs>
				<path d="M5.3 837.82 C4.15 836.55 2.68 835.6 0.98 835.12 L0 841.89 L5.3 837.82 Z" class="st11"/>
			</g>
			<g id="shape102-266" v:mID="102" v:groupContext="shape" v:layerMember="0" transform="translate(3.20221,-5.21825)">
				<title>Sheet.102</title>
				<v:userDefs>
					<v:ud v:nameU="SurroundingRegionColor" v:prompt="" v:val="VT0(1):26"/>
				</v:userDefs>
				<path d="M22.11 800.18 L30.3 808.89 L22.11 808.89 L22.11 800.18 ZM14.38 813.11 L28.2 813.11 L28.2 812.15 L14.38 812.15
							 L14.38 813.11 L14.38 813.11 ZM14.38 816.62 L28.2 816.62 L28.2 815.62 L14.38 815.62 L14.38 816.62 L14.38
							 816.62 ZM14.38 819.97 L28.2 819.97 L28.2 818.97 L14.38 818.97 L14.38 819.97 ZM16.69 826.51 L9.25 832.23
							 L10.62 822.71 C5.57 821.93 0.86 825.55 0.1 830.81 C-0.66 836.08 2.82 840.99 7.88 841.78 C12.93 842.57
							 17.65 838.95 18.41 833.68 C18.79 831.05 18.1 828.5 16.69 826.51 Z" class="st10"/>
			</g>
			<g id="shape99-269" v:mID="99" v:groupContext="groupContent" v:layerMember="0">
				<v:textBlock v:margins="rect(4,4,4,4)" v:tabSpace="42.5197"/>
				<v:textRect cx="17.0079" cy="862.691" width="62.51" height="41.6033"/>
				<text x="-4.64" y="858.49" class="st7" v:langID="2058"><v:paragraph v:horizAlign="1"/><v:tabList/>Specific<v:lf/><tspan
							x="-8.66" dy="1.2em" class="st8">Software</tspan></text>			</g>
		</g>
		<g id="shape108-272" v:mID="108" v:groupContext="shape" v:layerMember="2" transform="translate(85.0487,-90.2362)">
			<title>Dynamic connector</title>
			<path d="M0 834.8 L65.38 834.8" class="st14"/>
		</g>
		<g id="shape109-278" v:mID="109" v:groupContext="shape" v:layerMember="2" transform="translate(157.958,-120.954)">
			<title>Dynamic connector.109</title>
			<path d="M7.09 841.89 L7.09 767.7" class="st16"/>
		</g>
		<g id="shape110-283" v:mID="110" v:groupContext="shape" v:layerMember="2" transform="translate(160.634,-244.261)">
			<title>Dynamic connector.110</title>
			<path d="M4.41 841.89 L4.41 831.27 L9.76 831.27 L9.76 797.45" class="st16"/>
		</g>
		<g id="shape111-288" v:mID="111" v:groupContext="shape" v:layerMember="2" transform="translate(176.143,-402.52)">
			<title>Dynamic connector.111</title>
			<path d="M-5.75 841.89 L-5.75 831.26 L-8.43 831.26 L-8.43 803.12" class="st14"/>
		</g>
		<g id="shape112-293" v:mID="112" v:groupContext="shape" v:layerMember="2" transform="translate(174.39,-490.875)">
			<title>Dynamic connector.112</title>
			<path d="M-6.67 841.89 L-6.67 831.27 L-7.5 831.27 L-7.5 804.72" class="st14"/>
		</g>
		<g id="shape113-298" v:mID="113" v:groupContext="shape" v:layerMember="2" transform="translate(159.981,-578.277)">
			<title>Dynamic connector.113</title>
			<path d="M6.91 841.89 L6.91 831.27 L7.26 831.27 L7.26 785.65" class="st14"/>
		</g>
		<g id="shape114-303" v:mID="114" v:groupContext="shape" v:layerMember="2" transform="translate(194.183,-664.724)">
			<title>Dynamic connector.114</title>
			<path d="M0 841.89 L71.5 841.89 L71.5 924.06" class="st17"/>
		</g>
		<g id="shape115-306" v:mID="115" v:groupContext="shape" v:layerMember="2" transform="translate(285.534,-551.836)">
			<title>Dynamic connector.115</title>
			<path d="M2.91 834.8 L3.27 834.8 L38.76 834.8" class="st18"/>
		</g>
		<g id="shape116-312" v:mID="116" v:groupContext="shape" v:layerMember="2" transform="translate(393.785,-565.76)">
			<title>Dynamic connector.116</title>
			<path d="M0 848.73 L10.62 848.73 L10.62 849.23 L54.8 849.23" class="st14"/>
		</g>
		<g id="shape117-317" v:mID="117" v:groupContext="shape" v:layerMember="2" transform="translate(505.734,-413.858)">
			<title>Dynamic connector.117</title>
			<path d="M-6.84 841.89 L-6.84 852.52 L-7.34 852.52 L-7.34 908.06" class="st14"/>
		</g>
		<g id="shape118-322" v:mID="118" v:groupContext="shape" transform="translate(18,-734.173)">
			<title>Sheet.118</title>
			<desc>How-to Software Engineers commercialize its products</desc>
			<v:textBlock v:margins="rect(4,4,4,4)" v:tabSpace="42.5197"/>
			<v:textRect cx="279.638" cy="799.37" width="559.28" height="85.0394"/>
			<g id="shadow118-323" v:groupContext="shadow" v:shadowOffsetX="3" v:shadowOffsetY="0" v:shadowType="1"
					transform="matrix(1,0,0,1,3,0)" class="st19">
				<rect x="0" y="756.85" width="559.276" height="85.0394" rx="8.50394" ry="8.50394" class="st20"/>
			</g>
			<rect x="0" y="756.85" width="559.276" height="85.0394" rx="8.50394" ry="8.50394" class="st21"/>
			<text x="241.59" y="792.17" class="st22" v:langID="11274"><v:paragraph v:horizAlign="1"/><v:tabList/>How-to<v:newlineChar/><tspan
						x="30.18" dy="1.2em" class="st8" v:langID="2058">Software</tspan> Engineers commercialize its products</text>		</g>
	</g>
</svg>
